<svg height="18.871922mm" viewBox="0 0 18.871922 18.871922" width="18.871922mm" xmlns="http://www.w3.org/2000/svg"><g transform="matrix(.89765654 0 0 .89765654 -70.278566 -47.711859)"><path d="m87.162885 67.254574 2.927563-.378442" fill="#fff" opacity=".433306" stroke-width=".382457"/><path d="m88.535496 59.050576c-1.949294 0-3.524332 1.564752-3.524332 3.503147v.0047l.000529.0047c.0086.156128.0273.304866.05426.447518.0759-.01828.155824-.0279.239263-.0279.03177 0 .06317.0013.09405.0041-.02781-.138763-.04819-.283596-.05685-.437184.0024-1.758249 1.42221-3.168798 3.193087-3.168798h.132292c1.771748 0 3.192153 1.411928 3.193083 3.171383-.004.150567-.0263.303374-.0636.456303h.0584l.15451.441317c.10651-.28843.17506-.587795.18191-.891937v-.0042c0-1.938396-1.57504-3.503147-3.524333-3.503147zm-3.23546 4.511871c-.03345 0-.0564.0035-.07545.0083.07139.187537.156681.36131.251148.521931.01513-.04868.02635-.113692.02635-.202055 0-.143833-.02972-.231465-.05943-.271301-.0297-.03984-.05719-.05684-.142627-.05684zm6.179982.248047c-.0376.07022-.0779.139354-.11885.207738v.601562c.0939-.129238.18589-.264951.27233-.406178zm-5.424475.541568c-.03411.07338-.07757.140843-.131773.199988-.02334.02548-.04854.04817-.07493.06976.09477.114248.191625.21984.286806.316778.25486.259564.499658.46286.665075.618567.08271.07785.145331.144629.176218.189653.02143.03125.02352.04288.02429.04237l-.0041.01394v1.659329c0 .264456-.0013.466003.02429.636138.02572.170135.09085.324966.22324.422195.132392.09723.297346.129313.511598.146762.214252.01746.485701.01707.845426.01707.359124 0 .630055.000529.844394-.01707.214336-.01773.380693-.05104.513146-.149863.13245-.09882.196387-.254788.222208-.427363.02582-.172574.02479-.377994.02479-.647506v-1.546159c.08057-.06997.487387-.427929.943097-.998387.0315-.03945.063-.07986.0946-.120925h-.42375c-.456.553802-.886769.921909-.886769.921909l-.05839.04961v.962216l-2.546615.329178v-1.20251c.01677-.105571-.02593-.201565-.07803-.277503-.05701-.08311-.132802-.159234-.222207-.243395-.160841-.1514-.368541-.327562-.583946-.539504h-.274918v-.289388c-.03836-.04392-.07624-.08928-.113689-.135909zm3.819406 2.744536v.247012l-2.544548.329179c-.000794-.06778-.0021-.129635-.0021-.210322v-.03617zm-.0026.633553c-.0024.125465-.0071.234569-.0186.31161-.0195.130315-.04533.175776-.09302.211355-.04769.03558-.15145.06955-.341579.08527-.190135.01572-.458349.01601-.817523.01601-.359746 0-.628119-.000529-.818555-.01601-.190437-.01551-.294637-.04886-.342098-.08372-.04656-.03419-.07185-.0777-.09095-.199469z" fill="#fff" opacity=".433" stroke-width=".224354"/><path d="m88.951083 60.52855c1.033093-.148351 1.785775 1.049918 1.541866 1.95823" fill="none" opacity=".433" stroke="#fff" stroke-width=".382451"/><g fill="#fff"><path d="m91.531998 56.650726-.0734.176541s-.14538.349695-.30296.735761c-.15758.386065-.32391.797324-.37948.963061l-.0608.181242.36259.121612.0608-.181349c.0414-.123519.21391-.555405.37093-.940086.15702-.384682.302-.73341.302-.73341l.0734-.17654z" opacity=".433306" stroke-width=".068822"/><path d="m92.103697 59.366725c.20442-.22677 1.29469-1.277211 1.29469-1.277211" opacity=".433306" stroke="#fff" stroke-linecap="square" stroke-width=".382457"/><path d="m92.662249 60.520735c.290542-.09476 1.760633-.462319 1.760633-.462319" opacity=".433306" stroke="#fff" stroke-linecap="square" stroke-width=".382457"/><g stroke-width=".058756"><path d="m83.855689 62.949969q-.26852 0-.422333.189902-.153812.189903-.153812.524182 0 .349894.147294.529388.148599.179499.428851.179499.121225 0 .234629-.02341.113404-.02471.235933-.06243v.266648q-.224202.08455-.508363.08455-.418422 0-.642624-.252337-.224201-.253636-.224201-.724492 0-.296564.10819-.518985.109494-.222417.315446-.340785.205952-.118364.483597-.118364.291983 0 .539647.122266l-.112101.258843q-.09646-.04553-.204648-.07934-.106887-.03512-.225505-.03512z"/><path d="m85.982994 63.890377q0 .352492-.181186.5502-.181186.197707-.504453.197707-.202042 0-.357158-.09105t-.238539-.261441q-.08342-.17039-.08342-.395415 0-.349889.179882-.546297.179883-.196404.50706-.196404.312839 0 .495328.20161.18249.200306.18249.541091zm-1.049314 0q0 .498173.368889.498173.364979 0 .364979-.498173 0-.492967-.367586-.492967-.192917 0-.280251.127468-.08603.127473-.08603.365499z"/><path d="m87.603239 64.612271h-.307625v-.884479q0-.166493-.06778-.248435-.06648-.08195-.212469-.08195-.194221 0-.284162.114461-.08994.114461-.08994.383707v.716693h-.306325v-1.438582h.239843l.04301.188604h.01564q.06517-.102759.185097-.158688.119921-.05593.265913-.05593.518791 0 .518791.526785z"/><path d="m88.610841 64.638284q-.327177 0-.497935-.189902-.169454-.191207-.169454-.547597 0-.3629.177275-.558005.178579-.195104.514881-.195104.228112 0 .410601.08455l-.09255.245831q-.194221-.07544-.32066-.07544-.374103 0-.374103.49557 0 .241934.09255.3642.09385.120962.273734.120962.204648 0 .387138-.101455v.266648q-.08212.04812-.175972.06894-.09255.02081-.225505.02081z"/><path d="m89.980815 64.638284q-.336301 0-.526612-.195104-.189007-.196408-.189007-.539796 0-.352488.175972-.554098t.483597-.20161q.285466 0 .45101.172994.165543.172993.165543.476057v.165189h-.960675q.0065.209414.113403.322576.106887.111858.301108.111858.127742 0 .237236-.02341.110797-.02471.237236-.08064v.248434q-.1121.05333-.226808.07544-.114707.02211-.262003.02211zm-.05605-1.259082q-.145992 0-.234629.09235-.08733.09235-.10428.269246h.654355q-.0026-.178199-.08603-.269246-.08342-.09235-.229416-.09235z"/><path d="m91.195678 64.612271h-.30633v-1.438582h.30633zm-.32458-1.81969q0-.08194.0443-.126169.0456-.04422.12905-.04422.0808 0 .12514.04422.0456.04423.0456.126169 0 .07804-.0456.12357-.0443.04422-.12514.04422-.0834 0-.12905-.04422-.0443-.04553-.0443-.12357z"/><path d="m91.962128 64.612271-.54747-1.438582h.32327l.29329.836356q.0756.210714.0912.340785h.0104q.0117-.09365.0912-.340785l.29329-.836356h.32587l-.55007 1.438582z"/><path d="m93.691868 64.638284q-.3363 0-.52661-.195104-.18901-.196408-.18901-.539796 0-.352488.17597-.554098t.4836-.20161q.28547 0 .45101.172994.16554.172993.16554.476057v.165189h-.96067q.007.209414.1134.322576.10689.111858.30111.111858.12774 0 .23723-.02341.1108-.02471.23724-.08064v.248434q-.1121.05333-.22681.07544t-.262.02211zm-.056-1.259082q-.14599 0-.23463.09235-.0873.09235-.10428.269246h.65436q-.003-.178199-.086-.269246-.0834-.09235-.22941-.09235z"/></g></g></g></svg>