<svg height="18.871918mm" viewBox="0 0 18.871918 18.871918" width="18.871918mm" xmlns="http://www.w3.org/2000/svg"><g fill="#fff" transform="matrix(.14275057 0 0 .14275057 5.945968 -15.907325)"><path d="m174.45703 558.01172-26.73828 15.85547-8.95313 26.71679 16.13868 19.71094-11.16797 35.06055c2.68965.61149 5.05242 1.81112 6.82812 3.76562.0181.0189.0309.0417.0488.0606l10.11719-31.77148 3.78906 4.62695 4.25781-1.42383-9.94336 31.22266c.25716-.34318.50699-.69254.78907-1.01758 2.43921-2.81095 5.7001-4.64411 9.38086-5.49609l8.83203-27.74024 25.9414-8.67773 7.90625-24.81641-13.95898-28.08203-2.89453 9.08008-7.86133 24.69336-14.57227 5.22656-8.87304-12.66016zm-155.078124 6.1543-3.736328.96093-65.18164 16.80469 19.0625 73.65625c2.902502.4687 5.502505 1.61823 7.55664 3.3457.346609-.28686.699836-.56653 1.060547-.83593l-18.279297-70.63672 53.97461-13.91602 4.287109 16.56446-25.4453126 6.56054 1.9257812 7.47852 25.4550784-6.5625 4.283203 16.55273-25.4492189 6.56055 1.9277344 7.47656 25.4550785-6.5625 4.287109 16.56445-35.8789062 9.24805 1.9296874 7.45508 35.8789068-9.24805 3.21289 12.41407c1.256771.86789 2.400079 1.90519 3.357422 3.14257.09112.11697.175652.23822.263672.35743l-.01172.002c1.521101 2.05893 2.579414 4.45045 3.240235 7.11914l.01367-.004c.57838 2.33804.853508 4.88813.861329 7.61524.0083 2.87403-.295934 5.55178-.935547 8.0039l.503906 1.94922-1.207031.31055c-.67493 1.79713-1.569209 3.44516-2.707032 4.91797l-.002.0137c-3.028014 3.94065-7.738405 6.11811-12.867187 6.13281-2.129185.008-4.145987-.43554-6.042969-1.13086l.0098 3.59375 23.875-6.15625-.0098-3.63281.0039.0117-.08984-31.13281zm141.568364 10.83203-5.94141 18.65429 14.45312 20.60157 23.71094-8.4961 6.12696-19.24414 4.08203 8.20899-5.76563 18.10742-30.49414 10.19336-19.67969-24.02735 6.6875-19.95312zm-136.542973 93.70703c-2.064529.008-2.708073.43089-3.183594 1.02734-.406344.52902-.959161 2.10278-1.064453 4.70899l7.859375-2.02539c-.252401-1.13454-.593292-1.96271-.943359-2.4629l-.01563-.0195-.01367-.0195c-.664244-.97285-1.042527-1.21329-2.638672-1.20898zm114.789063.92187-3.01367 9.46094-2.99219-.94922.0234 8.08203.63281.20118 5.71484 1.81445-.0449-16.08008c-.003-1.17456-.15446-1.97949-.32031-2.5293zm-157.195313 3.37305c-.09987.72888-.174653 1.53626-.171875 2.51172l.05078 17.7539.01172 3.84766-1.617188.004 28.0839848 108.51953 68.9140622-17.76563-23.539062-90.95507-7.958985.0234 3.44336 13.31055-35.587891 9.17383 1.925781 7.47851 35.597657-9.17578 4.283203 16.55078-25.449219 6.5625 1.927734 7.47657 25.455079-6.5625 4.283203 16.55078-25.449219 6.5625 1.925781 7.47851 25.458985-6.56445 4.285156 16.5625-53.976563 13.91406-25.660156-99.16211.002-.0137zm172.656253 1.95312c-.00014.004.00013.008 0 .0117l.002-.008zm0 .0117-.28125.88477.0488 17.09961 2.36132.74805 2.32618.73828-18.95313 59.51367-27.58789-8.75 15.44531-48.50391-8.10156.0215-17.03125 53.49023 42.28906 13.4082 21.60742-67.85937c-2.51311-.93997-4.75631-2.34736-6.61523-4.24219l-.0254-.0254c-3.72377-3.84756-5.50419-9.1896-5.52149-15.22656-.001-.43967.0238-.86538.0391-1.29688z" opacity=".433306" stroke-linecap="square" stroke-width="3.77953" transform="scale(.26458333)"/><g stroke-width="1.38565"><path d="m-18.126047 183.53657-.03434-11.97997 1.958433-.006.03434 11.97996z"/><path d="m-5.7891036 183.50121-1.933852.006-.01602-5.58846q-.00298-1.04067-.397753-1.54759-.3948051-.51511-1.2306106-.51271-1.1144208.003-1.6367668.73398-.514172.72258-.509327 2.41059l.01295 4.51502-1.925646.006-.02599-9.06282 1.507752-.004.273806 1.18739.09834-.00028q.375074-.64842 1.086966-1.00282.7200812-.35442 1.5804678-.35688 2.0895245-.006 2.7737401 1.41786l.1311106-.00038q.3995945-.67308 1.1278017-1.0521.7282071-.37903 1.6705428-.38173 1.6224501-.005 2.36227553.81266.74803256.81729.75284364 2.4971l.01693617 5.90805-1.92564614.006-.01602-5.58847q-.00298-1.04067-.4059594-1.54756-.3948051-.51511-1.2306113-.51271-1.1226078.003-1.6450132.70942-.5142512.69799-.5100905 2.14837z"/><path d="m6.9989661 183.62844q-1.7207929.005-2.6748533-1.22967l-.114736.00033q.1180084 1.14687.1187248 1.39269l.010631 3.71199-1.9256461.006-.037535-13.09438 1.5569139-.004q.066285.25383.2738858 1.21197l.098344-.00028q.8974188-1.37922 2.7001411-1.38438 1.6962118-.005 2.6420716 1.22157.9540471 1.22641.9604121 3.44705.0064 2.22064-.9569827 3.46893-.9551589 1.24827-2.6513516 1.25313zm-.4894727-7.81596q-1.1471889.003-1.6778934.67675-.5224987.67342-.5182778 2.14839l.0008235.2868q.00475 1.65523.5313177 2.3994.5265331.73598 1.7146962.73258.9997043-.003 1.5381777-.82385.5384741-.82097.5341276-2.3369-.00438-1.52412-.5474325-2.30103-.5348797-.78512-1.575539-.78214z"/><path d="m14.566379 183.44287-1.925646.006-.03654-12.75023 1.925645-.006z"/><path d="m21.061294 183.58814q-2.114105.006-3.313999-1.21965-1.1917-1.23392-1.197911-3.3972-.0064-2.22063 1.096219-3.49391 1.102584-1.27328 3.036417-1.27882 1.794535-.005 2.838333 1.08171 1.043797 1.08684 1.049259 2.9961l.003 1.04067-6.039139.0173q.04474 1.31915.718721 2.03012.673945.70278 1.894896.69928.803019-.002 1.490921-.15177.696057-.15768 1.489899-.51232l.0045 1.5651q-.703752.33799-1.424439.47935-.720704.14137-1.646646.14402zm-.375081-7.93101q-.917754.003-1.473305.58602-.547345.58336-.650676 1.69809l4.113513-.0118q-.01961-1.12256-.545732-1.69464-.526083-.58029-1.443838-.57766z"/><path d="m34.192585 183.38662-1.933833.006-.01602-5.58846q-.003-1.04067-.397753-1.54759-.394806-.51511-1.230612-.51272-1.11442.003-1.636765.73399-.514172.72257-.509328 2.41058l.01295 4.51502-1.925645.006-.02599-9.06281 1.507752-.004.273807 1.18739.09832-.00028q.375073-.64842 1.086966-1.00282.720081-.35442 1.580486-.35689 2.089525-.006 2.77374 1.41786l.131111-.00037q.399575-.67308 1.127783-1.0521.728207-.37903 1.670542-.38173 1.62247-.005 2.362295.81266.748033.81728.752844 2.4971l.01694 5.90804-1.925646.006-.01602-5.58846q-.003-1.04067-.405959-1.54756-.394805-.51511-1.230611-.51272-1.122608.003-1.645033.70943-.514232.69799-.510071 2.14836z"/><path d="m46.341514 183.51568q-2.114105.006-3.31398-1.21965-1.19172-1.23392-1.197911-3.3972-.0064-2.22063 1.096219-3.49391 1.102565-1.27327 3.036417-1.27882 1.794535-.005 2.838314 1.08171 1.043797 1.08685 1.049278 2.9961l.003 1.04067-6.039159.0173q.04476 1.31915.718721 2.03013.673945.70278 1.894896.69928.803038-.002 1.490922-.15177.696075-.15769 1.489899-.51232l.0045 1.5651q-.703753.33798-1.42444.47934-.720685.14137-1.646646.14403zm-.37508-7.931q-.917755.003-1.473287.58601-.547364.58337-.650695 1.69809l4.113513-.0118q-.01961-1.12256-.545732-1.69464-.526102-.58029-1.443857-.57765z"/><path d="m59.808789 183.3132-1.933833.006-.01597-5.57208q-.003-1.04886-.430586-1.56388-.419386-.51503-1.337141-.5124-1.220951.004-1.784284.72621-.563334.72271-.558475 2.41892l.01295 4.51502-1.925646.006-.02597-9.06282 1.507734-.004.273806 1.18739.09834-.00029q.407842-.64851 1.160709-1.00303.752849-.35451 1.670603-.35714 3.261314-.009 3.27083 3.30932z"/><path d="m65.643698 181.90344q.704695-.002 1.408772-.22528l.0042 1.45038q-.319184.14022-.826968.23181-.499565.0998-1.040382.10131-2.736871.008-2.745146-2.87653l-.014-4.88376-1.237324.004-.0024-.85221 1.325443-.7085.650039-1.91933 1.188163-.003.0058 2.01579 2.581199-.007.0042 1.45858-2.581181.007.01389 4.85099q.002.69651.347041 1.03152.353306.32675.918704.32513z"/></g></g></svg>