<svg height="18.871918mm" viewBox="0 0 18.871917 18.871917" width="18.871918mm" xmlns="http://www.w3.org/2000/svg"><g fill="#fff" stroke-width=".242514" transform="matrix(.20030229 0 0 .20030229 -7.330483 -11.836047)"><path d="m88.909063 85.345024-.16862 2.175517.425345 1.869538-2.355511.97573-1.020741-1.622756-1.657799-1.419093-5.112213 5.112213 1.419093 1.657799 1.622756 1.02074-.975729 2.355512-1.869538-.425345-2.175518.16862v6.502401c.559867-.33445 1.221735-.5087 1.930166-.5087.995325 0 1.901381.33157 2.538343.99848.63929.66936.940201 1.59615.940201 2.63023v1.20214l.07484-.0469v-4.1805l-.553222-1.33574-2.863748.65175-.593988-.0464v-4.503548l.593988-.04593 2.863748.651271 1.926844-4.651801-2.485766-1.564019-.387464-.452361 3.184884-3.184884.452361.387464 1.564019 2.485766 4.652286-1.92733-.651755-2.863262.04593-.593989h4.504037l.04593.593989-.651756 2.863262 4.651825 1.92733 1.564019-2.485766.45283-.387464 3.1844 3.184884-.38744.452361-2.48531 1.564019 1.92687 4.651801.6058-.137821 2.25746-.51345.59397.04593v4.503548l-.59397.0464-2.86326-.65175-.30836.74413c.88401.057 1.68193.38302 2.25841.98664.0837.0876.16084.18045.23303.27661l.57124.12977 2.17598-.16862v-7.229941l-2.17598-.16862-1.86907.425345-.97573-2.355512 1.62229-1.02074 1.41956-1.657799-5.11222-5.112213-1.6578 1.419093-1.021225 1.622756-2.355511-.97573.425344-1.869538-.168619-2.175517zm3.614982 10.129215c-2.94836 0-5.354242 2.405881-5.354266 5.354241 0 .92483.236766 1.79623.652725 2.5568l.170512.037-.0228.21503c.05512.0889.113302.17561.173373.261l.09805-.0512c.408272-.21315.850908-.37059 1.320075-.47603.008-.002.01576-.003.02377-.005-.586592-.67955-.942578-1.56431-.942578-2.53786 0-2.152404 1.728759-3.881163 3.881165-3.881163 2.152382 0 3.881626 1.728759 3.881626 3.881163 0 .37144-.05481.72905-.151086 1.06857h1.24475v.9028c.243484-.61087.378928-1.2756.378928-1.97137 0-2.948358-2.405906-5.35424-5.354242-5.35424zm1.2585 9.025561c-.02786.009-.05471.0209-.08289.0299.02854.0518.05706.10363.08289.15725zm-1.52706.28374c.0024.002.0024.005.0044.007.0024.002.0027.002.0051.003zm10.229135.92837c-.2318 0-.34294.0503-.44667.1383h.88009c-.0919-.0891-.18863-.1383-.43342-.1383zm-11.646821.0114c-.139591 0-.272925.0119-.402597.0336.08692.0371.175119.0717.264291.1042.06104-.004.120917-.008.184262-.0104l.317353-.01c-.0024-.003-.0051-.034-.0075-.036l-.0049-.005-.0046-.006c-.01358-.0145-.0695-.0706-.346261-.0706zm3.212845.10467c.0034.0434.01358.0839.02328.12458.122251-.0371.242053-.0791.360448-.12458zm-14.250056 2.48055-.391248.45661c.280686-.007.540612-.0316.771606-.081.270476-.0607.576528-.16345.914156-.31311l.141167-.0625zm23.228282 0 .60723.38225.003.004c.0184-.004.0381-.007.0564-.0104.27045-.0607.57653-.16346.91416-.31311l.14114-.0625zm2.62074.46941v.82227l.37942-.37941zm-19.423816.67732-.866331 1.37646v.37514h-.235869l-.461819.73371-.452361.38744-1.121141-1.12115h-.564135v-.56365l-.3936-.39362v.36661l-.41967.1999c-.26029.12407-.526206.22324-.796221.29982l3.21709 3.21758 1.657799-1.41956 1.020741-1.62229 2.355511.97527-.425345 1.86953.16862 2.17598h7.22994l.168619-2.17598-.425344-1.86953 2.355511-.97527 1.021225 1.62229 1.657796 1.41956 3.12094-3.12142c-.39605.076-.82748.11083-1.29876.11083-.28449 0-.56132-.0226-.82748-.0673l-1.07237 1.07235-.45283-.38744-.993744-1.57918v.47554l-.442393.19232c-.225247.0981-.468027.1612-.742213.21031-.283523.0554-.575607.0834-.873898.0834-.657892 0-1.274798-.16234-1.747336-.52766l-1.416256.58688.651756 2.86326-.04593.59397h-4.504037l-.04593-.59397.651755-2.86326-.259102-.10753c-.217607.031-.443824.0483-.683015.0483-.762536 0-1.474968-.22413-1.987473-.71428l-.0048-.004c-.188579-.18232-.339374-.39454-.455659-.6276zm-17.940799.3022-4.625295 2.67051 2.239469 2.23139-.924123 1.60003-3.051307-.82323v6.384l3.051307-.8237.924123 1.60001-2.239469 2.23142 5.528561 3.19199.812785-3.05463h1.84776l.812785 3.05463 5.5281-3.19199-2.239008-2.23142.923638-1.60001 3.051331.8237v-6.384l-3.051331.82323-.923638-1.60003 2.239008-2.23139-3.615928-2.0879c-.579026.63352-1.404785.98284-2.299612.98284-.05602 0-.110586-.005-.165782-.008l-.259563.97619h-.728487v1.4731h1.860517l.609146-2.29061 2.198241 1.26939-1.679116 1.67249 2.055667 3.56146.546602-.14733 1.742121-.47033v2.53834l-2.288723-.61765-2.055667 3.56146 1.679116 1.67341-2.198241 1.26847-.609146-2.29061h-4.11182l-.609146 2.29061-2.198241-1.26847 1.679116-1.67341-2.056152-3.56146-2.288723.61765v-2.53834l2.288723.61766 2.056152-3.56146-1.679116-1.67249 2.198241-1.26939.02512.0942zm2.639688 5.31684c-1.953908 0-3.553383 1.59994-3.553383 3.55387 0 1.95391 1.599475 3.55339 3.553383 3.55339 1.953933 0 3.553869-1.59948 3.553869-3.55339 0-1.95393-1.599936-3.55387-3.553869-3.55387zm0 1.47308c1.157979 0 2.080792.92281 2.080792 2.08079s-.922813 2.08077-2.080792 2.08077c-1.157954 0-2.080791-.92279-2.080791-2.08077s.922837-2.08079 2.080791-2.08079z" opacity=".433"/><path d="m63.392087 101.86246c-1.279333 0-2.264763.37483-2.956582 1.12449-.687987.74966-1.032114 1.82392-1.032114 3.22276 0 1.39885.342308 2.47908 1.026415 3.24033.687987.75737 1.671574 1.13629 2.950907 1.13629 1.26386 0 2.239711-.38256 2.927698-1.14767.691819-.76513 1.037789-1.83757 1.037789-3.21709 0-1.38339-.344151-2.45586-1.032114-3.21711s-1.662019-1.142-2.921999-1.142zm32.529987.77112-.46371 1.35658-.93928.49829v.60296h.875329v3.45439c0 1.36021.645401 2.04053 1.936326 2.04053.2551 0 .500767-.0233.736538-.0696.239628-.0425.434706-.0968.585453-.16246v-1.02596c-.332414.10433-.664682.1563-.997071.1563-.266668 0-.483184-.077-.649379-.2316-.162339-.15843-.243459-.40194-.243459-.7304v-3.43118h1.825958v-1.03211h-1.825958v-1.42572zm-32.529987.4173c.823237 0 1.441768.26858 1.855326.8057.417415.53712.626171 1.32551.626171 2.36499 0 1.05491-.210575 1.84876-.63187 2.38202-.417414.53326-1.037764.80001-1.861001.80001-.827117 0-1.451566-.26856-1.872861-.80568-.42127-.541-.631845-1.33303-.631845-2.37635 0-1.03948.210575-1.82787.631845-2.36499.425151-.53712 1.053261-.8057 1.884235-.8057zm8.905272.89286c-.850301 0-1.488427.32417-1.913578.97335h-.06965c-.09662-.45207-.159962-.73799-.190883-.85779h-1.101715v9.2629h1.362248v-2.62598c0-.11592-.02689-.44421-.081-.98521h.081c.448335.58351 1.078701.87532 1.89037.87532.800053 0 1.425835-.29363 1.87805-.881.456071-.58737.684447-1.40493.684447-2.45213 0-1.04722-.224253-1.86066-.672612-2.44029-.444455-.57963-1.066624-.86917-1.866677-.86917zm6.67291 0c-.912142 0-1.62911.29909-2.150878.89805-.521792.59896-.78298 1.42198-.78298 2.46918 0 1.02016.280322 1.82222.840747 2.40573.564305.57964 1.345078.86963 2.342246.86963.436767 0 .82508-.0328 1.165205-.0985.340126-.0657.676517-.17789 1.008906-.33632v-1.10742c-.374902.16617-.72679.2861-1.055323.35951-.324653.0696-.676055.1042-1.054837.1042-.575873 0-1.022584-.16595-1.339501-.49829-.316941-.33615-.485124-.8154-.504452-1.43755h4.272873v-.73605c0-.90038-.245206-1.6076-.736054-2.12154-.490871-.51393-1.159506-.77063-2.005952-.77063zm7.542565 0c-.394231 0-.763434.1117-1.107415.33581-.340126.22413-.616349.52785-.828912.91037h-.06963l-.179993-1.13062h-1.066672v6.41099h1.362223v-3.3502c0-.56804.168208-1.02994.504453-1.38546.340125-.3555.782713-.53334 1.327665-.53334.208708 0 .409727.0233.602987.0696l.133552-1.26939c-.177787-.0387-.403858-.0578-.678262-.0578zm4.382756 0c-.367166 0-.757322.0483-1.170881.14493-.413558.0928-.79462.22951-1.142458.41113l.440963.97386c.278285-.13139.568185-.24537.869654-.34199.301469-.0966.616446-.14493.944931-.14493.40199 0 .697323.10259.886702.30739.19326.20094.289877.50598.289877.91558v.342l-1.107415.035c-1.004904.0309-1.752404.21421-2.243251.55039-.490848.33619-.736539.83504-.736539 1.49582 0 .62214.175944 1.10319.527662 1.44325.355573.34005.848288.51012 1.47829.51012.490848 0 .892863-.0698 1.205924-.20887.313085-.14299.6244-.40973.933581-.80003h.04644l.272343.89286h.973838v-4.31837c0-.76125-.208756-1.3198-.62617-1.67533-.413559-.3555-1.027967-.53285-1.843492-.53285zm11.58903 0c-.91215 0-1.62911.29909-2.15088.89805s-.782497 1.42198-.782497 2.46918c0 1.02016.280322 1.82222.840747 2.40573.5643.57964 1.34508.86963 2.34225.86963.43676 0 .82508-.0328 1.1652-.0985.34013-.0657.67652-.17789 1.00891-.33632v-1.10742c-.37491.16617-.72679.2861-1.05533.35951-.32465.0696-.67654.1042-1.05529.1042-.5759 0-1.02213-.16595-1.33904-.49829-.31695-.33615-.48513-.8154-.50446-1.43755h4.27288v-.73605c0-.90038-.24567-1.6076-.73654-2.12154-.49085-.51393-1.15951-.77063-2.00595-.77063zm-23.514351 1.03163c.432887 0 .772892.13724 1.020256.41162.247364.27045.374998.67038.382735 1.19976h-2.91065c.05025-.52553.204755-.92541.463711-1.19976.262836-.27441.611061-.41162 1.043948-.41162zm23.514351 0c.43288 0 .77337.13724 1.02074.41162.24736.27045.375.67038.38273 1.19976h-2.91065c.0503-.52553.20476-.92541.46371-1.19976.26281-.27441.6106-.41162 1.04347-.41162zm-30.541088.081c.490848 0 .861869.18557 1.113089.55654.255101.3671.382735.91018.382735 1.62892 0 .71488-.127634 1.26522-.382735 1.65164-.255076.38642-.618337.57978-1.08988.57978-.560425 0-.964259-.17374-1.211623-.52151-.247364-.35164-.371337-.91798-.371337-1.69854v-.20274c0-.69555.123973-1.20168.371337-1.51855.25122-.31687.647317-.47554 1.188414-.47554zm20.059472 2.35359v.55609c0 .49848-.150868.88699-.452336 1.1652-.297613.27436-.693687.41162-1.188415.41162-.340125 0-.595371-.0775-.765421-.23211-.170075-.15843-.254834-.38048-.254834-.66643 0-.39415.144951-.68597.434803-.87533.293781-.19321.761396-.30127 1.40299-.32445z"/></g></svg>