<svg width="1920" height="1080" version="1.1" viewBox="0 0 508 285.75" xmlns="http://www.w3.org/2000/svg"><g transform="matrix(.29290486 0 0 .29290486 104.31736 143.47151)"><g transform="translate(-124.5,-236)" stroke-width=".815966"><path d="m202.74747 626.96869a22.728 22.728 0 0 0 21.947-3.866c7.687-6.452 10.1-17.081 12.058-26.924l5.8-29.112-12.143 8.362c-8.733 6.013-17.662 12.219-23.709 20.929s-8.686 20.6-3.828 30.024" fill="#4d4d4d"/><path d="m203.78548 662.21466c-1.229-8.953-2.493-18.02-1.631-27.069 0.766-8.036 3.217-15.885 8.209-22.321a37.13178 37.13178 0 0 1 9.527-8.633c0.953-0.6 1.829 0.909 0.881 1.507a35.3 35.3 0 0 0-13.963 16.847c-3.04 7.732-3.528 16.161-3 24.374 0.317 4.967 0.988 9.9 1.665 14.83a0.9 0.9 0 0 1-0.61 1.074 0.878 0.878 0 0 1-1.074-0.61z" fill="#666"/><path d="m1026.8238 615.57739a24.21459 24.21459 0 0 1-23.3827-4.11877c-8.18972-6.87441-10.75795-18.196-12.84666-28.68191l-6.17972-31.01657 12.93769 8.90837c9.30469 6.40641 18.81829 13.01866 25.26009 22.29785 6.4419 9.27919 9.2523 21.94707 4.078 31.988" fill="#4d4d4d"/><path d="m1024.8261 655.288c1.6284-11.86368 3.3038-23.88078 2.1589-35.87167-1.0147-10.64932-4.2638-21.0488-10.8783-29.57938a49.20628 49.20628 0 0 0-12.6247-11.44039c-1.2622-0.79647-2.4241 1.20355-1.1673 1.997a46.77947 46.77947 0 0 1 18.5044 22.32562c4.0286 10.24607 4.6755 21.41582 3.9816 32.3003-0.4195 6.58218-1.3108 13.1212-2.2059 19.65251a1.19817 1.19817 0 0 0 0.808 1.42251 1.16348 1.16348 0 0 0 1.4225-0.808z" fill="#666"/><path d="m1013.1051 636.2515a17.82513 17.82513 0 0 1-15.53141 8.01862c-7.86441-0.37318-14.41807-5.85973-20.31713-11.07027l-17.452-15.4088 11.54987-0.5528c8.30619-0.39784 16.82672-0.771 24.73813 1.79338 7.91144 2.56438 15.20754 8.72638 16.65404 16.9154" fill="#4d4d4d"/><path d="m1029.4291 662.10764c-7.8397-13.87142-16.9323-29.28794-33.18079-34.21551a37.02589 37.02589 0 0 0-13.95545-1.441c-1.48189 0.128-1.1118 2.41174 0.367 2.28454a34.39826 34.39826 0 0 1 22.27164 5.89214c6.2799 4.27454 11.1698 10.21756 15.3078 16.51907 2.5351 3.86051 4.8058 7.88445 7.0764 11.903 0.7256 1.28446 2.8474 0.35693 2.1134-0.94224z" fill="#666"/><path d="m806.90157 494.26772h-393v-84h393z" fill="#fff"/></g><g fill="#158ddc" stroke-width=".903308"><circle cx="340.32584" cy="216.26772" r="21.33847"/><g transform="translate(-124.5,-236)"><path d="m514.10749 438.04207a3.55641 3.55641 0 0 0 0 7.11282h259.65938a3.55642 3.55642 0 0 0 0-7.11282z"/><path d="m514.10749 459.38049a3.5564129 3.5564129 0 1 0-0.015 7.11281h164.15934a3.55641 3.55641 0 1 0 0-7.11281z"/></g></g><g transform="translate(-124.5,-236)" stroke-width=".815966"><path d="m806.90157 494.26772h-393v-84h393zm-387-6h381v-72h-381z" fill="#4d4d4d"/><path d="m917.57348 473.40257a8.11384 8.11384 0 0 1 6.46229-10.63174l4.44839-18.0001 11.59793 0.0354-6.639 25.33139a8.15786 8.15786 0 0 1-15.86961 3.26508z" fill="#ffb7b7"/><path d="m937.15454 461.75439-17.76294-1.231 8.603-51.26758-5.4746-56.45112 17.95605-7.36231 11.97437 62.68946-0.0327 0.11425z" fill="#3f3d56"/><path d="m799.80793 455.74565a8.11384 8.11384 0 0 1 9.39856-8.15242l9.72939-15.78388 11.03387 3.5731-14.05284 22.09691a8.15786 8.15786 0 0 1-16.109-1.73371z" fill="#ffb7b7"/></g><g stroke-width=".815966"><path d="m720.637 417.104-4.495-36.447 13.946 1e-3 -2e-3 36.446z" fill="#ffb7b7"/><path transform="translate(-124.5,-236)" d="m856.99574 662.26342-30.4677-1e-3v-0.38536a11.85951 11.85951 0 0 1 11.85888-11.85869h7.5e-4l18.60864 7.5e-4z" fill="#2f2e41"/><path d="m786.557 417.104-4.495-36.447 13.946 1e-3 -2e-3 36.446z" fill="#ffb7b7"/><path transform="translate(-124.5,-236)" d="m922.91574 662.26342-30.46771-1e-3v-0.38536a11.85951 11.85951 0 0 1 11.85888-11.85869h7.6e-4l18.60863 7.5e-4z" fill="#2f2e41"/><circle cx="787.02026" cy="52.404881" r="22.448299" fill="#ffb8b8"/></g><g transform="translate(-124.5,-236)" stroke-width=".815966"><path d="m903.93836 287.17379a14.6321 14.6321 0 0 1-13.78445-25.659c5.97481-3.99842 14.89776-2.675 20.69 1.96227a20.21132 20.21132 0 0 1 23.366 4.84892c5.59148 6.46829 6.20269 16.73564 2.12789 24.276a26.39108 26.39108 0 0 0 1.54783 24.70771c-1.75322-0.0715-5.61221-0.39623-10.44082-0.81283-1.39729-0.12055-2.00162-4.22484-3.53376-4.35686-1.3512-0.11643-3.6183 3.74024-5.03409 3.62061-10.48654-0.88607-22.22681-1.78619-27.54739-1.61011 4.00943-9.38533 8.01882-18.77065 12.60879-26.97671z" fill="#2f2e41"/><path d="m928.73554 446.54989s7.2958 7.52156 2.841 46.36231l-3.07774 82.47366-5.44525 73.02677-17.51947-1.16488-15.38874-168.08116-21.54423 61.50578-11.60073 101.68287-16.80923-1.16488-2.87059-101.1177 7.36883-78.14633z" fill="#2f2e41"/><path d="m856.52783 466.63086c-8.96338 4.9e-4 -12.57349-1.07715-12.8374-1.16016l-0.416-0.13086 0.073-0.42968c0.0598-0.353 6.082-35.46436 14.345-53.898l5.8103-74.75537a9.85761 9.85761 0 0 1 8.32715-9.00538l0.0776 0.49415-0.0776-0.49415 14.77979-2.32031 9.041-7.96094 21.65845 1.19776 1.90991 9.16162c2.59033 0.72412 19.68433 5.96289 21.37622 18.50781l0.021 0.15723-0.073 0.14014-31.31645 60.24419c2.64649 2.61181 23.56031 24.0957 24.97974 51.561l0.0342 0.66065-0.64478-0.14747c-0.0601-0.0122-6.75293-1.28417-41.94677 4.66553-16.27686 2.75101-27.58936 3.51224-35.12134 3.51224z" fill="#3f3d56"/><path d="m821.81079 455.38184-12.76465-9.83008 28.49-57.001 26.49829-55.86621a4.2338 4.2338 0 0 1 7.90723 0.68945l6.55883 23.794-20.51049 53.36227z" fill="#3f3d56"/><path d="m1074.5 664h-381a1 1 0 0 1 0-2h381a1 1 0 0 1 0 2z" fill="#cbcbcb"/></g><g stroke-width=".815966"><path d="m458.842 74v50h50v-25h2v27h-54v-54h27v2z" fill="#3f3d56"/><path d="m514.961 73.998-32.132 36.05-13.118-15.063 2.262-1.97 10.882 12.495 29.867-33.508z" fill="#158ddc"/><path transform="translate(-124.5,-236)" d="m300.20249 303.23976 1.26252-6.31261s18.57-6.31261 20.64769 6.31261z" fill="#e6e6e6"/><path d="m223.516 414.822 5.792-46.958h-17.968l2e-3 46.958z" fill="#9f616a"/><path transform="translate(-124.5,-236)" d="m332.73638 646.84739 23.97564-1e-3h1e-3a15.28 15.28 0 0 1 15.27915 15.27891v0.49651l-39.255 1e-3z" fill="#2f2e41"/><path d="m164.828 414.822 5.792-46.958h-17.968l2e-3 46.958z" fill="#9f616a"/><path transform="translate(-124.5,-236)" d="m274.04836 646.84739 23.97564-1e-3h1e-3a15.28 15.28 0 0 1 15.27916 15.27891v0.49651l-39.255 1e-3z" fill="#2f2e41"/><path d="m169.39 211.167-10.1-51.763-1.263-65.651-13.888-1.263-8.837 41.663 1.262 37.876 13.888 50.501z" fill="#3f3d56"/><path d="m184.303 301.437 7.181-44.188 10.1 50.501 6.313 94.689 24.619-1.973v-93.049l0.631-67.843-8.837-26.513-75.073 5.05 3.109 26.513 2.919 61.864-6.707 92.188 23.988-1.287z" fill="#2f2e41"/><path transform="translate(-124.5,-236)" d="m325.45292 304.50228s-8.83765-12.62521-25.25043-3.78757l-7.57513 10.10018-23.98791 17.6753 5.05009 59.3385-6.31261 74.48876 89.639-1.26252-15.15023-74.48876v-79.53885z" fill="#3f3d56"/><path d="m154.24 153.091-1.894-39.645-7.239 86.555z" opacity=".25"/><path transform="translate(-124.5,-236)" d="m427.52787 422.01743a9.31156 9.31156 0 0 1-12.201-7.41627l-20.657-5.10516 0.0407-13.30989 29.07044 7.61919a9.362 9.362 0 0 1 3.74691 18.21213z" fill="#9f616a"/><path transform="rotate(-80.09845,205.91127,362.79388)" d="m398.44296 402.31769h20.20034v8.83765h-20.20034z" fill="#e6e6e6"/><circle cx="186.9028" cy="28.566601" r="25.35253" fill="#9f616a"/></g><g transform="translate(-124.5,-236)" stroke-width=".815966"><path d="m313.29656 286.93069a25.71665 25.71665 0 0 1-16.825-48.33505 30.07206 30.07206 0 0 1 14.19916-2.54809c7.58225 0.39864 14.95175 3.20105 22.54166 2.99454l1.10011 1.76832 4.146-1.0055 0.88841 3.29163 1.09206-0.0378c1.95621 3.63533-1.19123 8.83993-5.31924 8.79589a24.56447 24.56447 0 0 1-4.77783-1.04079c-1.59816-0.34245-3.48018-0.2571-4.58222 0.94992-1.43219 1.56861-0.80874 4.01645-0.51011 6.11943s-0.44722 4.93564-2.57019 5.00429c-1.08448 0.0351-2.11589-0.74263-3.1815-0.53816-1.24116 0.23816-1.86872 1.73691-1.68751 2.98766a11.8884 11.8884 0 0 0 1.485 3.46676 13.96521 13.96521 0 0 1-5.5397 17.81451" fill="#2f2e41"/><path d="m335.83973 311.90548 6.026-4.87816s12.16174-0.84551 11.94211 12.04737l19.45967 60.87147 37.33191 13.22463-5.03042 25.99041-52.81921-20.12161-26.82879-44.4684z" fill="#3f3d56"/><path d="m506.5 664h-381a1 1 0 0 1 0-2h381a1 1 0 0 1 0 2z" fill="#cbcbcb"/></g></g><g transform="scale(.26458333)"><text x="254.25549" y="440.84052" stroke-width=".365035"/><text stroke-width=".365035"/><text/></g></svg>
