<svg height="1080" viewBox="0 0 508 285.75" width="1920" xmlns="http://www.w3.org/2000/svg"><text stroke-width=".365035" transform="scale(.26458333)" x="254.25549" y="440.84052"/><text stroke-width=".365035" transform="scale(.26458333)"/><g stroke-width="1.14859" transform="matrix(1.066143 0 0 1.066143 -33.258228 -44.011282)"><path d="m306.21883 149.15564c-.46196-.002-.83901.36901-.84388.83096l-.1014 12.66236c0 .31663.29517.55164.49092.55779l2.59376.0741c-.008-.0783-.0139-.15692-.0165-.23565-.00005-1.75295 1.42101-3.17402 3.17396-3.17397 1.75276.00024 3.1735 1.42122 3.17345 3.17397-.003.0787-.008.15733-.0165.23565h7.4445c-.008-.0783-.0139-.15692-.0165-.23565-.00005-1.75275 1.4207-3.17373 3.17345-3.17397 1.75295-.00005 3.17401 1.42102 3.17396 3.17397-.003.0787-.008.15733-.0165.23565h1.85208c.82311.00002 1.49038-.66725 1.49035-1.49035v-.65061c-.003-.11938.0904-.219.20981-.22273.1233.00004.22328-.0999.22324-.22324v-1.36787c0-.38156-.10186-.75619-.29508-1.08521l-3.14192-5.35109c-.15998-.27223-.45217-.43936-.76791-.43925h-5.72679c-.16365.00002-.2956-.13402-.293-.29766l.032-2.23707c.005-.37622-.29709-.6846-.67335-.68626z" fill="#3f3d56"/><path d="m306.81911 151.31247c-.46196-.002-1.51978 5.55706-1.52464 6.019l.0805 5.39161c0 .31664.4859.43341.68165.43957l2.23458-.0291c.0409-.28471.0531-.01.0505-.0883-.00005-1.75295 1.42101-3.46029 3.17396-3.46024 1.75276.00024 3.1735 1.70749 3.17345 3.46024 2.02098.51683 5.08838.20284 7.42797.23565-.008-.0783-.0139-.15692-.0165-.23565-.00005-1.75275 1.4207-3.17373 3.17345-3.17397 1.75295-.00005 3.17401 1.42102 3.17396 3.17397-.003.0787.60341.22306.59497.30138l1.24058-.0657c.82311.00002 1.49038-.66725 1.49035-1.49035v-.65061c-.003-.11938.0904-.219.20981-.22273.1233.00004.22328-.0999.22324-.22324v-1.36787c0-.38156-.10186-.75619-.29508-1.08521l-3.14192-5.35109c-.15998-.27223-.45217-.43936-.76791-.43925h-5.72679c-.16365.00002-.83825.087-.83566-.0766l-1.2099-1.96971c.005-.37622-.14762.48943-.52388.48776z" style="fill:none;stroke:#000;stroke-linecap:round;stroke-linejoin:round;stroke-miterlimit:10;stroke-width:.151949"/><path d="m303.40461 195.24475v-11.58015c2.38235-2.05347 5.35007-4.54058 8.09572-8.09572 2.76461 2.74851 5.19129 5.48112 8.78426 8.02953l-.33789 11.5909z" fill="#3f3d56" stroke="#000" stroke-linejoin="round" stroke-miterlimit="10" stroke-width=".151949"/><path d="m312.65944 183.04668c.007.008.0148.0157.0221.0235 1.46547 1.56364 2.99418 4.73214 3.89404 6.68276a2.9825527 2.9825527 167.02733 0 1 -4.968 1.14446c-2.81333.19565-4.48242-2.32564-2.77492-5.1452 2.9248-3.54384 2.9248-3.54384 2.9248-3.54384z" fill="#006ad8"/><path d="m392.76279 255.45523a2.6971684 2.6971684 0 0 1 2.69717-2.69717 2.6971684 2.6971684 0 0 1 2.69717 2.69717" fill="none" stroke="#000" stroke-linejoin="round" stroke-miterlimit="10" stroke-width=".391553"/><path d="m389.52847 256.64778a.30069189.30069189 0 0 0 -.30075.31265l.50384 12.92841c.0998 1.32535-.0567 2.01624 1.08417 2.18023h9.89862c.65593-.00001.70726-1.23134.73794-2.18023l.40049-12.89069a.33939829.33939829 0 0 0 -.33899-.35037z" fill="#3f3d56"/><path d="m319.4913 223.91622v-8.82927h3.10057v8.08691z" fill="#febf07" stroke="#000102" stroke-linejoin="round" stroke-miterlimit="10" stroke-width=".151949"/><path d="m314.71027 227.42878v-18.63853h3.10058v17.89618z" fill="#febf07" stroke="#000102" stroke-linejoin="round" stroke-miterlimit="10" stroke-width=".151949"/><path d="m323.46119 220.69752c-3.78443 1.08423-6.26754 3.15989-8.84991 5.11241l-3.83964-.32309.22623 5.68343 12.71695.10158-.25363-6.84329z" fill="#3f3d56"/><g stroke="#000" stroke-linecap="round" stroke-linejoin="round" stroke-miterlimit="10" stroke-width=".151949"><rect fill="#f9f9f9" height="6.253733" rx=".282123" transform="rotate(90)" width="3.126867" x="113.06174" y="-341.03961"/><rect fill="#ced7e7" height="4.891597" rx="2.32301" ry=".309393" width="4.04498" x="444.37302" y="250.63669"/><rect fill="#f9f9f9" height="6.253733" rx=".282123" width="3.126867" x="319.63409" y="127.75518"/><rect fill="#c6c6c6" height="10.886134" rx=".67641" ry="4.173121" width="21.730831" x="321.38544" y="125.69922"/></g><path d="m366.67902 111.97988s.92757-.13827 1.22055.14832c.65593.64163.20811 1.82572.39223 2.72463.18034.88041.0822 1.94825.69599 2.60468.66455.71072 1.82093 1.18353 2.76323.94097.78719-.20263 1.3485-1.0449 1.64195-1.80293.23351-.60321.17926-1.31899 0-1.94049-.34779-1.20578-1.36803-2.10524-2.00503-3.18649-.34664-.58839-.79091-1.14093-.98786-1.79482-.13322-.44229-.11347-1.38109-.11347-1.38109" style="fill:none;stroke:#000;stroke-linecap:round;stroke-linejoin:round;stroke-miterlimit:10;stroke-width:.151949"/><path d="m461.47602 212.95433c-1.45961.004-2.96379.12018-4.23075.93431-1.16301.74729-1.72502 1.93815-2.19867 3.3286-.01.0756-.15183.085-.25376.0958 0 0-1.41929-.14275-1.98296.20948-.29362.18347-.55087.39272-.55087.88056s.23703.73436.55087.88057c.54862.25558 1.79797-.2531 1.79797-.2531-.0815.32511-.30181.86129-.34121 1.04736-1.14149.60225-1.90573.9645-1.81746 2.11874l.20655 3.86769 18.80624-.12987v-3.36368c.21991-1.14196-.22774-1.361-1.72703-2.49288-.041-.19809-.10383-.47672-.18293-.79426 0 0 1.01008.23038 1.42575 0 .30275-.1678.55036-.39273.55036-.88057s-.24172-.72388-.55036-.88056c-.60162-.30543-2.01879.14693-2.01879.14693-.45384-1.29538-1.02804-2.83954-2.13289-3.54776-1.35901-.87114-3.10749-1.1447-4.72788-1.16375-.20586-.002-.41367-.004-.62218-.004zm.61236.97875c1.49753.0176 3.01252.49679 4.08606 1.18494.71265.45682 1.47921 1.79303 1.90944 3.08405.16653.49971.29491.9638.39171 1.35289.0716.2878-.11779.52296-.41444.52296h-12.22975c-.23546 0-.38507-.18623-.32918-.41496.10779-.44106.26049-1.00548.46716-1.62057.44827-1.33414 1.18697-2.77595 1.87637-3.21892 1.09774-.70536 2.62433-.90943 4.24263-.89039z" fill="#ced7e7"/><path d="m432.61543 115.03463v1.06091l-3.31672 6.73419-.25538.14658-.27396-.15854" style="fill:none;stroke:#000;stroke-linecap:round;stroke-linejoin:round;stroke-miterlimit:10;stroke-width:.151949"/><path d="m462.93759 123.22364c-.26546.0548-.4518.24512-.86549.90898-.9793 1.57148-1.38758 3.42691-2.50056 4.87482-.38293.49816-.81164 1.04098-1.39954 1.26273-.59849.22574-1.3506.26947-1.91876-.0243-.60229-.31148-.9725-1.00502-1.19669-1.64495-.28095-.80196-.0595-1.62037.34495-2.41116-.39201.23135-.66262.73578-1.22162.59154-.53268-.13745-.93981-.6883-1.12712-1.20556-.16425-.45361-.0957-.9966.0824-1.44497.36402-.91657 1.15232-1.62617 1.9041-2.26447.4611-.39151.9894-.72619 1.55993-.92716.51225-.18045 1.07187-.27411 1.61311-.22915 1.08057.0898 2.16613.43316 3.10091.98257.6415.37703 1.47911 1.41636 1.62439 1.53113z" fill="#006ad8"/><path d="m462.94041 122.75006c-.26546.0548-.64081.66687-1.05451 1.33073-.97929 1.57148-1.09644 3.61609-2.20716 5.09759-.36646.48879-.83052.97782-1.41024 1.17048-.63831.21212-1.42384.21735-2.01526-.10304-.5962-.32298-.9725-1.00502-1.19669-1.64494-.28095-.80196-.0595-1.62038.34495-2.41117-.39201.23135-.66262.73579-1.22162.59155-.53268-.13745-.93981-.6883-1.12712-1.20556-.16425-.45362-.0957-.99661.0824-1.44498.36402-.91656 1.11451-1.67358 1.9041-2.26447.60257-.45093 1.32947-.76071 2.06778-.90672.6055-.11974 1.2453-.0755 1.85122.0422.7267.14108 1.40037.48555 2.07787.78388.6512.28674 1.759.84972 1.90429.96449z" style="fill:none;stroke:#000;stroke-linecap:round;stroke-linejoin:round;stroke-miterlimit:10;stroke-width:.151949"/><path d="m451.04024 127.01711s.53546 2.06579-.35439 3.67279c-.51624.9323-1.71204 2.03909-2.84097 1.95124-1.77614-.1382-2.3557-1.2625-3.09778-2.31211-1.57283-2.22466-1.3962-4.72153-2.58765-7.17171-.3188-.65558-1.29377-1.33981-1.29377-1.33981-.0817-.043 5.08449-3.05597 7.77006-2.58192 2.30827.40746 3.70318 1.27289 4.78596 3.04989.80412 1.31967 1.8697 4.76925-.1694 5.09031-1.14218.17984-2.21206-.35868-2.21206-.35868z" fill="#006ad8"/><g stroke-width=".804384" transform="matrix(.29029242 .13004462 -.13004462 .29029242 208.209234 8.335199)"><path d="m933.42813 273.63252v1.07987q-.0369 4.06783-.23316 8.099a180.38684 180.38684 0 0 1 -360.17257 2.356q-.36816-5.72449-.36813-11.5349a179.49331 179.49331 0 0 1 33.16915-104.26859q2.59531-3.68138 5.39929-7.2277c1.28846-1.64437 2.61377-3.2519 3.95137-4.84714a180.42083 180.42083 0 0 1 251.38818-23.85526c2.172 1.75478 4.30721 3.5709 6.39326 5.42386q2.50341 2.22728 4.92077 4.55265a179.899 179.899 0 0 1 54.926 115.055q.62588 7.5099.62584 15.16721z" fill="#006ad8"/><g fill="#3f3d56"><path d="m611.22272 162.13622a1.00323 1.00323 0 0 1 .24542.14725c.96943.79763-.24542 2.33153-.0982 3.59547.1718 1.6198 2.33153 1.97567 3.96361 2.13519 1.63207.1718 3.69363 1.48482 2.92055 2.93282-4.09859 1.41119-8.24626.0245-12.43075-1.583a179.49358 179.49358 0 0 0 -33.16908 104.26855q0 5.81655.36814 11.53494a4.66235 4.66235 0 0 0 1.11668.60129c1.22712.46631 2.65058.38041 3.77954 1.04306.8958.52766 1.49709 1.46027 2.39288 1.95112 2.56469 1.39892 6.12334-1.28848 8.51623.38041a22.00377 22.00377 0 0 1 1.75479 1.7916c2.20882 1.91431 5.8411.62583 8.39351 2.06156 1.64434.92034 2.49106 2.761 3.37459 4.42991 2.19654 4.17222 5.7552 8.2708 10.45507 8.60213a28.15488 28.15488 0 0 1 4.44219.14725c1.448.33132 2.87146 1.59526 2.63831 3.05553-.40495 2.5156.83444 5.26436.50312 7.78-.60129 4.6017-7.11731 6.61418-7.66951 11.21589a27.71079 27.71079 0 0 1 -.1718 3.031c-.29451 1.20258-1.20258 2.18428-1.52163 3.38686-.61356 2.27018 1.01851 4.54035 2.79784 6.062 1.79159 1.5339 3.92679 2.8592 4.90848 4.99439 1.03079 2.27017.52767 4.90849.859 7.375.73627 5.38707 5.38706 9.37521 10.17284 11.95217a10.62167 10.62167 0 0 1 3.97587 2.896c1.22713 1.77932 1.10441 4.12313 1.52164 6.246 1.00624 5.19072 5.37479 9.47338 5.4975 14.76227.0859 3.76727-2.00021 7.17867-3.25187 10.72505a24.75173 24.75173 0 0 0 -1.11668 11.584 181.25111 181.25111 0 0 0 22.24772 16.13666 6.48232 6.48232 0 0 0 .92034-2.06157 4.07734 4.07734 0 0 0 -1.902-4.2213 10.08769 10.08769 0 0 0 3.52184-2.2579 3.45474 3.45474 0 0 0 .6381-3.90225c2.15974.27 4.72442.40495 6.14789-1.25167 1.14122-1.32529 1.06759-3.31322.61356-4.99438-.454-1.69343-1.21485-3.3255-1.22713-5.08029a91.38214 91.38214 0 0 0 14.99543-.50312 9.73448 9.73448 0 0 0 -4.56489-5.71838c2.25791-.38041 4.3072-3.08008 5.01893-5.25209a13.37761 13.37761 0 0 0 .0982-6.786 3.60994 3.60994 0 0 1 -.0736-1.76706 3.47667 3.47667 0 0 1 1.7916-1.73024q5.59568-3.22119 11.19135-6.43012a6.74722 6.74722 0 0 0 1.7916-1.313c1.16577-1.38665.994-3.46048.39268-5.16618s-1.55845-3.31323-1.7916-5.10483c-.68719-5.36252 5.05574-9.21568 6.9946-14.27143a21.434 21.434 0 0 0 1.05532-6.24605c.15953-2.28244.1718-4.92076-1.57071-6.381-1.68116-1.41119-4.29493-1.09214-6.04972-2.40516-1.60753-1.20258-2.15973-3.52184-3.91451-4.49127-1.59526-.88353-3.5832-.31905-5.36253-.73627-3.11689-.724-5.08028-4.31947-8.2708-4.65079-1.7916-.19634-3.82862.68719-5.30117-.35587-1.30075-.93261-1.34983-2.78556-1.59526-4.35628a12.16905 12.16905 0 0 0 -9.817-9.84152c-1.85295-.29451-3.86543-.18407-5.44842-1.20258-1.59526-1.03078-2.31926-2.95736-3.5832-4.3931-2.01248-2.29471-5.203-3.11688-8.1849-3.81634q-6.07425-1.41733-12.13624-2.84693c-2.14746-.51539-4.92076-.78536-6.08652 1.10441a8.30191 8.30191 0 0 0 -.71173 2.27018 7.04015 7.04015 0 0 1 -6.60192 4.95757 7.80066 7.80066 0 0 0 -4.58944-3.55865 28.95665 28.95665 0 0 1 -3.73045-.88353 5.22652 5.22652 0 0 1 -2.2579-7.25229 6.51144 6.51144 0 0 0 -1.11668-7.81677c-2.06157-1.853-5.04347-2.307-7.81677-2.12292-.724-1.583.49085-3.36231 1.7916-4.51581 1.313-1.14122 2.896-2.27017 3.17825-3.98814.454-2.69967-2.99418-4.749-5.60795-3.95134-2.61377.8099-4.28266 3.35005-5.38707 5.85337a17.65275 17.65275 0 0 1 -2.172 4.15995 4.26415 4.26415 0 0 1 -4.12313 1.69343c-2.15974-.55221-2.98191-3.11689-3.46049-5.27663a34.40658 34.40658 0 0 1 -1.15349-8.84755 11.54962 11.54962 0 0 1 3.33777-8.04992c3.57093-3.28868 9.06843-2.96963 13.891-2.442a3.53822 3.53822 0 0 1 .36814-4.66306 5.30186 5.30186 0 0 1 4.81032-1.178 6.59987 6.59987 0 0 1 3.71818 2.22109c1.37437 1.66889 1.767 3.93906 2.79783 5.82883 1.04306 1.902 3.37459 3.52184 5.27663 2.50333 1.65661-.88353 1.91431-3.166 1.50936-4.99439-.41722-1.81614-1.28848-3.59547-1.14123-5.46069.28224-3.54638 3.97588-5.69385 7.22775-7.15412s6.97006-3.43594 7.48545-6.97a6.513 6.513 0 0 1 .39268-2.01248 3.93418 3.93418 0 0 1 1.46027-1.37438c9.48565-6.27059 19.1431-12.62709 29.99086-16.05076.56448-.18406.62583.0123 1.20258-.12271.8099-.4663.27-1.75478-.50312-2.27017s-1.80387-.92034-2.00021-1.82842c-.135-.66264.2577-1.32529.35587-2.0002a2.49731 2.49731 0 0 0 -3.27642-2.52788c-.87126-1.15349.84672-2.49105 2.24563-2.88373a61.333 61.333 0 0 1 12.82343-2.08611 2.28347 2.28347 0 0 1 1.46027.24543 1.73533 1.73533 0 0 1 .11044 2.38061 13.4402 13.4402 0 0 1 -1.95112 1.77933 5.36 5.36 0 0 0 -1.39892 5.38706c2.27018 1.1535 4.72442 2.34381 7.24 1.93886 2.50333-.40495 4.72442-3.22733 3.54638-5.473-1.09213-2.09838-4.39309-2.57695-4.95757-4.87167-.66264-2.6874 3.14143-5.08029 2.28245-7.70633-.36814-1.15349-1.52163-1.84068-2.40516-2.66285a7.26026 7.26026 0 0 1 -1.583-8.02538 9.14382 9.14382 0 0 1 -8.00083-2.50333c-1.91431-1.92658-3.43594-4.98211-6.16016-4.88394-2.49105.0736-4.63852 2.9819-6.97005 2.09838-.57675-.22089-1.178-.66265-1.73024-.40495a1.43018 1.43018 0 0 0 -.65037 1.06759c-.589 2.83465.42949 6.062-1.11669 8.51623-1.68115 2.66285-5.57113 3.031-7.60815 5.43615-1.10441 1.30075-1.5339 3.05553-2.55242 4.42991s-3.166 2.2579-4.39309 1.05532a6.04709 6.04709 0 0 0 -1.64435-7.36273 15.81167 15.81167 0 0 0 -3.63228-1.767 21.55681 21.55681 0 0 1 -4.06177-2.25791 4.025 4.025 0 0 1 -1.48482-1.59526 3.668 3.668 0 0 1 .0982-2.52787 10.33172 10.33172 0 0 1 8.20945-6.79825c1.6198-.22089 3.50957-.14726 4.58943-1.38665.56448-.65038.859-1.64435 1.69343-1.902a2.46881 2.46881 0 0 1 1.55845.18407c2.02475.71173 4.03723 1.42346 6.062 2.13519a4.15248 4.15248 0 0 0 2.15973.35586 1.45274 1.45274 0 0 0 1.26394-1.5339c-.19634-1.00624-1.74251-1.48482-1.59526-2.50333a1.59148 1.59148 0 0 1 .50312-.859 21.68329 21.68329 0 0 1 17.192-6.786c.76082 1.26394-.44176 2.74876-1.46028 3.81635-1.00624 1.07987-1.81614 2.99418-.589 3.81635a3.23284 3.23284 0 0 0 1.60753.36814 14.02118 14.02118 0 0 1 4.29492 1.30075c2.09838.90807 4.15995 1.91431 6.17243 2.99418a7.78183 7.78183 0 0 1 .14725-3.97588 2.7 2.7 0 0 1 3.19052-1.73024c1.20258.46631 1.81614 2.06156 3.10462 2.20882 1.7057.19634 2.38061-2.33153 1.66888-3.90225s-2.13519-2.87146-2.24563-4.60171c-.0859-1.15349.35586-2.58922-.56448-3.28868a2.44116 2.44116 0 0 0 -1.09214-.39268q-11.55948-2.11679-23.13124-4.24584c-1.37438-.2577-3.35005-.0614-3.4114 1.32529-.0368.78536.66264 1.55844.35586 2.27017-.33132.76082-1.41119.69946-2.19655.96943a2.98239 2.98239 0 0 0 -1.718 3.1537 8.59619 8.59619 0 0 0 1.448 3.54638c-1.50936-.62583-3.77954-.73627-5.2889-1.37437a20.35615 20.35615 0 0 0 -1.32529-5.09256 1.79748 1.79748 0 0 0 -2.3438-1.448c-1.98794.30678-3.97588.60129-5.96382.90807a2.30681 2.30681 0 0 0 -1.3621.52766c-.77309.82217-.0123 2.13519-.0368 3.26415a3.05893 3.05893 0 0 1 -2.36835 2.63831 8.92727 8.92727 0 0 1 -3.77954-.0491c-2.78556-.42949-5.55886-.859-8.34443-1.28848a13.66913 13.66913 0 0 0 6.30741-4.22129c1.10441-1.30075 1.69343-3.73046.0982-4.344a3.80718 3.80718 0 0 0 -1.448-.11044c-3.77954.0245-6.76144-3.12916-10.29556-4.46672a10.12021 10.12021 0 0 0 -3.47275-.6381z"/><path d="m933.195 282.81139a4.43089 4.43089 0 0 1 -3.755 1.77933c-3.84089-.33133-5.46069-5.86565-9.26477-6.49148a1.48259 1.48259 0 0 0 -1.00624.0982c-.56448.30678-.66265 1.0676-.69946 1.7057-.15953 3.166-.29451 6.45466.94488 9.37521 1.80387 4.27039 6.47921 7.85358 5.49751 12.38166-5.27662-2.442-8.02538-8.369-9.26477-14.05054-1.25167-5.68158-1.448-11.64539-3.68137-17.02019-1.7057 2.172-5.26435.38041-6.81052-1.902-1.47255-2.15974-2.38062-4.66307-3.80408-6.85962-1.42346-2.18427-3.60774-4.14767-6.20924-4.27038-2.73648-.12271-5.1171 1.75478-7.2032 3.53411a16.67021 16.67021 0 0 0 -4.479 4.98212c-1.46027 2.94509-1.07987 6.40557-1.15349 9.682-.0736 3.53411-.82218 7.27683-3.23961 9.87833-2.41743 2.58923-6.87188 3.4973-9.53473 1.15349a10.75637 10.75637 0 0 1 -2.66286-4.798 233.47929 233.47929 0 0 1 -7.21548-25.745c-.44176 1.98794-2.19654 4.55262-3.86543 3.38686a3.447 3.447 0 0 1 -.88353-1.1535c-3.11689-5.26435-8.87209-8.43033-14.70092-10.33237-5.81656-1.88976-11.93989-2.77329-17.6951-4.8594a45.24209 45.24209 0 0 1 -9.19114-4.57716 7.23748 7.23748 0 0 0 -.44176 7.38727 5.91761 5.91761 0 0 0 6.651 2.78557c1.2762-.41722 2.35607-1.30075 3.62-1.74252 1.26393-.42949 2.96963-.22088 3.52184 1.00624.53993 1.16577-.27 2.577.135 3.80408.60129 1.853 3.4114 2.00021 4.3931 3.69364a3.4191 3.4191 0 0 1 -.92034 3.95133 16.53766 16.53766 0 0 1 -3.70591 2.28245c-4.12313 2.29472-7.05595 6.20924-10.66369 9.2525-3.60774 3.05553-8.7003 5.27662-12.99522 3.3255 1.01851-5.19073-5.15392-8.99481-6.29514-14.161-.38041-1.7057-.18407-3.50957-.71173-5.16618-.77309-2.40516-2.90828-4.0495-4.65079-5.86565a23.0562 23.0562 0 0 1 -6.31968-16.75021c.0982-2.13519.49085-4.3072 0-6.3933-.47858-2.07384-2.20882-4.08632-4.344-4.00042-4.87168.22088-11.01956.589-13.572-3.57093-.92034-1.48481-1.313-3.65682.0123-4.798.93261-.79763 2.307-.724 3.52184-.60129 3.66909.35586 7.32592.724 10.995 1.07986 2.56469.24543 5.338.454 7.5468-.88352s3.166-4.90849 1.11668-6.49148c-1.48481-1.15349-4.15994-1.09214-4.6017-2.92055-.35587-1.5339 1.33756-3.26414.41722-4.55262-.65038-.90807-2.12292-.66265-3.01872.0245a19.72114 19.72114 0 0 1 -2.54014 2.22109c-1.75479.90807-3.8409.0368-5.73066-.5522-1.88976-.58901-4.41764-.63811-5.32571 1.11668-1.03079 1.95112.8958 4.52808-.11044 6.49147-1.34984 2.58923-5.89019 1.11668-7.78 3.35005-2.15973 2.55241 1.47255 6.381.74855 9.64517a6.01285 6.01285 0 0 1 -5.927-.33132 5.738 5.738 0 0 1 -2.47879-5.35025c.1718-1.47255.94489-2.98191.42949-4.36856a5.09982 5.09982 0 0 0 -2.58922-2.36834q-5.338-2.9635-10.676-5.90246c-.994 1.84069.25769 4.11086 1.82841 5.49751 1.55844 1.37438 3.52184 2.41743 4.55262 4.23357a5.56428 5.56428 0 0 1 -2.08611 7.33819 1.29446 1.29446 0 0 1 -1.06759.18407 1.47935 1.47935 0 0 1 -.68719-.92034c-1.8775-4.82259-4.71215-9.57156-9.228-12.08716-4.52808-2.52787-11.01955-2.0002-13.98919 2.23337-.69946 1.00624-1.178 2.15973-1.7916 3.22733-3.25187 5.657-10.24646 8.33216-16.77475 8.16036a3.233 3.233 0 0 1 -1.82842-.42949c-1.05532-.724-1.00624-2.27018-.84671-3.54639.23315-1.80387.454-3.59546.68719-5.39933a4.32425 4.32425 0 0 1 1.19031-2.95737c1.21485-.95715 2.95736-.35586 4.50353-.3804a5.673 5.673 0 0 0 5.16619-3.98815 6.41078 6.41078 0 0 0 -1.7916-6.381c-.69946-.66264-1.64434-1.49708-1.27621-2.39288a1.98853 1.98853 0 0 1 1.38665-.93262c2.761-.79763 5.69385-1.00624 8.40579-1.96339 2.72421-.94488 5.36252-2.88374 6.01289-5.69385.19634-.859.28224-1.902 1.05533-2.33153a3.4176 3.4176 0 0 1 1.22712-.24542 5.97248 5.97248 0 0 0 5.1171-6.22151c1.30075-.90807 3.12916-.23315 4.3931.73627 1.25166.96943 2.36834 2.24564 3.90224 2.66286 2.8592.78535 5.62022-1.75479 8.58986-1.76706 1.25166 0 2.54014.44177 3.70591.0123 1.1903-.42949 1.902-1.60753 2.8101-2.47878.92035-.88353 2.5156-1.41119 3.36232-.46631-.24543-1.77933-.47858-3.54638-.724-5.31344a10.44545 10.44545 0 0 0 8.504-1.54617c-3.09235-1.04306-6.17242-2.08611-9.26477-3.12916a1.99923 1.99923 0 0 1 -.87126-.46631c-.67491-.724 0-1.85295.53994-2.67513 1.313-1.97566 1.5339-5.22753-.62583-6.20923-1.47255-.67492-3.15371.135-4.5649.92034-2.2579 1.25166-4.51581 2.5156-6.77371 3.76726-.20861 1.28848 1.3621 2.02475 2.33153 2.88374a3.91016 3.91016 0 0 1 -2.55241 6.83507 4.89841 4.89841 0 0 1 .87125 4.1354c-1.50936.11044-3.031.22088-4.55262.33132a1.955 1.955 0 0 1 -1.47254-.29451c-.49085-.42949-.41723-1.1903-.53994-1.82841a3.94969 3.94969 0 0 0 -3.33777-2.90828 11.52267 11.52267 0 0 0 -4.65079.4295 2.83379 2.83379 0 0 1 -2.01248-.0491 2.00758 2.00758 0 0 1 -.78536-1.00624 5.13091 5.13091 0 0 1 1.03078-4.933 28.23766 28.23766 0 0 1 3.87771-3.57092 22.60562 22.60562 0 0 0 6.7369-10.43054c2.50333-1.05533 5.09255-2.47879 7.60815-3.53411a30.39287 30.39287 0 0 1 6.31968-2.12292 29.86432 29.86432 0 0 1 6.197-.29451c2.82238.0491 5.657.0982 8.47941.15952a20.40694 20.40694 0 0 1 7.42409 1.0676c2.31926.95716 4.36855 3.031 4.52808 5.53432a1.69922 1.69922 0 0 1 -.55221 1.55844 1.98844 1.98844 0 0 1 -1.06759.24543c-2.34381.0736-3.33778.66265-5.68158.74854 1.48482 1.583 3.15371 3.25188 5.31344 3.53411 3.80408.49085 6.54056-3.44821 8.29534-6.87188a3.34867 3.34867 0 0 0 3.4973 3.10462 7.05261 7.05261 0 0 0 2.63831-1.03078 51.89888 51.89888 0 0 1 24.6038-6.35649 2.6493 2.6493 0 0 1 2.02475-2.92055c1.75478-.3436 3.3255 1.16576 4.17221 2.73648.83445 1.57071 1.36211 3.38685 2.71194 4.56489 1.33757 1.178 3.92679 1.11668 4.45446-.57675.51539-1.63207-1.19031-3.031-2.6015-4.00041-1.42346-.95716-2.90828-2.73649-1.95113-4.16 7.21548-1.60753 14.49231-3.20278 21.89186-3.52184a9.31582 9.31582 0 0 0 3.68137-.6381 2.86149 2.86149 0 0 0 1.718-3.031 8.36665 8.36665 0 0 1 -8.71257-3.28869c7.59589-.62583 15.54764-1.178 22.849.52766l6.39331 5.42388c-1.21485 1.26394-2.83466 2.45425-1.95113 3.71818a2.72023 2.72023 0 0 0 2.24564.77309c1.54617.0245 3.09234.0614 4.62625.0614a179.89938 179.89938 0 0 1 54.926 115.055c-2.577-.0982-4.9453 3.166-4.614 6.0129.39267 3.301 2.77329 5.95154 4.479 8.79846a13.40829 13.40829 0 0 1 .76082 1.43573z"/></g></g><path d="m446.51679 139.77015h12.36584s-1.82221-4.38325-6.25006-4.38325c-3.66718 0-6.11578 4.38325-6.11578 4.38325z" fill="#3f3d56"/><g stroke="#000" stroke-linecap="round" stroke-linejoin="round" stroke-miterlimit="10" stroke-width=".151949"><g fill="none"><path d="m453.66633 135.55714c.32346-6.74363-2.62906-9.04902-7.69289-12.70437"/><path d="m451.04024 127.01711s.6372 2.16149-.25266 3.76849c-.51624.9323-1.81628 2.12737-2.94784 2.08495-1.28453-.0482-2.36907-1.22897-3.11114-2.27858-1.57284-2.22466-1.16271-5.37698-2.35416-7.82716-.3188-.65558-1.25829-1.7887-1.25829-1.7887s4.45728-1.68274 6.73778-1.42173c2.32875.26653 4.32347 1.34451 5.40626 3.12151.80411 1.31967 2.02198 4.0274.1825 4.96406-.77337.3938-2.40245-.62284-2.40245-.62284z"/><path d="m446.07412 125.28549c.8928-.12761 1.91075-.1899 2.57124-.43877.19961-.86825.0585-1.8215.10728-2.69479"/><path d="m447.80953 128.25936 2.83781-1.72859"/><path d="m450.64734 126.53077.79357-2.1834"/><path d="m453.15732 130.69316c.30092-.66125.79898-4.79697 6.05507-7.39591"/><path d="m457.40356 124.38991c.80256-.94607.61738-1.99196.52853-2.49466"/><path d="m459.51414 125.07363c-.78257-.44179-1.45441-.58424-2.11187-.6878"/></g><path d="m423.01343 105.38551 12.48654 3.65523-6.7306 13.98575-15.37698-6.21903z" fill="#3f3d56"/><path d="m415.5891 117.69589 9.20812-11.7882"/><path d="m417.78581 118.58432 8.7952-12.15446"/><path d="m419.98252 119.47276 8.38229-12.52072"/><path d="m422.17923 120.36119 7.96937-12.88698"/><path d="m424.37595 121.24963 7.55644-13.25324"/><path d="m426.57266 122.13806 7.14352-13.6195"/><path d="m429.73088 121.02853-14.96406-5.85278"/><path d="m430.6924 119.03056-14.55114-5.48652"/><path d="m431.65391 117.0326-14.13822-5.12026"/><path d="m432.61543 115.03463-13.7253-4.754"/><path d="m433.57694 113.03667-13.31238-4.38774"/><path d="m434.53846 111.0387-12.89946-4.02148"/><path d="m432.61543 115.03463v6.10005l-6.63345 3.80755-11.47872-5.23116 2.21567-1.55823" fill="none"/></g><circle cx="390.85931" cy="99.238739" fill="#3f3d56" r="1.052469"/><g fill="#006ad8"><path d="m391.09382 96.786564-.91434-7.64942s2.25006 3.762986 2.10174 5.438329c-.0738.833325-1.1874 2.211091-1.1874 2.211091z"/><path d="m392.98137 100.23969 7.25352 2.49223s-4.22074.281-5.69837-.52237c-.73498-.39959-1.55515-1.96986-1.55515-1.96986z"/><path d="m388.7002 99.813037-6.70241 3.523383s2.59339-3.456263 4.21916-3.887141c.80866-.214321 2.48325.363758 2.48325.363758z"/><path d="m390.85932 99.69894v12.13398" stroke="#000" stroke-linecap="round" stroke-linejoin="round" stroke-miterlimit="10" stroke-width=".151949"/></g><path d="m384.74254 116.28232h12.36584s-1.82221-4.38325-6.25006-4.38325c-3.66717 0-6.11578 4.38325-6.11578 4.38325z" fill="#3f3d56"/><path d="m461.5654 156.90491v4.39444h3.21118v-3.63737a2.0227538 2.0227538 0 0 1 2.02275-2.02275h10.58061v-3.21066h-11.3382a4.4763396 4.4763396 0 0 0 -4.47634 4.47634z" fill="#ced7e7"/><path d="m470.17133 152.42857v-5.28132c0-.71291 3.21066-.64576 3.21066 0v5.28132c-.5994.5994-2.15936.78338-3.21066 0z" fill="#b9c2d3"/><g stroke-linecap="round" stroke-linejoin="round" stroke-miterlimit="10"><path d="m469.36862 148.27942h4.81608c.44469 0 .80268.35799.80268.80268 0 .44468-.35799.80268-.80268.80268h-4.81608c-.44468 0-.80268-.358-.80268-.80268 0-.44469.358-.80268.80268-.80268z" fill="#ced7e7" stroke-width="4.97572"/><g stroke="#000" stroke-width=".151949"><path d="m461.5654 159.10213h3.21118" fill="none"/><path d="m461.5654 161.29935h3.21118" fill="#006ad8"/></g></g><g fill="#006ad8"><g stroke="#000" stroke-linecap="round" stroke-linejoin="round" stroke-miterlimit="10" stroke-width=".574295" transform="matrix(.26458333 0 0 .26458333 298.65601 89.014608)"><path d="m643.66419 251.81155v-12.13672"/><path d="m664.96635 251.81155v-12.13672"/></g><path d="m463.12178 163.8499s-2.27098 2.45951-2.27098 4.03541c0 1.23943.55454 2.67944 2.32491 2.67944 1.52589 0 2.44738-1.49598 2.44738-2.67944 0-1.61419-2.50131-4.03541-2.50131-4.03541z"/><path d="m461.75315 168.29257s-.31019.6634.35723 1.24219c.55563.48186 1.03921.22285 1.03921.22285-.68161-.41801-1.20492-.91553-1.39644-1.46504z" stroke="#000" stroke-linecap="round" stroke-linejoin="round" stroke-miterlimit="10" stroke-width=".151949"/></g><path d="m473.24939 184.76981c-.33616-2.71162 1.72242-4.34784 2.92038-6.28194" style="fill:none;stroke:#000;stroke-linecap:round;stroke-linejoin:round;stroke-miterlimit:10;stroke-width:.151949"/><path d="m473.45371 182.0029s-1.8399.49767-2.67998.1875c-.72893-.26913-1.36166-.91805-1.66175-1.63479-.30102-.71897.001-2.33833.001-2.33833 1.96877.20799 2.77212.77444 3.54848 2.05099.22036.3311.79194 1.73463.79194 1.73463z" fill="#006ad8"/><g stroke="#000" stroke-linecap="round" stroke-linejoin="round" stroke-miterlimit="10" stroke-width=".151949"><path d="m470.33423 181.3597c.2411.0637.5048.086.83317-.01" fill="#3f3d56"/><path d="m471.66585 179.87916c.0567.24741.0247.46514-.0437.67067" fill="#3f3d56"/><path d="m470.20405 179.68016c.49238.87781 1.16362 1.33768 1.98009 1.67985" fill="none"/><g fill="#3f3d56"><path d="m470.97276 179.22455c.10336.36514.0571.63152-.031.86315"/><path d="m470.43993 180.71029c-.18525.0954-.40929.0848-.65999.001"/></g></g><path d="m470.41874 184.52045c-3.47909.00003-6.43442 3.36462-6.43435 7.59536-.00007 4.23074 2.74726 7.41154 6.22635 7.41156 1.07153-.007 2.19695-.0968 3.1307-.736.9336.63912 1.98582.97812 3.05718.98495 3.4791-.00002 6.29943-3.42977 6.29936-7.66051.00008-4.23075-3.09728-7.57519-6.57638-7.57521-1.06556.007-1.88752.55574-2.81745 1.18844-.93894-.6388-1.80951-1.20796-2.88541-1.20859z" fill="#006ad8"/><path d="m469.707 184.3921c-3.4791.00003-5.28678 3.62934-5.28671 7.86008-.00007 4.23074 2.38436 7.52412 5.86346 7.52414 1.07153-.007 2.13695-.31211 3.07071-.95133.9336.63911 1.99964.64212 3.07099.64895 3.4791-.00002 6.2726-3.12739 6.27253-7.35813.00008-4.23075-2.18253-7.3619-5.66163-7.36193-1.06557.007-2.75.0438-3.67992.67655-.93894-.6388-2.57353-1.0377-3.64943-1.03833z" style="fill:none;stroke:#000;stroke-linecap:round;stroke-linejoin:round;stroke-miterlimit:10;stroke-width:.151949"/><path d="m473.37598 182.18206s-1.79898.33573-2.60225.008c-.71956-.29327-1.3763-.9121-1.66175-1.6348-.30391-.76945.17264-2.39169.30879-2.49242 1.769.17907 2.37234.91517 3.24101 2.20508.34584.61682.61349 1.41256.7142 1.91379z" style="fill:none;stroke:#000;stroke-linecap:round;stroke-linejoin:round;stroke-miterlimit:10;stroke-width:.151949"/><ellipse cx="424.33496" cy="-51.766171" fill="#febf07" rx="3.321719" ry="3.515162" transform="matrix(.93548002 .35337959 -.35337959 .93548002 0 0)"/><g style="fill:none;stroke:#000;stroke-linecap:round;stroke-linejoin:round;stroke-miterlimit:10;stroke-width:.151949"><path d="m414.46368 97.227052.7863-.474773.7863.456955"/><path d="m418.06808 97.857647.86295.314644.13726.899017"/><path d="m420.03183 100.84854.38771.83268-.53865.73276"/><path d="m419.06932 104.25178-.0806.91499-.83286.36526"/><path d="m416.15803 106.08069-.70396.59002-.8472-.33064"/><path d="m412.64397 105.4325-.86295-.31464-.13726-.89902"/><path d="m410.80872 102.38384-.38771-.83269.53864-.73275"/><path d="m411.67128 98.961312.24213-.886034.88456-.211209"/><path d="m418.76514 101.52509a3.515162 3.3180165 0 0 1 -3.51516 3.31802 3.515162 3.3180165 0 0 1 -3.51516-3.31802 3.515162 3.3180165 0 0 1 3.51516-3.318012 3.515162 3.3180165 0 0 1 3.51516 3.318012z"/></g><path d="m457.89267 220.78568h.147932v.019178h-.147932z" fill="#ced7e7"/><g stroke-linecap="round" stroke-linejoin="round" stroke-miterlimit="10"><g stroke="#000"><path d="m462.13696 212.77398c-1.64693-.0194-3.37758.33513-4.82554 1.26555-1.19478.76771-1.79344 1.86215-2.27015 3.28094-.0212.0631-1.86382-.32459-2.43344.25942-.36272.37187-.51659 1.14516-.12661 1.55339.48105.50356 1.90083.0785 2.11822-.0693-.0577.22915-.17097.56232-.35916 1.0449-.25135.43535-1.7787.12609-1.7787 1.9358l-.0351 4.04368 1.77612-.0145c-.0131.50594-.0195 1.21437-.0196 1.28209-.00079.34121.15903.6705.44338.88005.36982.27253.87122.28369 1.25316.0284.30562-.20426.48236-.544.4842-.9002.00027-.0609-.004-.80891-.0145-1.30741l11.20655-.091c-.0184.43071-.0277 1.30987-.0279 1.3901-.0008.34121.15902.6705.44338.88005.36982.27253.8707.28369 1.25263.0284.30563-.20426.48288-.544.48473-.9002.00053-.073-.006-1.02471-.0212-1.41542l1.973-.016-.19844-4.21886c-.22569-1.03392-1.63236-1.21943-1.7973-1.85622-.0803-.38786-.25741-.58963-.10594-.56689.0274.004 1.29746.15366 1.62833-.11111.63901-.51135.39308-1.21136-.0607-1.57104-.51302-.40664-2.10985.14914-2.16038.007-.45188-1.2683-1.06196-2.80338-2.13992-3.49436-1.35901-.87114-3.06873-1.32866-4.68912-1.34772zm-.51521 1.03146c.19018-.002.37755.00026.56068.007 1.40745.053 2.99443.45545 4.06797 1.1436.71266.45682 1.40325 1.95478 1.83348 3.2458.24989.74984.30132 1.08208.402 1.53811-.0468.13318.38306.25604.13272.32108l-12.7872.0167c-.14116.00019-.31541-.0993-.33702-.26838-.0516-.40425.27823-1.18155.475-1.76716.44827-1.33413 1.21229-2.91806 1.90169-3.36103.96052-.61719 2.4194-.86146 3.75068-.87592z" fill="none" stroke-width=".151949"/><path d="m469.65534 223.03435a1.3175976 1.3175976 0 0 1 -.71189 1.17011 1.3175976 1.3175976 0 0 1 -1.3664-.0943 1.3175976 1.3175976 0 0 1 -.54442-1.2568" fill="none" stroke-width=".574295"/><g stroke-width=".151949"><path d="m460.79788 220.04735-2.70481-2.52036"/><path d="m464.63235 220.04735-2.92709-2.82657"/><path d="m469.67667 225.78038c.089.0223.0325 1.49486.032 1.5838-.002.3562-.1789.69621-.48453.90048-.38193.25526-.88289.24375-1.25271-.0288-.28435-.20955-.44427-.53886-.44356-.88007.0002-.10255-.06-1.60886.0451-1.62375.68078-.0964 1.33588-.14384 2.10369.0483z" fill="#3f3d56"/></g><path d="m-454.15564 223.03435a1.3175976 1.3175976 0 0 1 -.71188 1.17011 1.3175976 1.3175976 0 0 1 -1.3664-.0943 1.3175976 1.3175976 0 0 1 -.54443-1.2568" fill="none" stroke-width=".574295" transform="scale(-1 1)"/><g stroke-width=".151949"><path d="m456.33181 225.61713c.0918.002.0325 1.65811.032 1.74705-.002.3562-.17891.69621-.48453.90048-.38194.25526-.88289.24375-1.25271-.0288-.28435-.20955-.44427-.53886-.44357-.88007.00021-.10255-.061-1.78943.0451-1.78699z" fill="#3f3d56"/><path d="m471.56119 223.82343c4.28652.17534 4.49141-4.19063 4.22325-9.08294" fill="none"/><rect fill="#ced7e7" height="1.879491" rx=".362351" width="3.758982" x="473.85187" y="212.86101"/><g fill="none"><path d="m474.81716 212.861v-1.84973"/><path d="m476.64554 212.861v-1.84973"/></g></g></g><g stroke-width=".151949"><g stroke="#000"><path d="m454.60785 219.03056.43342-1.71009" fill="#ced7e7"/><path d="m469.50102 219.31095c-.19905-.46415-.35668-1.12993-.53502-1.69489" fill="#ced7e7"/><path d="m354.35048 101.20444 12.81478-1.934781v23.636261h-12.81478z" fill="#c6c6c6"/></g><path d="m355.82066 102.59832 9.87443-1.49085v7.96594h-9.87443z" fill="#6e80a4"/><path d="m368.89703 106.68887c-.24963.49627-.28046 1.61771.15434 1.65939l2.72485.0601.0495-3.45986c-.79484.73105-2.46239.9291-2.92865 1.74034z" fill="#c6c6c6" stroke="#000"/><path d="m371.82568 104.94853c-.0968-1.88535-1.19053-3.22839-2.11437-3.68479" fill="none" stroke="#000"/><path d="m355.82066 102.59832 9.87443-1.49085v7.96594h-9.87443z" fill="#ececec"/></g><g fill="none" stroke="#000" stroke-opacity=".985631" stroke-width=".764495"><g transform="matrix(.19879192 0 0 .19872239 314.13976 95.207443)"><path d="m225.92239 91.054024 4.18867-1.202819.96065 4.172266"/><path d="m218.57988 109.74054c1.46934-6.42948 4.72931-12.180192 9.91654-17.200347"/><g transform="translate(-.000019)"><path d="m223.94899 116.07769-3.58011 3.0565 3.57706 2.88767"/><path d="m243.80324 119.06091c-5.58195 1.34043-11.30642 2.49595-19.85417-.012"/></g><g transform="matrix(1 0 0 -1 20.67999 202.27354)"><path d="m225.92239 91.054024 4.34719-1.169859.80213 4.139306"/><path d="m218.57372 109.73691c7.3208-6.89691 8.25623-11.943577 9.9165-17.200277"/></g></g><g transform="matrix(.19879192 0 0 .19872239 280.828599 110.069605)"><path d="m225.92239 91.054024 4.18867-1.202819.96065 4.172266"/><path d="m218.57988 109.74054c1.46934-6.42948 4.72931-12.180192 9.91654-17.200347"/><g transform="translate(-.000019)"><path d="m223.94899 116.07769-3.58011 3.0565 3.57706 2.88767"/><path d="m243.80324 119.06091c-5.58195 1.34043-11.30642 2.49595-19.85417-.012"/></g><g transform="matrix(1 0 0 -1 20.67999 202.27354)"><path d="m225.92239 91.054024 4.34719-1.169859.80213 4.139306"/><path d="m218.57372 109.73691c7.3208-6.89691 8.25623-11.943577 9.9165-17.200277"/></g></g></g></g><path d="m326.30296 123.37541 3.9786-5.2122-1.86986-1.13227 1.8958-3.21859-2.16399-.58754-1.89363 5.57381h1.66454z" fill="#febf07"/><g stroke-linejoin="round" stroke-miterlimit="10"><g stroke="#000" stroke-linecap="round"><path d="m326.30296 123.37541 4.09511-4.9673-2.09527-1.44924 2.28378-3.24564-2.16399-.58754-2.22571 5.47783 1.92466.0174z" fill="none" stroke-width=".151949"/><rect fill="#c6c6c6" height="10.886134" rx=".67641" ry="4.173121" stroke-width=".151949" transform="rotate(90)" width="21.730831" x="114.8338" y="-343.11627"/><g fill="none" stroke-opacity=".985631" stroke-width=".764495" transform="matrix(.19879192 0 0 .19872239 290.924149 99.314508)"><path d="m225.92239 91.054024 4.18867-1.202819.96065 4.172266"/><path d="m218.57988 109.74054c1.46934-6.42948 4.72931-12.180192 9.91654-17.200347"/><g transform="translate(-.000019)"><path d="m223.94899 116.07769-3.58011 3.0565 3.57706 2.88767"/><path d="m243.80324 119.06091c-5.58195 1.34043-11.30642 2.49595-19.85417-.012"/></g><g transform="matrix(1 0 0 -1 20.67999 202.27354)"><path d="m225.92239 91.054024 4.34719-1.169859.80213 4.139306"/><path d="m218.57372 109.73691c7.3208-6.89691 8.25623-11.943577 9.9165-17.200277"/></g></g><g stroke-width=".151949"><g fill="#c6c6c6"><path d="m334.29472 126.63782h6.43338"/><path d="m334.29472 129.11231h6.43338"/><path d="m334.29472 131.5868h6.43338"/><path d="m334.29472 134.06129h6.43338"/></g><g fill="none"><path d="m340.92937 231.44829c-.16604 1.32785-.32068 2.57837-.47852 3.85403l-3.66076 2.77141 3.31711-.007c-.0898.71346-.18213 1.4207-.27388 2.12906l-5.09427 2.81895 4.71909-.007c-.10985.80255-.22442 1.61134-.34209 2.42104l-5.49579 2.60294 5.10615-.006c-.49077 3.14315-1.06338 6.40674-1.79524 9.98182l4.0535-1.92081 4.47156 2.21382c-.63514-3.36401-1.24962-6.79551-1.84847-10.28051l4.95112-.006-5.37125-2.4629c-.14188-.84248-.27952-1.69919-.41961-2.54764l4.75785-.007-5.20743-2.73988c-.11856-.73272-.23921-1.45748-.35657-2.19418l3.51296-.007-3.95893-2.84893c-.19574-1.25225-.39379-2.49668-.58653-3.75894z"/><path d="m340.45085 235.30232-.34365 2.76469"/><path d="m339.83332 240.19608-.37518 2.81223"/><path d="m340.1072 238.06701 2.21124 2.19056-2.8603 2.75074 3.72949 2.54351-4.46122 2.47427 4.88135-.006-.42013-2.46858-4.07158-.12248 3.65197-2.42517-.44958-2.74661"/><path d="m339.83332 240.19608 2.12855-2.13269-.44597-2.85616"/><path d="m340.98467 256.0871-3.29893-1.94919 6.45998-3.02625-5.41931-3.08557"/><path d="m338.72641 248.02609.38964-2.59674"/></g><circle cx="421.86612" cy="259.1069" fill="#006ad8" r="11.161356"/></g><g fill="none"><ellipse cx="421.86612" cy="259.1069" rx="7.930668" ry="11.161356" stroke-width=".151949"/><ellipse cx="421.86612" cy="259.1069" rx="2.903274" ry="11.161356" stroke-width=".151949"/><g stroke-width=".574295"><path d="m431.23153 253.069a11.161356 5.2248416 0 0 1 -9.39276 2.38257 11.161356 5.2248416 0 0 1 -9.3677-2.40409"/><path d="m429.21581 250.74032a11.161356 5.2248416 0 0 1 -14.70168-.00094"/><g transform="scale(1 -1)"><path d="m431.04299-265.4288a11.161356 5.2248416 0 0 1 -9.18538 2.25087 11.161356 5.2248416 0 0 1 -9.17803-2.25742"/><path d="m428.86619-267.75181a11.161356 5.2248416 0 0 1 -14.02809-.0106"/></g></g><path d="m410.70477 259.1069h22.32271" stroke-width=".151949"/></g></g><g fill="#febf07" stroke-width=".303897"><path d="m444.08638 243.09977c-.46684.13734-.93319.40846-1.37265.70437-.10368.059-.0237.0862-.0237.0862.70569.45749 1.35481 1.10696 1.53635 1.51778.22276.5041.27698 1.13751.27698 1.90945h1.48209c0-.82956-.0391-1.68352-.4036-2.50838-.2832-.6409-.77364-1.2265-1.49551-1.70946z"/><path d="m450.68352 238.94797c-4.44838.35804-6.56192 1.20239-9.01004 2.72906-.23689.14772-.44125.32406-.42627.64401 0 0-.0101.56611-.0101.77265 0 .0795.008.36662.16941.27358 2.39706-1.38394 5.30003-2.54962 9.44814-2.91382.0376-.003.14842-.0523.15296-.1162.0297-.41802.023-.95802-.0894-1.28518-.0278-.0809-.15524-.0961-.23469-.1041z"/><path d="m450.68753 236.3746c-4.10067.14292-6.43141.88902-9.06768 2.54032-.52189.3269-.39655 1.31308-.39655 1.71526 0 .0886.12378.0747.26851.0282.16411-.047.40197-.16081.45775-.19567 2.48383-1.55241 4.90804-2.4718 8.78965-2.60708.22666-.008.31075-.0598.38712-.17986.0894-.28721.0315-.7777-.0269-1.05067-.0813-.16435-.0865-.26186-.41191-.25052z"/><path d="m448.37449 234.00627c-3.56525.56807-4.31783 1.08379-6.02823 1.99297-.004.002-.40338.18375-.55648.68688-.0592.1944.007.85033.007.94453 0 .0528.0134.0917.0365.11907.053.0626.15731.0644.26998.0318.0476-.0138.0967-.0337.14407-.0579 1.78798-.91053 2.95841-1.71181 6.36072-2.25391.38351-.11313.30393-.45416.27647-.70513-.0331-.30273-.0288-.85191-.50954-.75835z"/><path d="m450.98932 241.19188c-.31979.0285-.62828.0608-.92501.0977l-.28112.0925c-1.3095.46776-2.20116 1.19096-2.63188 2.2133s-.45475 2.20586-.45475 3.76825h1.48156c0-1.53166.0724-2.56154.33848-3.19309.25511-.60552.63872-.97196 1.63298-1.34514 0 0 .51862-.2439.66817-.4718.1287-.19611.167-.83016.17157-1.16169z"/></g><g stroke="#000" stroke-width=".151949"><path d="m443.80493 247.18732h5.72984a1.2507058 1.2507058 45 0 1 1.25071 1.25071 6.7662892 6.7662892 159.3741 0 1 -8.95561 3.37081v-4.62152z" fill="#ced7e7" stroke-linecap="round"/><g fill="none"><path d="m442.06543 249.23429h8.39432" stroke-linecap="round"/><ellipse cx="366.07477" cy="259.85056" rx="5.897033" ry="12.054839"/><ellipse cx="426.7421" cy="-139.37088" rx="5.897033" ry="12.054839" transform="matrix(.59545524 .80338848 -.80338848 .59545524 0 0)"/><ellipse cx="1.115384" cy="-448.92294" rx="5.897033" ry="12.054839" transform="matrix(-.5768015 .81688434 -.81688434 -.5768015 0 0)"/></g></g></g><circle cx="356.3382" cy="252.75047" fill="#006ad8" r="1.453821"/><g fill="#3f3d56"><circle cx="376.21268" cy="256.0242" r=".814873"/><circle cx="356.95801" cy="267.56152" r=".814873"/><circle cx="366.07477" cy="247.79573" r="1.193696"/><g stroke="#000102" stroke-linejoin="round" stroke-miterlimit="10" stroke-width=".151949"><path d="m317.49732 225.5694v3.81968"/><path d="m319.52886 225.5694v3.81968"/><path d="m321.5604 225.5694v3.81968"/></g></g><path d="m323.46119 220.69752c-3.78443 1.08423-6.29964 3.13656-8.88201 5.08907l-3.55718-.0611-.20012 5.52756 12.89294.0188-.25363-6.84328z" fill="none" stroke="#000102" stroke-linejoin="round" stroke-miterlimit="10" stroke-width=".151949"/><path d="m323.46132 224.42875 6.41745 1.71955v5.0218l-6.16395.10175z" fill="#2e2c3e"/><g stroke-linejoin="round" stroke-miterlimit="10"><path d="m323.46132 224.42875 6.60573 1.56806-.43772 5.17741-5.91451.0976-.2535-6.8431" fill="none" stroke="#000102" stroke-width=".151949"/><path d="m324.90504 208.41311s1.5417-.75407 2.21143-.41629c.75162.37908.98238 1.43987 1.09957 2.27348.067.47663-.0229.99632-.24592 1.42285-.19195.36714-.51354.68915-.88495.87269-.43244.21371-.97039.33782-1.43303.20128-.31265-.0923-.73941-.64005-.73941-.64005s-.47824.66699-.91985.77877c-.45107.11418-1.3608-.31339-1.3608-.31339s-.97101.39084-1.43309.26119c-.472-.13244-.89899-.54389-1.0782-1.00019-.16153-.41128.10687-1.31507.0986-1.32194 0 0-.41238-.64492-.36492-.99498.0489-.36038.31527-.71373.63485-.88732.51626-.28042 1.00602.0279 1.00602.0279s.0639-.52089.74107-.91188c.4054-.23406 1.04872-.29249 1.3787-.26715.55192.0424 1.28993.91505 1.28993.91505z" fill="#c6c6c6" stroke="#000" stroke-width=".151949"/><circle cx="395.53979" cy="263.26828" fill="none" r="4.84467" stroke="#fff" stroke-width=".151948"/><g fill="none" stroke="#fff" stroke-linecap="round" stroke-opacity=".985631" stroke-width=".937348" transform="matrix(.16214415 0 0 .16206475 357.409039 246.099714)"><path d="m225.92239 91.054024 4.18867-1.202819.96065 4.172266"/><path d="m218.57988 109.74054c1.46934-6.42948 4.72931-12.180192 9.91654-17.200347"/><g transform="translate(-.000019)"><path d="m223.94899 116.07769-3.58011 3.0565 3.57706 2.88767"/><path d="m243.80324 119.06091c-5.58195 1.34043-11.30642 2.49595-19.85417-.012"/></g><g transform="matrix(1 0 0 -1 20.67999 202.27354)"><path d="m225.92239 91.054024 4.34719-1.169859.80213 4.139306"/><path d="m218.57372 109.73691c7.3208-6.89691 8.25623-11.943577 9.9165-17.200277"/></g></g><path d="m387.87431 255.29509c-.16752 0-.30231.13479-.30231.30231v2.10116c0 .16752.13479.30231.30231.30231a1.1037102 1.1037102 139.41292 0 0 1.2082-1.03508c-.01-.25111.19466-.46354.44596-.46354h11.98532c.27181 0 .49316.22855.48472.50023a1.0074547 1.0074547 43.639405 0 0 1.04697.99839c.16752 0 .3023-.13479.3023-.30231v-2.10116c0-.16752-.13478-.30231-.3023-.30231z" fill="#006ad8" stroke-width=".151949"/></g><path d="m387.87431 255.29509c-.16752 0-.30231.13479-.30231.30231v2.10116c0 .16752.13479.30231.30231.30231a1.1037102 1.1037102 139.41292 0 0 1.2082-1.03508c-.01-.25111.19466-.46354.44596-.46354h11.98532c.27181 0 .49316.22855.48472.50023a1.0074547 1.0074547 43.639405 0 0 1.04697.99839c.16752 0 .3023-.13479.3023-.30231v-2.10116c0-.16752-.13478-.30231-.3023-.30231z" fill="#3f3d56"/><g fill="none" stroke="#000" stroke-linejoin="round" stroke-miterlimit="10" stroke-width=".151949"><g stroke-linecap="round"><path d="m310.69609 193.74623c1.14004-.8659 1.215-4.4239 1.14851-8.33941"/><path d="m310.73067 186.52027 1.12959 1.15724.95346-1.14061"/><path d="m310.26292 188.37551 1.54186 1.27987 1.31032-1.21472"/><path d="m299.41033 186.25614 3.99428-2.59154"/><path d="m323.8926 185.88125-3.60801-2.28284"/><path d="m317.25662 181.13114v-3.96403"/></g><path d="m312.66065 182.54267c.25748.30864.50732.64933.74388 1.00045 1.19877 1.77929 2.53638 5.01327 3.35319 7.0001a2.9858562 2.9858562 176.06558 0 1 -5.15012.35421c-3.70493.5295-4.80185-2.17608-3.11978-4.95366 1.61949-2.49313 1.99176-2.96909 2.41407-3.42279.46334-.49778 1.32348-.50009 1.75876.0217z"/></g><circle cx="311.51544" cy="163.045" fill="#3f3d56" r="2.200289"/><circle cx="325.2742" cy="163.045" fill="#3f3d56" r="2.200289"/><path d="m305.55836 148.75924c-.18012-.00008-.2066.49025-.20652.67038l.0231.55698v6.91172c-.00008.18012.14596.32616.32608.32608h15.93857c.19812 0 .37147-.16023.38085-.35812.048-1.01167.007-2.3872-.0124-3.67626.0195-1.28907.0604-2.66459.0124-3.67626-.009-.1979-.18273-.35812-.38085-.35812l-15.17727-.42661z" fill="#006ad8"/><g stroke-linecap="round" stroke-linejoin="round" stroke-miterlimit="10"><path d="m323.74263 152.99415c1.04616.0344 2.09266.02 3.13931-.0142.75901-.0248 1.69237.47325 2.08093 1.1261.4084.68619.71935 1.21749 1.00742 1.71242.39891.68537.0793 1.254-.71359 1.2699l-5.45059.10931a1.3142611 1.3142611 44.425577 0 1 -1.34061-1.314v-1.67865c0-.7064.57117-1.23409 1.27713-1.21087z" fill="#006ad8" stroke-width=".334288"/><g fill="none"><g stroke="#fff" stroke-opacity=".985631" stroke-width=".868697" transform="matrix(.17495364 0 0 .17487769 272.565826 134.664077)"><path d="m225.92239 91.054024 4.18867-1.202819.96065 4.172266"/><path d="m218.57988 109.74054c1.46934-6.42948 4.72931-12.180192 9.91654-17.200347"/><g transform="translate(-.000019)"><path d="m223.94899 116.07769-3.58011 3.0565 3.57706 2.88767"/><path d="m243.80324 119.06091c-5.58195 1.34043-11.30642 2.49595-19.85417-.012"/></g><g transform="matrix(1 0 0 -1 20.67999 202.27354)"><path d="m225.92239 91.054024 4.34719-1.169859.80213 4.139306"/><path d="m218.57372 109.73691c7.3208-6.89691 8.25623-11.943577 9.9165-17.200277"/></g></g><g stroke="#000" stroke-width=".151949"><path d="m305.48551 149.01655c-.18013-.00008-.2524.34678-.25232.5269l-.00076.56016.14251 5.43613v1.35858c-.00008.18012.14596.32616.32608.32608l15.78528-.28798c.19809-.004.72604-.0878.73543-.28569.048-1.01167-.0832-2.18024-.10275-3.4693.0195-1.28906-.0506-2.656-.0985-3.66767-.009-.1979-.18273-.35812-.38086-.35812l-15.63628-.13909z"/><path d="m323.89839 152.74378c.92791-.0393 1.8967-.0511 2.94918-.007.75875.032 1.53092.68603 1.82911 1.38415.29901.70003.67075 1.38782 1.07478 2.07017.40401.68233.10981 1.22893-.6832 1.23663l-5.14689.0499a1.3164134 1.3164134 44.971504 0 1 -1.32914-1.32782l.0179-2.05732c.006-.70637.58249-1.31917 1.28824-1.34905z"/></g></g></g><circle cx="325.2742" cy="163.045" fill="#3f3d56" r="2.200289"/><g style="fill:none;stroke:#000;stroke-linecap:round;stroke-linejoin:round;stroke-miterlimit:10;stroke-width:.151949"><circle cx="325.51297" cy="162.95908" r="2.200289"/><circle cx="311.67917" cy="163.14926" r="2.200289"/></g></g></svg>