<svg height="1080" viewBox="0 0 508 285.75" width="1920" xmlns="http://www.w3.org/2000/svg" xmlns:xlink="http://www.w3.org/1999/xlink"><filter id="a" color-interpolation-filters="sRGB" height="1.022925" width="1.038094" x="-.019047" y="-.011462"><feGaussianBlur stdDeviation=".34459919"/></filter><filter id="b" color-interpolation-filters="sRGB" height="1.088849" width="1.278117" x="-.139058" y="-.044424"><feGaussianBlur stdDeviation=".93180957"/></filter><text stroke-width=".365035" transform="scale(.26458333)" x="254.25549" y="440.84052"/><text stroke-width=".365035" transform="scale(.26458333)"/><rect fill="#fff" fill-opacity=".116914" height="256.93356" rx="128.46678" width="256.93356" x="251.06645" y="8.178852"/><rect fill="#e2edff" fill-opacity=".298009" height="256.93356" rx="128.46678" width="256.93356" x="233.44318" y="35.665359"/><path d="m241.24969 64.707909 37.76813 6.386414" stroke="#000" stroke-linejoin="round" stroke-miterlimit="10" stroke-width=".850918"/><path d="m531.88169 285.61246-135.57276-.18842-2.83528-82.92376-22.24733 12.95612-14.92768 36.70714c-21.24804 6.19809-36.07014 9.89811-42.51098 6.17948-6.06043-3.499-12.09634-13.07955-19.9961-33.32337l14.23937-39.61422 13.67339-24.44768.98292.0854 8.06582-11.65356 30.93426-103.233604 71.5032-21.110763 24.48309-21.0471972 2.6744-4.13556243 71.53368.13764247z" fill="#515153"/><path d="m433.19052 25.045258-.14899 21.01563 17.59166 7.740244-18.29868 11.995493 75.5241 145.761845 24.02308-43.96815-.24232-54.46502-73.96576-109.1272383z" fill="#383839"/><path d="m457.67361 3.9980617 31.93633 132.0855983 18.24867 59.42894 18.3171-59.77215 5.70598-23.61818-.24233-112.1226453-71.29135-.13722325z" fill="#fff"/><path d="m500.608 23.27628-10.80329 19.415177 8.1405 12.229386-8.30814 81.275017 18.22154 75.36261 18.30219-75.7563-7.90104-80.82613 8.18158-12.692634-10.64169-19.000265z" fill="#005cbb"/><path d="m514.91606 24.361993 15.83972-20.9039091.24233 50.3404631-5.44035-10.436303z" fill-opacity=".188076"/><g fill="#fff"><path d="m319.00443 180.9991-5.39171 27.55585 18.62477 16.13538 18.61868 8.01214 8.64-6.70768 17.62047-36.07517.33548-4.05677-51.70727-12.16439z"/><path d="m376.93506 185.74159-.55346 2.10273-32.14357 15.78127.16549 6.53796 4.42584 13.87077 11.19287.88372 17.09423-34.99845.32297-3.89765z"/><circle cx="450.63318" cy="78.142532" opacity=".8" r="24.341398"/></g><circle cx="443.1098" cy="69.76786" fill-opacity=".964704" r="3.604827"/><circle cx="460.00845" cy="69.709885" fill-opacity=".964704" r="3.604827"/><circle cx="216.00476" cy="64.707909" fill="#fff" opacity=".8" r="25.244928"/><circle cx="216.16519" cy="51.952779" r="3.160336"/><circle cx="226.96384" cy="70.825822" r="3.160336"/><g stroke-linejoin="round" stroke-miterlimit="10"><circle cx="205.40207" cy="70.783879" fill="#006ad8" r="3.160336" stroke="#030404" stroke-linecap="round" stroke-width=".529166"/><g stroke="#000"><g fill="none" stroke-width=".529166"><ellipse cx="205.40207" cy="70.783879" rx="7.70255" ry="7.702519" stroke-dasharray="4.23332 4.23332" stroke-linecap="square"/><g stroke-linecap="round" transform="translate(23.5479 13.67986)"><path d="m184.67022 55.669591 7.87916-4.549035v-9.688032"/><path d="m192.54938 51.120556 8.14702 4.4155"/></g></g><path d="m313.75328 78.283284 35.97154 10.021574" stroke-width=".850918"/><path d="m387.6803 71.387648 15.65997-32.045166" stroke-width=".850918"/><path d="m394.10192 116.71172 37.80686 43.26346" stroke-width=".8509"/><path d="m350.89892 108.06188-42.40499 21.01132" stroke-width=".850918"/></g></g><path d="m447.88229 79.955466h7.43909a2.2212229 2.2212229 0 0 1 2.22123 2.221228v8.35603h-12.22824v-8.009324a2.5679306 2.5679306 0 0 1 2.56792-2.567934z" fill="#006ad8"/><circle cx="451.51535" cy="74.808128" fill="#006ad8" r="3.146092"/><path d="m439.42791 74.956054a2.5679305 2.5679305 0 0 0 -2.56737 2.568073v8.009143h7.86103v-3.011016c0-1.738124 1.42174-3.159866 3.15987-3.159866h1.62437v-1.406874c-.99809-.640855-1.67497-1.742498-1.72482-2.99946zm15.82103 0c-.0527 1.328648-.80541 2.483475-1.89751 3.104236v1.302098h1.96903c1.54667 0 2.81302 1.266366 2.81302 2.813035v3.357847h8.13633v-8.355988a2.2212228 2.2212228 0 0 0 -2.22123-2.221228z"/><ellipse cx="296.6702" cy="74.032158" fill="#fff" opacity=".8" rx="17.895168" ry="17.895216"/><g stroke-linejoin="round" stroke-miterlimit="10"><g fill="none" stroke="#000" stroke-width=".378438" transform="matrix(1.3982899 0 0 1.3982899 -178.69191 -143.18116)"><path d="m340.14358 148.24883a5.6317782 5.6317782 0 0 0 -5.63171 5.6317 5.6317782 5.6317782 0 0 0 3.33055 5.13612v5.53093c0 .20555.99941.37103 2.24121.37103 1.24179 0 2.24173-.16548 2.24173-.37103v-5.47564a5.6317782 5.6317782 0 0 0 3.45044-5.19141 5.6317782 5.6317782 0 0 0 -5.63222-5.6317z" stroke-linecap="round"/><g stroke-linecap="square"><path d="m337.43976 161.86517h5.40815"/><path d="m337.43976 162.85921h5.40815"/><path d="m337.43976 164.02303h5.40815"/><path d="m337.84242 160.9451h4.48295"/></g></g><g stroke-linecap="square"><g stroke="#006ad8" stroke-width=".529166"><path d="m296.92608 62.948739v-2.376198"/><path d="m296.92608 62.948739v-2.376198"/><path d="m296.92608 62.948739v-2.376198"/><path d="m303.31868 65.595024 1.68023-1.68023"/><path d="m305.89907 71.822654h2.3762"/><path d="m303.2528 78.21526 1.68023 1.68023"/><path d="m290.79694 78.216657-1.68023 1.68023"/><path d="m288.21655 71.989027h-2.3762"/><path d="m290.86281 65.596421-1.68023-1.680216"/></g><path d="m375.31502 89.08337c-3.95206 0-7.69559 3.241445-7.15578 7.1565 1.11094 8.05661.72551 14.7084.43143 19.98169l-1.20531 7.91159-5.08772 3.57031s-7.69547-2.40228-10.97032-.75583c-3.22257 1.62015-5.84211 9.1082-5.84211 9.1082l-8.19699 3.76106-5.80167 9.19491-6.97727 3.8709-1.95748 13.24644 2.99871 7.50624.0586-.0629a.18500059.18500059 0 0 1 .14092-.0592.18500059.18500059 0 0 1 .17776.21459l.008-.0506 4.18884 10.3626 5.72072 3.45469a.18500059.18500059 0 0 1 .0896.1503l.71247 16.4858 7.56185 5.65569-.15608-6.15643a.18500059.18500059 0 0 1 .10326-.17054l32.06769-15.74371.43571-1.65688-.14884-.18138c.0692-.0112.13667-.0196.20448-.0282l.0405-.15463a.18500059.18500059 0 0 1 .1069-.12283.18500059.18500059 0 0 1 .16186.008l.32515.18065c5.26774-.74747 10.04524-.44343 20.1804-11.62497l14.2198-9.25272s7.15748-3.5272 8.75413-6.87685c1.1982-2.51372 1.181-5.8952-.12786-8.3531-.89772-1.68579-2.85052-2.81266-4.70478-3.27043-2.6371-.65103-5.98268-.27277-8.08718 1.00295-3.71133 2.24982-10.69516 7.1123-10.96164 6.77064l-2.17787.0369c-1.42314-1.59084-3.19456-3.00587-5.24887-4.2777l-4.70331-10.88072c-.32302-.74717-1.02976-8.57612-.79557-9.56487 2.45966-10.38499-.4547-22.06565-1.22625-33.229585-.27314-3.952393-3.20367-7.156486-7.15577-7.156486z" fill="#efd0b4" stroke-width=".369963"/><path d="m364.83083 135.44894c4.0466 7.56758 7.62412 15.21893 11.66635 22.78884l4.0696 16.2936c-.34437 2.58318-1.46732 4.05818-3.22273 4.87457-1.72555.80252-6.90356.60914-6.90356.60914l-8.53052-15.88294-11.06415-19.57877 10.54786 20.06325 8.26785 15.7453c-1.07464 1.4444-1.91693 2.94095-3.31521 3.96844-1.45581 1.06975-3.53975 1.71716-7.27432 1.3115l-11.47573-8.75677-10.66866-16.06732 10.04471 16.5129.10117.11207 11.32293 8.75269c-1.0683 3.97976-3.97055 5.64411-7.18829 6.26193-3.25857.62565-6.7494.13191-8.58938-.21533l-12.45308-8.68766-4.87661-10.97168 4.13888 11.41392c.0319.0742.0838.13778.15027.18353l12.64239 8.81844c.0491.0338.10466.057.1633.0679 1.87054.35649 5.501.89591 8.98535.22689 3.39062-.651 6.68632-2.52502 7.8596-6.78363 3.72128.36372 6.01757-.31497 7.62255-1.49431 1.58534-1.16493 2.47732-2.74972 3.51754-4.1491 2.86283.33231 5.3821.22141 7.33569-.68718 2.01017-.93489 3.36428-2.7596 3.72496-5.59354.007-.053.004-.10662-.0112-.15824l-4.21016-16.37941-.0383-.0982z" stroke-width="1.39829"/></g><path d="m229.80011 114.99674 118.45985-17.292033" stroke="#000" stroke-width=".850918"/></g><circle cx="375.73969" cy="96.217766" fill="#fff" opacity=".8" r="27.519938"/><circle cx="376.5303" cy="83.774773" fill="#006ad8" r="2.70659"/><path d="m386.94075 81.172505c-.1878 0-.37496.07141-.51885.215323l-7.13254 6.907821-5.48926.0654-7.08674-6.911063c-.28773-.28775-.75132-.28775-1.03909 0l-.0759.07658c-.28777.28775-.28777.751333 0 1.039082l7.91375 7.913758v19.397114c0 .64418.51846 1.16264 1.16264 1.16264s1.16261-.51846 1.16261-1.16264v-8.25265c.00011-.3739.30319-.67698.67708-.67708h.0166c.37276-.00004.67495.30214.67492.6749v8.25483c0 .64418.51843 1.16264 1.16261 1.16264.64422 0 1.16265-.51846 1.16265-1.16264v-19.367496l8.0056-8.005524c.28776-.287763.28776-.751332 0-1.039081l-.0766-.07658c-.14388-.143875-.33178-.215323-.51954-.215323z" fill="#006ad8"/><path d="m515.79965 23.283141 15.83971-20.9039085.24233 50.3404635-5.44035-10.43629z" fill="#fff" filter="url(#b)"/><path d="m501.69874 24.606438-26.97477 49.886382-16.44553-68.0171939 2.6744-4.1355623 22.39282.043039z" fill-opacity=".163738" filter="url(#a)"/><path d="m500.608 23.27628-26.48886 48.73899-16.44553-68.0172083 2.6744-4.13556244 22.39282.04303948z" fill="#fff"/><path d="m482.74083-.09443331 17.86717 23.37071331 15.19165.007 15.83971-20.9010022v-2.37607141z" fill="#efd0b4"/><path d="m336.28524 195.74579.36205 8.38489 7.56184 5.65569-.15609-6.15643c0-.0721.0386-.13876.10327-.17054l2.96623-1.45601c-9.32939-3.27685-8.06227-4.34617-10.83737-6.2576z" fill-opacity=".300852"/><path d="m325.74489 173.69823-6.74027 7.30102-5.39197 27.55583 18.62466 16.13536 18.61891 8.01203 8.63995-6.70777 3.50671-7.1789-9.02221-1.48996-17.51477-13.09978-.71606-16.57324-5.77393-3.48625-4.23106-10.46811z" fill="#fff"/><path d="m320.6803 179.18412-1.67568 1.81513-5.39197 27.55583 18.62466 16.13536 18.61891 8.01203 1.77611-1.37871-6.83349-2.07669-17.85152-11.02956-9.75706-16.22858z" fill="#ccc"/><g transform="translate(26.189131 16.503267)"><circle cx="188.3622" cy="106.90801" fill="#fff" opacity=".8" r="17.416365"/><path d="m195.61066 104.62886-.34531 1.10374-1.20838.49958-1.02861-.53394-1.12783 1.12831.53592 1.02467-.50104 1.20787-1.10473.34975v1.59544l1.10375.34532.50005 1.20838-.53395 1.02811 1.12783 1.12832 1.02515-.53591 1.20741.50054.34974 1.10522h1.59546l.34581-1.10424 1.20788-.49956 1.0286.53395 1.12781-1.12782-.53592-1.02516.50104-1.20787 1.10475-.34928v-1.59544l-1.10375-.34581-.50006-1.20788.53394-1.0286-1.12781-1.12831-1.02468.5364-1.20786-.50104-.34975-1.10474z" style="fill:#006ad8;stroke:#000;stroke-linecap:round;stroke-linejoin:round;stroke-miterlimit:10;stroke-width:.529166"/><path d="m183.06946 95.093846-.50797 1.62365-1.77757.734871-1.51311-.785442-1.65906 1.659772.78834 1.507318-.73703 1.776845-1.62511.51448v2.34696l1.62367.50798.7356 1.77756-.78547 1.51237 1.65906 1.65979 1.50805-.78835 1.77612.73632.51448 1.62582h2.34698l.5087-1.62438 1.77682-.73487 1.51309.78546 1.65906-1.65906-.78835-1.50804.73704-1.77684 1.6251-.51376v-2.34696l-1.62367-.50869-.73555-1.77685.78543-1.513103-1.65906-1.659772-1.50732.789061-1.77682-.737037-.51447-1.625103z" style="fill:#fff;fill-opacity:.979155;stroke:#000;stroke-linecap:round;stroke-linejoin:round;stroke-miterlimit:10;stroke-width:.529166"/><circle cx="184.24292" cy="103.29883" fill="#006ad8" r="3.050102"/><circle cx="196.40837" cy="110.20657" fill="#fff" r="2.493111"/></g><circle cx="281.37659" cy="142.72365" fill="#fff" opacity=".8" r="30.359264"/><g fill-opacity=".983121"><path d="m265.98834 134.65655c-.71294 0-1.28752.57458-1.28752 1.28756v8.10784c0 .10424.0126.20569.0363.30271v2.03208c0 .40752.32833.73586.73586.73586.40747 0 .73506-.32834.73506-.73586v10.43872c0 .76792.61844 1.38636 1.38634 1.38636.55759 0 1.03635-.32605 1.25677-.79861.14063-.30122.12968-.85936.12968-1.19442v-7.88921a.60667218.60667218 0 0 1 .60667-.60669h.10508a.60667218.60667218 0 0 1 .60668.60669v8.49588c0 .76792.61844 1.38636 1.38632 1.38636.76792 0 1.38559-.61844 1.38559-1.38636v-10.43872c0 .40752.32836.73586.73582.73586.40752 0 .73507-.32834.73507-.73586v-10.44263c0-.71298-.57376-1.28756-1.28673-1.28756z"/><circle cx="269.6214" cy="130.69197" r="2.780335"/><path d="m273.87755 134.65655c-.71295 0-1.28753.57458-1.28753 1.28756v8.10784c0 .10424.0126.20569.0363.30271v2.03208c0 .40752.32833.73586.73586.73586.40746 0 .73505-.32834.73505-.73586v10.43872c0 .76792.61844 1.38636 1.38635 1.38636.55758 0 1.03634-.32605 1.25678-.79861.14062-.30122.12968-.85936.12968-1.19442v-7.88921a.60667218.60667218 0 0 1 .60667-.60669h.10508a.60667218.60667218 0 0 1 .60668.60669v8.49588c0 .76792.61843 1.38636 1.3863 1.38636.76792 0 1.38559-.61844 1.38559-1.38636v-10.43872c0 .40752.32836.73586.73583.73586.40752 0 .73506-.32834.73506-.73586v-10.44263c0-.71298-.57375-1.28756-1.28672-1.28756z"/><circle cx="277.51062" cy="130.69197" r="2.780335"/></g><path d="m281.36396 134.65655c-.71295 0-1.28753.57458-1.28753 1.28756v8.10784c0 .10424.0126.20569.0363.30271v2.03208c0 .40752.32833.73586.73587.73586.40746 0 .73505-.32834.73505-.73586v10.43872c0 .76792.61843 1.38636 1.38635 1.38636.55758 0 1.03634-.32605 1.25676-.79861.14064-.30122.12968-.85936.12968-1.19442v-7.88921a.60667218.60667218 0 0 1 .60668-.60669h.10508a.60667218.60667218 0 0 1 .60667.60669v8.49588c0 .76792.61844 1.38636 1.38631 1.38636.76793 0 1.38559-.61844 1.38559-1.38636v-10.43872c0 .40752.32837.73586.73582.73586.40752 0 .73508-.32834.73508-.73586v-10.44263c0-.71298-.57375-1.28756-1.28673-1.28756z" fill="#006ad8"/><circle cx="284.99707" cy="130.69197" fill="#006ad8" r="2.780335"/><path d="m289.29543 134.65655c-.71294 0-1.28752.57458-1.28752 1.28756v8.10784c0 .10424.0126.20569.0363.30271v2.03208c0 .40752.32833.73586.73586.73586.40747 0 .73506-.32834.73506-.73586v10.43872c0 .76792.61844 1.38636 1.38634 1.38636.55759 0 1.03635-.32605 1.25677-.79861.14063-.30122.12968-.85936.12968-1.19442v-7.88921a.60667218.60667218 0 0 1 .60667-.60669h.10509a.60667218.60667218 0 0 1 .60667.60669v8.49588c0 .76792.61844 1.38636 1.3863 1.38636.76794 0 1.38561-.61844 1.38561-1.38636v-10.43872c0 .40752.32836.73586.73582.73586.40751 0 .73507-.32834.73507-.73586v-10.44263c0-.71298-.57375-1.28756-1.28673-1.28756z" fill-opacity=".983121"/><circle cx="292.92853" cy="130.69197" fill-opacity=".983121" r="2.780335"/><circle cx="410.5098" cy="23.617611" fill="#fff" opacity=".8" r="17.277754"/><path d="m407.9492 15.926563c-.6518 0-1.17708.525278-1.17708 1.177102v7.412292c0 .09544.0112.188032.0333.276752v1.857768c0 .372529.30019.672729.67274.672729.37252 0 .67201-.3002.67201-.672729v9.543193c0 .702032.56536 1.267415 1.26741 1.267415.50974 0 .94744-.298063 1.14896-.730078.12842-.275397.1185-.785653.1185-1.091959v-7.212424a.5546277.5546277 0 0 1 .5546-.554636h.096a.5546277.5546277 0 0 1 .55462.554636v7.767046c0 .702032.56537 1.267415 1.26738 1.267415.70204 0 1.26672-.565383 1.26672-1.267415v-9.543193c0 .372529.30019.672729.6727.672729.37256 0 .672-.3002.672-.672729v-9.546812c0-.651824-.52453-1.177102-1.17633-1.177102z" fill="#006ad8"/><circle cx="411.2706" cy="12.302094" fill="#006ad8" r="2.541819"/><circle cx="453.60312" cy="185.08032" fill="#fff" opacity=".8" r="33.3442"/><g style="fill:#ff0606;fill-opacity:.393328;stroke:#000;stroke-linecap:round;stroke-linejoin:round;stroke-miterlimit:10;stroke-width:.529166"><path d="m453.79698 183.44551v-13.36114"/><path d="m454.87941 183.86909 9.44775-9.44775"/><path d="m455.34533 184.934h13.36114"/><path d="m454.92175 186.01645 9.44777 9.44775"/><path d="m453.85684 186.48233.00002 13.36117"/><path d="m452.77442 186.05881-9.44777 9.44776"/><path d="m452.08471 185.11029-13.36116.00001"/><path d="m452.50824 184.02783-9.44776-9.44776"/></g><circle cx="453.82687" cy="184.96394" r="5.104407"/><circle cx="453.74023" cy="169.28975" r="2.902416"/><circle cx="451.60666" cy="-205.78902" r="2.902416" transform="matrix(.70710678 .70710678 -.70710678 .70710678 0 0)"/><circle cx="184.87726" cy="-469.50113" r="2.902416" transform="rotate(90)"/><circle cx="-190.20151" cy="-467.36755" r="2.902416" style="fill:#006ad8;stroke:#000;stroke-linecap:round;stroke-linejoin:round;stroke-miterlimit:10;stroke-width:.529166" transform="matrix(-.70710678 .70710678 -.70710678 -.70710678 0 0)"/><circle cx="-453.91357" cy="-200.63817" r="2.902416" transform="scale(-1)"/><circle cx="-451.78003" cy="174.4406" r="2.902416" transform="matrix(-.70710678 -.70710678 .70710678 -.70710678 0 0)"/><circle cx="-185.16698" cy="437.92889" r="2.902416" transform="rotate(-90)"/><g stroke="#000" stroke-linejoin="round" stroke-miterlimit="10"><g stroke-width=".529166"><circle cx="189.78763" cy="435.94318" fill="#fff" r="2.902416" stroke-linecap="round" transform="matrix(.70710678 -.70710678 .70710678 .70710678 0 0)"/><g fill="none" stroke-dasharray="3.175 3.175" stroke-linecap="square"><circle cx="189.78763" cy="435.94315" r="7.443194" transform="matrix(.70710678 -.70710678 .70710678 .70710678 0 0)"/><circle cx="-190.20148" cy="-467.36752" r="7.493825" transform="matrix(-.70710678 .70710678 -.70710678 -.70710678 0 0)"/></g></g><path d="m402.49109 89.761419 24.48044-5.908247" fill="#fff" fill-opacity=".385592" stroke-width=".8509"/></g></svg>