<?xml version="1.0" encoding="UTF-8" standalone="no"?>
<svg
   height="1080"
   viewBox="0 0 508 285.75"
   width="1920"
   version="1.1"
   id="svg114"
   sodipodi:docname="8.svg"
   inkscape:version="1.1 (c4e8f9ed74, 2021-05-24)"
   xmlns:inkscape="http://www.inkscape.org/namespaces/inkscape"
   xmlns:sodipodi="http://sodipodi.sourceforge.net/DTD/sodipodi-0.dtd"
   xmlns="http://www.w3.org/2000/svg"
   xmlns:svg="http://www.w3.org/2000/svg">
  <defs
     id="defs118" />
  <sodipodi:namedview
     id="namedview116"
     pagecolor="#ffffff"
     bordercolor="#666666"
     borderopacity="1.0"
     inkscape:pageshadow="2"
     inkscape:pageopacity="0.0"
     inkscape:pagecheckerboard="0"
     showgrid="false"
     inkscape:zoom="0.69722222"
     inkscape:cx="1110.8367"
     inkscape:cy="572.98805"
     inkscape:window-width="1920"
     inkscape:window-height="1016"
     inkscape:window-x="0"
     inkscape:window-y="32"
     inkscape:window-maximized="1"
     inkscape:current-layer="svg114" />
  <text
     stroke-width=".365035"
     transform="scale(.26458333)"
     x="254.25549"
     y="440.84052"
     id="text2" />
  <text
     stroke-width=".365035"
     transform="scale(.26458333)"
     id="text4" />
  <g
     stroke-width="0.052993"
     id="g24"
     transform="translate(0,-4.9035272)">
    <path
       d="M 458.24576,133.97128 H 297.83325 V 68.297809 H 458.24576 Z M 298.3214,133.48355 H 457.75762 V 68.785545 H 298.3214 Z"
       fill="#3f3d56"
       id="path6" />
    <path
       d="m 320.49,93.327737 h -10.08103 a 35.258666,35.229353 0 0 1 0,-12.009706 H 320.49 a 21.627437,21.609457 0 0 0 0,12.009706 z"
       fill="#ff6584"
       id="path8" />
    <g
       fill="#333333"
       id="g16">
      <path
         d="m 329.21746,98.443541 h 10.08104 a 35.258559,35.229246 0 0 0 0,-12.009707 h -10.08104 a 21.627444,21.609464 0 0 1 0,12.009707 z"
         id="path10" />
      <path
         d="m 394.27281,100.89915 h 13.69874 a 0.36632663,0.36602208 0 0 0 0,-0.7316 h -13.69874 a 0.36632663,0.36602208 0 0 0 0,0.7316 z"
         id="path12" />
      <path
         d="m 407.61551,97.448041 2.14026,1.95192 c 0.24477,0.22324 0.91804,0.684109 1.07012,0.975969 0.31446,0.60345 -0.0234,0.46578 -0.56224,0.67489 a 12.047345,12.03733 0 0 0 -3.60339,2.23567 c -0.35423,0.3119 0.16527,0.82769 0.51776,0.51733 a 11.186415,11.177116 0 0 1 3.28029,-2.04752 c 0.43176,-0.17066 1.25091,-0.2706 1.45606,-0.78448 0.25107,-0.62894 -0.54857,-1.093019 -0.92743,-1.438539 l -2.85368,-2.60258 c -0.34744,-0.31687 -0.8667,0.19908 -0.51776,0.51732 z"
         id="path14" />
    </g>
    <g
       fill="#158ddc"
       id="g22">
      <path
         d="m 317.50204,115.7582 h 10.08104 a 35.258559,35.229246 0 0 0 0,-12.00971 h -10.08104 a 21.627444,21.609464 0 0 1 0,12.00971 z"
         id="path18" />
      <path
         d="m 395.84893,92.346833 h 10.08104 a 35.258559,35.229246 0 0 0 0,-12.009709 h -10.08104 a 21.627444,21.609464 0 0 1 0,12.009709 z"
         id="path20" />
    </g>
  </g>
  <g
     fill="#3f3d56"
     id="g74"
     transform="translate(0,-4.9035272)">
    <g
       stroke-width="0.052993"
       id="g44">
      <path
         d="M 383.94782,117.23834 H 359.54069 V 77.975524 h 24.40713 z m -23.91899,-0.48774 h 23.43085 V 78.463261 h -23.43085 z"
         id="path26" />
      <path
         d="m 361.73734,80.414207 h 3.9532 v 0.487737 h -3.9532 z"
         id="path28" />
      <path
         d="m 361.73734,81.633553 h 3.9532 v 0.487737 h -3.9532 z"
         id="path30" />
      <path
         d="m 361.73734,82.852898 h 3.9532 v 0.487737 h -3.9532 z"
         id="path32" />
      <path
         d="m 363.68988,103.82558 h 16.88895 v 0.48774 h -16.88895 z"
         id="path34" />
      <path
         d="m 363.68988,106.50813 h 16.88895 v 0.48774 h -16.88895 z"
         id="path36" />
      <path
         d="m 363.68988,109.19068 h 16.88895 v 0.48774 h -16.88895 z"
         id="path38" />
      <path
         d="m 380.28675,83.584498 a 1.7084992,1.7070788 0 1 1 1.7085,-1.707079 1.7104176,1.7089956 0 0 1 -1.7085,1.707079 z m 0,-2.926421 a 1.2203565,1.219342 0 1 0 1.22036,1.219342 1.2217551,1.2207394 0 0 0 -1.22036,-1.219342 z"
         id="path40" />
      <path
         d="M 380.77489,98.216601 H 363.44583 V 86.998655 h 17.32906 z m -16.84092,-0.48774 h 16.35278 v -10.24247 h -16.35278 z"
         id="path42" />
    </g>
    <path
       d="m 121.60831,353.50967 h 0.4879 v 19.9689 h -0.4879 z"
       stroke-width="0.152715"
       transform="matrix(0.53798582,-0.84295389,0.84335933,0.53735001,0,0)"
       id="path46" />
    <g
       stroke-width="0.052993"
       id="g72">
      <path
         d="m 253.86952,277.80774 h 19.96882 v 0.4879 h -19.96882 z"
         transform="matrix(0.8433662,-0.53733923,0.53797503,0.84296078,0,0)"
         id="path48" />
      <path
         d="M 446.18599,116.7506 H 421.77886 V 77.487788 h 24.40713 z M 422.267,116.26286 h 23.43085 V 77.975524 H 422.267 Z"
         id="path50" />
      <path
         d="m 423.97552,79.926476 h 3.95317 v 0.487737 h -3.95317 z"
         id="path52" />
      <path
         d="m 423.97552,81.145813 h 3.95317 v 0.487737 h -3.95317 z"
         id="path54" />
      <path
         d="m 423.97552,82.365158 h 3.95317 v 0.487737 h -3.95317 z"
         id="path56" />
      <path
         d="m 442.52492,83.096761 a 1.7084992,1.7070788 0 1 1 1.7085,-1.707079 1.7104176,1.7089956 0 0 1 -1.7085,1.707079 z m 0,-2.926421 a 1.2203565,1.219342 0 1 0 1.22036,1.219342 1.2217551,1.2207394 0 0 0 -1.22036,-1.219342 z"
         id="path58" />
      <path
         d="M 443.01306,97.728861 H 425.684 V 86.510918 h 17.32906 z m -16.84092,-0.48773 h 16.35278 V 86.998655 h -16.35278 z"
         id="path60" />
      <path
         d="m 155.46217,405.71106 h 0.48788 v 19.96882 h -0.48788 z"
         transform="matrix(0.53798386,-0.84295514,0.84336059,0.53734804,0,0)"
         id="path62" />
      <path
         d="m 306.6283,310.80688 h 19.96883 v 0.48788 H 306.6283 Z"
         transform="matrix(0.84342142,-0.53725255,0.53788835,0.84301609,0,0)"
         id="path64" />
      <path
         d="M 443.01306,112.36097 H 425.684 v -11.21795 h 17.32906 z m -16.84092,-0.48774 h 16.35278 v -10.24247 h -16.35278 z"
         id="path66" />
      <path
         d="m 143.12202,413.58289 h 0.48788 v 19.96882 h -0.48788 z"
         transform="matrix(0.53798386,-0.84295514,0.84336059,0.53734804,0,0)"
         id="path68" />
      <path
         d="m 298.75784,323.14792 h 19.96883 v 0.48788 h -19.96883 z"
         transform="matrix(0.84342142,-0.53725255,0.53788835,0.84301609,0,0)"
         id="path70" />
    </g>
  </g>
  <g
     stroke-width=".052993"
     id="g88">
    <path
       d="m368.0248 124.78133h10.08104a35.258559 35.229246 0 0 0 0-12.00971h-10.08104a21.627444 21.609464 0 0 1 0 12.00971z"
       fill="#158ddc"
       id="path76" />
    <ellipse
       cx="315.90005"
       cy="349.13873"
       fill="#ffb8b8"
       rx="7.141522"
       ry="7.138317"
       transform="matrix(.87762206 -.47935323 .47996754 .87728625 0 0)"
       id="ellipse78" />
    <g
       fill="#2f2e41"
       id="g86">
      <ellipse
         cx="456.01443"
         cy="146.00523"
         rx="6.319097"
         ry="6.313843"
         id="ellipse80" />
      <path
         d="m461.46497 151.23351a6.3194285 6.3141748 0 0 1 -9.75835-3.3153 6.3194455 6.3141918 0 1 0 12.32686-2.58926 6.3171122 6.3118605 0 0 1 -2.56851 5.90456z"
         id="path82" />
      <path
         d="m436.52703 151.24052c1.10315-1.97331 1.52526-2.79762 2.94765-3.99757 1.25782-1.06123 2.80497-1.37289 4.05288-.36734a7.4733561 7.4671431 0 1 1 -4.50922 6.85414 7.5352428 7.5289784 0 0 1 .0509-.84432c-1.08474-.15221-1.4575-1.49269-2.54223-1.64491z"
         id="path84" />
    </g>
  </g>
  <path
     d="m701.163 593.819 8.626-53.481 19.756 5.739-14.997 51.63z"
     fill="#ffb8b8"
     stroke-width=".21721"
     transform="matrix(.24407131 0 0 .2438684 253.11746 106.53014)"
     id="path90" />
  <path
     d="m421.71074 249.59518 6.77871 1.96737-1.15234 3.96386-10.26795-2.98005.13882-.47752a3.6334554 3.6304347 0 0 1 4.50276-2.47366z"
     fill="#2f2e41"
     stroke-width=".052993"
     id="path92" />
  <path
     d="m838.941 598.026-6.631-53.765 20.572.001-.002 53.765z"
     fill="#ffb8b8"
     stroke-width=".21721"
     transform="matrix(.24407131 0 0 .2438684 253.11746 106.53014)"
     id="path94" />
  <g
     stroke-width=".052993"
     id="g112">
    <path
       d="m454.95109 251.39847h7.05888v4.1277h-10.69233v-.49726a3.6334554 3.6304347 0 0 1 3.63345-3.63044z"
       fill="#2f2e41"
       id="path96" />
    <path
       d="m453.27614 206.7278a2.790499 2.7881791 0 0 1 .78305-4.20313l-1.76648-9.74975 4.73848 2.02352.95102 8.94831a2.8056168 2.8032843 0 0 1 -4.70607 2.98104z"
       fill="#ffb8b8"
       id="path98" />
    <path
       d="m455.81656 183.38423-5.55935-16.863c-.11599-.19339-1.49973-2.3695-4.513-1.4438a2.5198337 2.5177388 0 0 0 -1.55649 1.26816c-.88205 1.68958-.0593 4.29973-.0557 4.31355l6.84445 15.32489.007.0158 2.16038 15.73821 4.66551-.94642z"
       fill="#158ddc"
       id="path100" />
    <path
       d="m418.86535 245.76798 8.36767-25.63738 9.70196-22.15773-.13968-10.74652 11.51316-2.68243 1.34072 4.5037c7.75406 5.11219 5.19965 14.94623 5.01737 15.60532l11.68349 43.08171-12.73932 1.41427-8.55104-40.79044-7.88626 16.57448-5.57605 24.79288z"
       fill="#2f2e41"
       id="path102" />
    <path
       d="m435.96524 178.20512c-2.28909-4.38415-.6341-6.0536 1.86852-8.57873a34.447234 34.418596 0 0 0 2.87353-3.17387c3.9044-5.01549 8.43584-2.55228 8.48118-2.52668l.0255.0143 1.11959 1.67791c3.68949 3.71006-1.9055 13.90478-2.33042 14.66401l.28063 7.28986-11.89823 1.13218z"
       fill="#158ddc"
       id="path104" />
    <path
       d="m440.49842 206.34842a2.7905039 2.788184 0 0 1 1.8219-3.86842l.75986-9.87909 4.0719 3.15558-1.34584 8.89757a2.8056168 2.8032843 0 0 1 -5.30782 1.69436z"
       fill="#ffb8b8"
       id="path106" />
    <path
       d="m441.3607 201.71676 1.92209-15.99589-2.73979-16.55257c-.006-.1161-.14262-2.86117 1.20713-4.34903a2.755858 2.7535669 0 0 1 1.99789-.91379c3.42325-.1498 4.24175 2.69982 4.24959 2.72852l1.11485 17.78226-2.51508 17.59128z"
       fill="#158ddc"
       id="path108" />
    <path
       d="m397.83143 255.75206h92.99117a.24407291.24387 0 0 0 0-.48774h-92.99117a.24407291.24387 0 0 0 0 .48774z"
       fill="#4d4d4d"
       id="path110" />
  </g>
</svg>
