<svg width="1920" height="1080" version="1.1" viewBox="0 0 508 285.75" xmlns="http://www.w3.org/2000/svg"><text transform="scale(.26458333)" x="254.25549" y="440.84052" stroke-width=".365035"/><text transform="scale(.26458333)" stroke-width=".365035"/><path d="m487.80916 261.23232c0.0598 6.42475-39.42675 7.01347-40.1789 5.4e-4 -0.0598-6.42432 39.42675-7.01305 40.1789-5.4e-4z" fill="#e6e6e6" stroke-width=".443358"/><g transform="matrix(.26433571 0 0 .27102352 291.97868 101.36559)" stroke-width="1.17562"><path d="m619.929 536.837 11.101 1.009 6.056-13.12-13.12-17.157-11.102 6.055z" fill="#9f616a"/><path d="m675.437 564.086-0.239-9.143-16.918-0.949v11.101z" fill="#9f616a"/><path d="m665.345 469.217 4.037-80.739-49.453-14.13 6.055 75.694 19.176 111.016 30.277-4.037z" fill="#2f2e41"/></g><g transform="matrix(1.1959778,0,0,1.1959778,-97.678156,-58.25495)"><path d="m480.6682 205.48896-16.06059 0.2287-1.78452 12.5789 10.93013 5.26028 2.67676 10.06312-13.60688 14.86596 5.35354 6.86123s7.58416-10.52054 13.16076-16.46693c5.57659-5.94639 2.89983-24.01427 2.89983-24.01427z" fill="#2f2e41" stroke-width=".263103"/><g fill="#9f616a" stroke-width=".370708"><ellipse cx="471.07645" cy="167.98093" rx="4.907402" ry="5.0315609"/><path d="m469.29195 171.41154v5.03155l3.34596 5.48898s5.13047-3.88802 4.01515-4.80286c-1.11532-0.91483-1.33838-8.00475-1.33838-8.00475z"/></g></g><path d="m471.35874 150.48779-3.2389 5.01448-4.53521-3.82929-4.00177 4.92341 1.60081 34.19097 12.5385-0.27346 2.13424-29.81448-2.66767-7.65885z" fill="#d0cde1" stroke-width=".44336"/><g transform="matrix(1.1959778,0,0,1.1959778,-97.678156,-58.25495)" fill="#2f2e41"><path d="m463.93841 190.39426-2.4537 9.60572 2.4537 9.6057-4.01515 5.48898-3.56901-17.38176s2.67678-14.17985 2.89983-15.78081 0.66919-1.82967 0.66919-1.82967l1.78452 0.22871z" stroke-width=".370708"/><path transform="matrix(.22102058 0 0 .2266125 325.80608 133.46447)" d="m705.714 267.368 7.065 13.121 2.019 22.203-4.037 25.231 14.129 23.213 14.129-63.583-15.138-81.749h-6.056z" stroke-width="1.65644"/><g stroke-width=".370708"><path d="m462.8231 248.25723s-3.12288 0.91483-4.23821 1.14353 0.66919 4.57415 0.66919 4.57415 1.11531 5.94639 1.33838 7.08992c0.22307 1.14354 1.78452 5.03158 3.79209 5.48898 2.00756 0.4574 0.66919-8.00476 0.66919-8.00476s0.89226-2.74448 0.89226-3.65931-1.33839-0.45742-1.33839-0.45742c-3.56901-0.45741-1.78451-6.17509-1.78451-6.17509z"/><path d="m470.18422 265.86768c0.22306 1.37225-0.22307 1.37225 3.34595 1.82967 3.56903 0.45742 2.67677-2.51578 2.67677-2.51578a18.742656 19.216853 0 0 0-0.89226-4.11673c-0.66919-1.82967-4.23821 0.45741-4.23821 0.45741s-1.11532 2.97318-0.89225 4.34543z"/><path d="m475.32049 169.28419 0.11625 2.03399s1.43938-3.33726 1.66244-6.76787c0.22307-3.4306-3.56902-4.11673-5.79965-4.34543-2.23063-0.22871-6.02272 1.37224-6.02272 3.2019s4.01515 1.37225 5.5766 0.91484c1.56145-0.45742 2.23063 3.43061 2.23063 3.43061l0.89226 0.22871z"/></g></g><path d="m468.11984 155.50227-4.53521 3.28237-1.57464-5.17466 1.57464-1.937z" fill="#d0cde1" stroke-width=".44336"/><path d="m468.11984 155.50227 4.00178 3.0089 1.06712-5.4706-1.86753-2.46172z" fill="#d0cde1" stroke-width=".44336"/><path d="m456.38158 173.28176 1.06712 10.39409-2.13423 6.29118-1.3339 6.01763s1e-5 5.74412 5.33559 6.01764c5.33557 0.27354 9.87083-17.23232 9.87083-17.23232s0.80033 3.82941 1.33389 6.01764c0.53357 2.18823 9.60406 10.94116 9.60406 10.94116s2.13422-0.27353 4.00168-4.65c1.86745-4.37645-3.7349-8.47939-3.7349-8.47939l-1.60068-5.74411 0.53354-7.11175 3.73494-18.59996-11.07134-5.88089 1.2005 15.72792-4.00168 12.3088-6.00254-27.21613-2.00084 1.50441-8.53695 3.55589z" fill="#2f2e41" stroke-width=".314666"/><path d="m371.14637 238.52132c-0.5275-5e-3 -1.06109-8e-3 -1.58511-0.0246l0.0163-0.54178c0.51859 0.0164 1.04894 0.0238 1.56897 0.0244 0.52234 0 1.05462-8e-3 1.58265-0.0262l0.017 0.54151c-0.53384 0.0177-1.07194 0.0268-1.59983 0.0268zm-4.76308-0.22895c-1.05243-0.10213-2.11532-0.24058-3.15898-0.4113l0.0834-0.53516c1.03258 0.16886 2.0841 0.30597 3.12544 0.40707zm9.54049-6e-3 -0.0503-0.5394c1.04095-0.10213 2.09236-0.24059 3.12492-0.41104l0.0842 0.53517c-1.04379 0.1723-2.10655 0.31204-3.15875 0.41527zm-15.82645-1.02401c-1.0305-0.23953-2.06732-0.5169-3.08155-0.82418l0.14985-0.51982c1.00339 0.3041 2.02911 0.5783 3.04864 0.81518zm22.11127-0.0135-0.11745-0.52827c1.02186-0.23901 2.04731-0.51453 3.04773-0.81917l0.15051 0.51982c-1.01127 0.30781-2.04784 0.58625-3.08079 0.82762zm-28.21656-1.83655c-0.99434-0.37451-1.98922-0.78686-2.95699-1.22596l0.21399-0.49546c0.95733 0.43405 1.94149 0.84218 2.92526 1.21272zm34.31951-0.0211-0.18277-0.50872c0.97771-0.36921 1.95851-0.77708 2.91505-1.21218l0.21453 0.49546c-0.96714 0.43989-1.95852 0.85225-2.94683 1.22544zm-40.14922-2.62343c-0.93574-0.50076-1.87023-1.04069-2.7772-1.60443l0.27414-0.46371c0.89743 0.55819 1.82183 1.09204 2.74765 1.5875zm45.96072-0.0199-0.2447-0.48038c0.92362-0.4952 1.84596-1.02904 2.74093-1.58671l0.27465 0.46319c-0.90477 0.56374-1.83693 1.10314-2.77088 1.6039zm-51.4084-3.36796c-0.86669-0.62012-1.72566-1.27784-2.55325-1.95433l0.32964-0.42401c0.81882 0.66961 1.66876 1.32018 2.52616 1.9337zm56.84536-0.0194-0.30306-0.44412c0.85729-0.6143 1.70605-1.26487 2.5228-1.93369l0.32991 0.42347c-0.82553 0.67597-1.68333 1.33341-2.54965 1.95434zm-61.82475-4.05266c-0.78346-0.72916-1.55374-1.49327-2.28905-2.27061l0.37945-0.37742c0.72758 0.76914 1.48974 1.52506 2.26506 2.24678zm66.79808-0.0188-0.35572-0.40124c0.77339-0.72016 1.5349-1.4766 2.26363-2.2476l0.37947 0.37689c-0.73622 0.77946-1.50599 1.54384-2.28738 2.27195zm-71.23021-4.66669c-0.68602-0.82472-1.35486-1.68251-1.9882-2.54959l0.42322-0.325c0.62663 0.85805 1.28837 1.70686 1.96716 2.52258zm75.66016-0.0225-0.40219-0.35149c0.67865-0.8165 1.34052-1.66636 1.96703-2.52548l0.42335 0.32448c-0.63322 0.86839-1.30207 1.72724-1.98819 2.55249zm-79.47354-5.20133c-0.57838-0.90808-1.13493-1.84582-1.6543-2.78726l0.46027-0.26678c0.5137 0.93138 1.06444 1.85931 1.63673 2.75761zm83.28756-0.0294-0.44296-0.29589c0.57254-0.90016 1.12315-1.82968 1.63712-2.76318l0.46053 0.26626c-0.51938 0.9438-1.0762 1.88341-1.65469 2.79281zm-86.41817-5.64756c-0.46001-0.97557-0.89457-1.97815-1.29159-2.9802l0.48968-0.2038c0.39289 0.99092 0.82284 1.98292 1.27792 2.94792zm89.54967-0.0424-0.476-0.23556c0.45484-0.96658 0.8849-1.96121 1.27831-2.95691l0.48996 0.20327c-0.39756 1.00655-0.83226 2.01229-1.29227 2.9892zm-91.94481-6.0009c-0.33442-1.02957-0.63994-2.08269-0.90815-3.13027l0.51138-0.13762c0.26524 1.03619 0.56752 2.07821 0.89833 3.09639zm94.33855-0.0574-0.50183-0.17045c0.32886-1.01713 0.63012-2.0594 0.89471-3.09772l0.51163 0.13711c-0.26769 1.0497-0.57203 2.10308-0.90451 3.13106zm-95.95593-6.25577c-0.20201-1.06344-0.37288-2.1478-0.50802-3.22317l0.52428-0.0693c0.13371 1.06398 0.3028 2.1367 0.5026 3.18877zm97.56594-0.0596-0.51886-0.10274c0.19825-1.05181 0.3663-2.12505 0.49874-3.18982l0.52453 0.0688c-0.13397 1.07613-0.30383 2.16076-0.50441 3.22368zm-98.37961-6.41327c-0.0678-1.08039-0.10273-2.17851-0.10393-3.26393l0.52868-5.6e-4c8.5e-4 1.07404 0.0357 2.16053 0.10286 3.22953zm99.18605-0.0606-0.52764-0.0345c0.0658-1.06794 0.0991-2.15442 0.0991-3.22871l-2.6e-4 -0.11889h0.52867l2.6e-4 0.11697c0 1.08754-0.0339 2.18538-0.1001 3.26498zm-98.66576-6.43284-0.52764-0.0334c0.0655-1.0825 0.16586-2.17612 0.29814-3.25069l0.52455 0.0677c-0.13101 1.06344-0.23026 2.14541-0.29505 3.21627zm98.13089-0.17785c-0.0687-1.07139-0.17167-2.15311-0.30616-3.21497l0.52403-0.0699c0.13605 1.07325 0.24033 2.16634 0.30976 3.24937zm-97.34072-6.22824-0.51913-0.10238c0.19943-1.06384 0.43564-2.13536 0.70176-3.18479l0.51163 0.1363c-0.2633 1.03831-0.49692 2.09832-0.69426 3.15093zm96.52784-0.17482c-0.20136-1.05312-0.43884-2.11234-0.70524-3.1484l0.51111-0.13815c0.2695 1.04717 0.50932 2.11778 0.71298 3.18227zm-94.94222-6.07461-0.50209-0.16992c0.33185-1.02998 0.70124-2.06313 1.09814-3.07086l0.49021 0.20299c-0.39264 0.99691-0.75804 2.01893-1.08626 3.03779zm93.33555-0.16899c-0.33197-1.0174-0.70033-2.03651-1.09503-3.02917l0.48943-0.20459c0.39908 1.00338 0.77158 2.03347 1.10691 3.06173zm-90.97408-5.82781-0.47653-0.23502c0.45859-0.97744 0.95447-1.95276 1.47372-2.89869l0.46079 0.26599c-0.51383 0.93576-1.0043 1.90062-1.45798 2.86772zm88.59789-0.14782c-0.45535-0.96248-0.94764-1.92376-1.46391-2.85714l0.46001-0.26731c0.52169 0.94329 1.01939 1.91504 1.4794 2.88809zm-85.50588-5.48536-0.44323-0.29565c0.57655-0.90862 1.18977-1.81048 1.82246-2.68033l0.42387 0.32396c-0.62599 0.86072-1.23274 1.75293-1.8031 2.65202zm82.40201-0.12758c-0.57204-0.89579-1.18048-1.78522-1.80879-2.64355l0.42283-0.32527c0.63503 0.8676 1.25018 1.76655 1.82841 2.67186zm-78.63472-5.05218-0.4027-0.35096c0.68472-0.82591 1.40455-1.64004 2.13948-2.41962l0.38024 0.37662c-0.72718 0.77139-1.4394 1.57692-2.11702 2.39396zm74.8558-0.1117c-0.67969-0.8148-1.39421-1.61794-2.1232-2.38708l0.37895-0.37768c0.73698 0.7772 1.45901 1.58895 2.14592 2.41248zm-70.47786-4.5329-0.35597-0.40072c0.78229-0.73062 1.59697-1.44404 2.42122-2.12027l0.33041 0.4232c-0.81559 0.66909-1.62163 1.37497-2.39566 2.09779zm66.0869-0.0983c-0.77519-0.71951-1.58344-1.42328-2.40278-2.09158l0.3294-0.42426c0.82785 0.67557 1.64486 1.38675 2.42806 2.11406zm-61.17061-3.93619-0.30333-0.44385c0.86504-0.6216 1.7613-1.22254 2.6639-1.78628l0.27504 0.46291c-0.89291 0.5578-1.77975 1.15237-2.63561 1.76722zm56.23962-0.0862c-0.86064-0.61417-1.7502-1.20676-2.64413-1.76137l0.27363-0.4637c0.90349 0.56043 1.80285 1.15939 2.67252 1.78017zm-50.86463-3.27107-0.2455-0.48011c0.9346-0.50261 1.89799-0.98087 2.86304-1.42142l0.21503 0.4952c-0.95486 0.43579-1.90778 0.90902-2.83257 1.40633zm45.47103-0.0743c-0.9284-0.49546-1.88508-0.96645-2.84368-1.39998l0.21349-0.496c0.96878 0.43817 1.93592 0.91432 2.87438 1.41508zm-39.7247-2.54785-0.18354-0.50845c0.99125-0.37597 2.00769-0.72375 3.02115-1.03354l0.15101 0.51955c-1.00262 0.30635-2.00808 0.65044-2.98862 1.02244zm33.95436-0.0616c-0.98261-0.36856-1.98937-0.70892-2.99223-1.01144l0.14919-0.5201c1.01373 0.30584 2.03145 0.64992 3.02476 1.02258zm-27.91904-1.78335-0.11793-0.52829c1.02857-0.24164 2.08011-0.45218 3.12544-0.62621l0.0847 0.53517c-1.03424 0.17204-2.07455 0.38033-3.09214 0.61933zm21.87714-0.0395c-1.01939-0.23555-2.06048-0.44014-3.09433-0.60821l0.0829-0.53543c1.04495 0.16991 2.09725 0.37676 3.12761 0.61483zm-15.66047-0.99477-0.0511-0.5394c1.0496-0.1044 2.1187-0.17574 3.17746-0.21186l0.0176 0.54177c-1.04767 0.0357-2.1054 0.10633-3.1439 0.20949zm9.44018-0.0167c-1.04004-0.0996-2.09816-0.16633-3.14453-0.19823l0.0158-0.54178c1.05749 0.0323 2.12683 0.0996 3.17799 0.20036z" fill="#d0cde1" stroke-width=".314666"/><g transform="matrix(1.1959778,0,0,1.1959778,-92.160336,-58.25495)" fill="#158ddc" stroke-width=".370708"><ellipse cx="385.82156" cy="164.07205" rx="10.387967" ry="10.650787"/><ellipse cx="426.0473" cy="193.07845" rx="10.387967" ry="10.650787"/><ellipse cx="413.44913" cy="237.49451" rx="10.387967" ry="10.650787"/><ellipse cx="363.49847" cy="239.3074" rx="10.387967" ry="10.650787"/><ellipse cx="348.46909" cy="193.07845" rx="10.387967" ry="10.650787"/></g><g transform="matrix(1.1959778,0,0,1.1959778,-92.160336,-58.25495)" fill="#fff" stroke-width=".370708"><path d="m390.27312 163.2229h-3.62337a1.2422992 1.2737299 0 0 1-1.2423-1.27373v-3.71505a0.10352162 0.10614076 0 0 0-0.10352-0.10614h-2.38108a1.656399 1.6983066 0 0 0-1.65639 1.69831v8.49152a1.656399 1.6983066 0 0 0 1.65639 1.69831h5.79741a1.656399 1.6983066 0 0 0 1.6564-1.69831v-4.98877a0.10352383 0.10614303 0 0 0-0.10354-0.10614zm-2.38107 4.24576h-4.141a0.41409974 0.42457665 0 1 1 0-0.84915h4.141a0.41409974 0.42457665 0 0 1 0 0.84915zm0-2.12288h-4.141a0.41409974 0.42457665 0 1 1 0-0.84915h4.141a0.41409974 0.42457665 0 1 1 0 0.84915z"/><path d="m390.04588 162.28326-3.72198-3.81616a0.05176302 0.05307265 0 0 0-0.0883 0.0374v3.44464a0.41409974 0.42457665 0 0 0 0.4141 0.42458h3.35964a0.05176302 0.05307265 0 0 0 0.0365-0.0905z"/><path d="m414.95161 235.39636a0.55052027 0.56444868 0 1 0 0.38943 0.16517 0.55051585 0.56444415 0 0 0-0.38943-0.16517z"/><path d="m418.01649 233.13921v-2e-3a0.42077898 0.43142488 0 0 0-0.31208-0.32357c-0.61466-0.15374-1.58163 0.0102-2.65317 0.45004a8.5329681 8.748856 0 0 0-2.7759 1.80225 6.6148984 6.7822583 0 0 0-0.60951 0.71544 2.7034884 2.7718878 0 0 0-1.2081 0.19901c-1.19097 0.53737-1.5311 1.91264-1.62165 2.4773a0.51566312 0.52870962 0 0 0 0.56083 0.6133h3e-3l1.32669-0.14846c2e-3 0.0173 4e-3 0.0332 5e-3 0.0478a0.70871575 0.72664658 0 0 0 0.2042 0.43819l0.64746 0.66427a0.70686802 0.7247521 0 0 0 0.42717 0.20958l0.0444 5e-3 -0.14438 1.35857v3e-3a0.51565869 0.52870509 0 0 0 0.45988 0.58028q0.0238 3e-3 0.0477 3e-3a0.52094551 0.53412566 0 0 0 0.0856-7e-3c0.55382-0.0914 1.89454-0.43586 2.41721-1.66352a2.7277343 2.7967472 0 0 0 0.19492-1.23379 6.4931691 6.6574492 0 0 0 0.70026-0.62493 8.4715884 8.6859234 0 0 0 1.75964-2.82371c0.42676-1.08617 0.58744-2.085 0.4412-2.73933zm-2.20826 3.6984a1.2122117 1.2428812 0 1 1-8.9e-4 -1.7577l8.9e-4 9e-4a1.2025199 1.2329442 0 0 1 0.0129 1.7436z"/><path d="m411.50866 240.25305a0.33001025 0.33835966 0 0 0-0.22689 0.0565c-0.13181 0.0924-0.26423 0.18378-0.39789 0.27281a0.30776895 0.31555564 0 0 1-0.43315-0.42296l0.25061-0.44412a0.3300213 0.33837099 0 0 0-0.3127-0.5268 1.2633536 1.295317 0 0 0-0.73491 0.36925c-0.0755 0.0776-0.30507 0.3132-0.42862 1.21095a7.3823924 7.5691702 0 0 0-0.0664 0.77762 0.33001909 0.33836872 0 0 0 0.32146 0.34693q4e-3 1.1e-4 9e-3 1.1e-4h8e-3a7.4229762 7.6107808 0 0 0 0.75905-0.0677c0.876-0.12689 1.10578-0.36249 1.18127-0.43989a1.2476833 1.2792502 0 0 0 0.35869-0.75583 0.3300213 0.33837099 0 0 0-0.28732-0.37687z"/><path d="m359.92341 245.09505h-0.75264a0.56448656 0.57876832 0 0 1-0.56449-0.57876v-3.4726a0.56448656 0.57876832 0 0 1 0.56449-0.57876h0.75264a0.56448656 0.57876832 0 0 1 0.56449 0.57876v3.4726a0.56448656 0.57876832 0 0 1-0.56449 0.57876z"/><path d="m365.19192 245.09505h-0.75264a0.56448656 0.57876832 0 0 1-0.56449-0.57876v-5.78765a0.56448656 0.57876832 0 0 1 0.56449-0.57877h0.75264a0.56448656 0.57876832 0 0 1 0.56449 0.57877v5.78765a0.56448656 0.57876832 0 0 1-0.56449 0.57876z"/><path d="m367.82617 245.09505h-0.75264a0.56448656 0.57876832 0 0 1-0.56449-0.57876v-8.48855a0.56448656 0.57876832 0 0 1 0.56449-0.57877h0.75264a0.56448656 0.57876832 0 0 1 0.56449 0.57877v8.48855a0.56448656 0.57876832 0 0 1-0.56449 0.57876z"/><path d="m362.55767 245.09505h-0.75264a0.56448656 0.57876832 0 0 1-0.56448-0.57876v-10.41777a0.56448656 0.57876832 0 0 1 0.56448-0.57877h0.75265a0.56448656 0.57876832 0 0 1 0.56448 0.57877v10.41777a0.56448656 0.57876832 0 0 1-0.56449 0.57876z"/><path d="m426.54494 192.79952-0.53773-0.55154a0.65902148 0.67569502 0 0 0-0.92963-3e-3l-3.73852 3.53749a0.6981797 0.71584396 0 0 0-0.23375 0.48692 0.66129358 0.6780246 0 0 0 0.18967 0.50551l0.80319 0.83258 2e-3 2e-3a0.66500009 0.68182489 0 0 0 0.46729 0.19891h0.0243a0.69153803 0.70903425 0 0 0 0.47719-0.23586l3.47416-3.81568a0.6590259 0.67569956 0 0 0 4e-3 -0.95557z"/><path d="m430.86649 191.68482-6e-3 -7e-3 -0.70577-0.71625a0.44195938 0.45314115 0 0 0-0.31469-0.13218 0.45080684 0.46221245 0 0 0-0.2634 0.0874c0-9e-3 1e-3 -0.018 2e-3 -0.0258a0.75284693 0.7718943 0 0 0-0.10709-0.53254 5.3130938 5.4475175 0 0 0-0.51075-0.60687l-2e-3 -2e-3a5.5746606 5.7157021 0 0 0-1.78596-1.1812 2.8739461 2.9466582 0 0 0-1.09317-0.22066 2.08334 2.1360494 0 0 0-1.33349 0.4789 2.469684 2.5321681 0 0 0-0.29203 0.3425 0.32951295 0.33784978 0 0 0 0.38408 0.51396 1.5329766 1.5717616 0 0 1 0.17671-0.0555 1.3068792 1.3399438 0 0 1 0.37996-0.0243 1.5975102 1.637928 0 0 1 0.73502 0.2764 1.0585803 1.0853628 0 0 1 0.37606 0.86764 2.1966351 2.252211 0 0 1-0.41189 0.72806 0.32951074 0.33784751 0 0 0 0.0299 0.44343l0.70866 0.72659a0.32951295 0.33784978 0 0 0 0.45308 0.0131c0.20038-0.1835 0.50559-0.46011 0.61227-0.52789a0.76698562 0.7863907 0 0 1 0.30274-0.12247 0.39500135 0.40499506 0 0 1 0.23252 0.0503 0.02554114 0.02618734 0 0 1-6e-3 0.0201l-0.0375 0.0365-6e-3 6e-3a0.44319268 0.45440565 0 0 0-1e-3 0.64263l2e-3 2e-3 0.70557 0.71603a0.44174278 0.45291907 0 0 0 0.31468 0.13197 0.44688814 0.45819461 0 0 0 0.31345-0.13091l1.143-1.15756c4e-3 -4e-3 8e-3 -8e-3 0.0115-0.0125a0.45040237 0.46179775 0 0 0-6e-3 -0.62881z"/><path d="m350.11841 192.4443a0.41233378 0.42276601 0 0 1-0.29156-0.7217l0.94542-0.96937-0.94542-0.96936a0.412327 0.42275906 0 0 1 0.58312-0.59787l1.237 1.2683a0.41229179 0.42272296 0 0 1 0 0.59787l-1.237 1.26829a0.41105186 0.42145166 0 0 1-0.29156 0.12384z"/><path d="m343.52107 193.71259a0.41232052 0.42275242 0 0 1-0.41234-0.42276v-0.42277a2.4863158 2.5492207 0 0 1 2.47278-2.53659h5.36157a0.41233378 0.42276601 0 1 1 0 0.84553h-5.36034a1.6592015 1.70118 0 0 0-1.64934 1.69233v0.4215a0.41232052 0.42275242 0 0 1-0.41233 0.42276z"/><path d="m346.81974 197.09472a0.41105407 0.42145393 0 0 1-0.29156-0.12383l-1.237-1.2683a0.41228516 0.42271616 0 0 1 0-0.59787l1.237-1.26829a0.41232494 0.42275695 0 0 1 0.58312 0.59786l-0.94542 0.96937 0.94542 0.96936a0.41233378 0.42276601 0 0 1-0.29156 0.7217z"/><path d="m345.99507 195.82642a0.41233378 0.42276601 0 0 1 0-0.84553h5.36033a1.6592015 1.70118 0 0 0 1.64934-1.69233v-0.4215a0.412335 0.42276726 0 0 1 0.82467 0v0.42277a2.4863158 2.5492207 0 0 1-2.47278 2.5366z"/></g></svg>
