<svg height="1080" viewBox="0 0 508 285.75" width="1920" xmlns="http://www.w3.org/2000/svg"><text stroke-width=".365035" transform="scale(.26458333)" x="254.25549" y="440.84052"/><text stroke-width=".365035" transform="scale(.26458333)"/><path d="m489.54696 267.13477c.05 5.37197-32.96612 5.86422-33.59502.00046-.05-5.37161 32.96612-5.86387 33.59502-.00046z" fill="#e6e6e6" stroke-width=".443359"/><g stroke-width="1.98106" transform="matrix(.22102058 0 0 .2266125 325.80608 133.46447)"><path d="m619.929 536.837 11.101 1.009 6.056-13.12-13.12-17.157-11.102 6.055z" fill="#9f616a"/><path d="m675.437 564.086-.239-9.143-16.918-.949v11.101z" fill="#9f616a"/><path d="m665.345 469.217 4.037-80.739-49.453-14.13 6.055 75.694 19.176 111.016 30.277-4.037z" fill="#2f2e41"/></g><g stroke-width=".443359"><path d="m480.6682 205.48896-16.06059.2287-1.78452 12.5789 10.93013 5.26028 2.67676 10.06312-13.60688 14.86596 5.35354 6.86123s7.58416-10.52054 13.16076-16.46693c5.57659-5.94639 2.89983-24.01427 2.89983-24.01427z" fill="#2f2e41"/><g fill="#9f616a"><ellipse cx="471.07645" cy="167.98093" rx="4.907402" ry="5.031561"/><path d="m469.29195 171.41154v5.03155l3.34596 5.48898s5.13047-3.88802 4.01515-4.80286c-1.11532-.91483-1.33838-8.00475-1.33838-8.00475z"/></g></g><path d="m678.607 181.247-12.253 18.502-17.157-14.129-15.139 18.166 6.056 126.155 47.434-1.009 8.074-110.007-10.092-28.259z" fill="#d0cde1" stroke-width="1.98106" transform="matrix(.22102058 0 0 .2266125 325.80608 133.46447)"/><g fill="#2f2e41"><path d="m463.93841 190.39426-2.4537 9.60572 2.4537 9.6057-4.01515 5.48898-3.56901-17.38176s2.67678-14.17985 2.89983-15.78081.66919-1.82967.66919-1.82967l1.78452.22871z" stroke-width=".443359"/><path d="m705.714 267.368 7.065 13.121 2.019 22.203-4.037 25.231 14.129 23.213 14.129-63.583-15.138-81.749h-6.056z" stroke-width="1.98106" transform="matrix(.22102058 0 0 .2266125 325.80608 133.46447)"/><g stroke-width=".443359"><path d="m462.8231 248.25723s-3.12288.91483-4.23821 1.14353.66919 4.57415.66919 4.57415 1.11531 5.94639 1.33838 7.08992c.22307 1.14354 1.78452 5.03158 3.79209 5.48898 2.00756.4574.66919-8.00476.66919-8.00476s.89226-2.74448.89226-3.65931-1.33839-.45742-1.33839-.45742c-3.56901-.45741-1.78451-6.17509-1.78451-6.17509z"/><path d="m470.18422 265.86768c.22306 1.37225-.22307 1.37225 3.34595 1.82967 3.56903.45742 2.67677-2.51578 2.67677-2.51578a18.742656 19.216853 0 0 0 -.89226-4.11673c-.66919-1.82967-4.23821.45741-4.23821.45741s-1.11532 2.97318-.89225 4.34543z"/><path d="m475.32049 169.28419.11625 2.03399s1.43938-3.33726 1.66244-6.76787c.22307-3.4306-3.56902-4.11673-5.79965-4.34543-2.23063-.22871-6.02272 1.37224-6.02272 3.2019s4.01515 1.37225 5.5766.91484c1.56145-.45742 2.23063 3.43061 2.23063 3.43061l.89226.22871z"/></g></g><path d="m666.354 199.749-17.157 12.111-5.957-19.093 5.957-7.147z" fill="#d0cde1" stroke-width="1.98106" transform="matrix(.22102058 0 0 .2266125 325.80608 133.46447)"/><path d="m666.354 199.749 15.139 11.102 4.037-20.185-7.065-9.083z" fill="#d0cde1" stroke-width="1.98106" transform="matrix(.22102058 0 0 .2266125 325.80608 133.46447)"/><g stroke-width=".443359"><path d="m463.26923 193.59616.89226 8.69087-1.78451 5.26028-1.11532 5.03156s.00001 4.80286 4.46128 5.03156c4.46126.22871 8.25335-14.40856 8.25335-14.40856s.66919 3.2019 1.11532 5.03156 8.03029 9.1483 8.03029 9.1483 1.78451-.22871 3.34596-3.88803c1.56144-3.65931-3.12289-7.08992-3.12289-7.08992l-1.33839-4.80286.44612-5.94639 3.12291-15.5521-9.25714-4.91722 1.00378 13.15068-3.34595 10.29183-5.01894-22.75638-1.67297 1.25789-7.13805 2.9732z" fill="#2f2e41"/><path d="m387.38736 248.14529c-.44106-.004-.88721-.007-1.32536-.0206l.0136-.453c.43362.0137.87707.0199 1.31188.0204.43675 0 .88181-.007 1.32331-.0219l.0142.45278c-.44636.0148-.89628.0224-1.33767.0224zm-3.98257-.19143c-.87998-.0854-1.7687-.20116-2.64134-.3439l.0697-.44747c.86337.14119 1.74259.25583 2.61329.34037zm7.97714-.005-.0421-.45101c.87038-.0854 1.7495-.20116 2.61286-.34368l.0704.44747c-.87276.14407-1.76137.26091-2.64114.34722zm-13.23306-.85621c-.86164-.20028-1.72856-.4322-2.5766-.68913l.1253-.43464c.83897.25427 1.69661.48354 2.54907.68161zm18.48802-.0113-.0982-.44171c.85441-.19984 1.71183-.43021 2.54832-.68493l.12584.43464c-.84556.25737-1.71227.49018-2.57596.692zm-23.59287-1.53561c-.83141-.31314-1.66326-.65792-2.47245-1.02506l.17893-.41428c.80045.36293 1.62334.70418 2.44591 1.014zm28.69577-.0177-.15282-.42536c.8175-.30871 1.63758-.64974 2.43738-1.01355l.17937.41427c-.80866.36781-1.63759.7126-2.46394 1.02464zm-33.5702-2.19354c-.78241-.41871-1.56377-.87016-2.32212-1.34153l.22922-.38772c.75037.46672 1.5233.91309 2.29741 1.32736zm38.42941-.0166-.20461-.40167c.77227-.41405 1.54347-.86041 2.29179-1.3267l.22965.38729c-.75652.47136-1.53592.92238-2.31683 1.34108zm-42.98441-2.81607c-.72468-.51851-1.44289-1.06845-2.13487-1.63409l.27562-.35453c.68465.55989 1.39531 1.10385 2.11222 1.61683zm47.53044-.0162-.2534-.37134c.71681-.51364 1.42649-1.05761 2.10941-1.61683l.27584.35408c-.69025.5652-1.40749 1.11491-2.13185 1.63409zm-51.69389-3.38857c-.65508-.60968-1.29914-1.24858-1.91396-1.89854l.31728-.31557c.60835.6431 1.24562 1.27515 1.89389 1.87861zm55.85227-.0157-.29743-.33549c.64666-.60216 1.28339-1.23464 1.8927-1.8793l.31729.31513c-.61558.65173-1.25921 1.29086-1.91256 1.89966zm-59.55814-3.90199c-.5736-.68958-1.13284-1.40681-1.6624-2.1318l.35387-.27175c.52395.71745 1.07725 1.42717 1.64481 2.10922zm63.26218-.0188-.33628-.29389c.56744-.68271 1.12085-1.39331 1.6447-2.11165l.35398.27131c-.52946.72609-1.08871 1.44421-1.6624 2.13423zm-66.45068-4.34901c-.4836-.75929-.94895-1.54336-1.38322-2.33053l.38485-.22307c.42952.77876.89002 1.55464 1.36853 2.30574zm69.63972-.0246-.37038-.24741c.47873-.75265.93911-1.52986 1.36886-2.31039l.38506.22263c-.43427.78915-.89984 1.57478-1.38354 2.33517zm-72.25733-4.72213c-.38463-.81571-.74799-1.654-1.07995-2.49185l.40944-.17041c.32851.82855.688 1.65799 1.06852 2.46486zm74.87569-.0354-.398-.19697c.38031-.80819.7399-1.63984 1.06884-2.47237l.40967.16996c-.33241.84161-.69588 1.68255-1.08051 2.49938zm-76.87836-5.01757c-.27962-.86086-.53507-1.74142-.75933-2.61733l.42758-.11507c.22178.86639.47453 1.73766.75112 2.589zm78.87985-.048-.4196-.14252c.27498-.85046.52687-1.72194.7481-2.59011l.4278.11464c-.22383.87769-.4783 1.75846-.7563 2.61799zm-80.2322-5.23067c-.1689-.88919-.31178-1.79586-.42477-2.69501l.43837-.058c.1118.88963.25318 1.78657.42024 2.66624zm81.57839-.0498-.43384-.0859c.16577-.87945.30628-1.77683.41701-2.66712l.43859.0575c-.11203.8998-.25405 1.80669-.42176 2.69544zm-82.25872-5.36236c-.0567-.90335-.0859-1.82153-.0869-2.72909l.44205-.00046c.00088.89804.0299 1.80649.086 2.70032zm82.93301-.0507-.44118-.0288c.055-.89295.0829-1.80139.0829-2.69965l-.00022-.0994h.44204l.00022.0978c0 .90933-.0283 1.82728-.0837 2.72997zm-82.49798-5.37873-.44118-.0279c.0548-.90512.13868-1.81954.24929-2.71802l.43859.0566c-.10954.88918-.19253 1.79386-.2467 2.68924zm82.05076-.14871c-.0574-.89583-.14354-1.80029-.25599-2.68815l.43816-.0584c.11375.89738.20094 1.81135.259 2.71692zm-81.39007-5.20766-.43406-.0856c.16674-.88952.36425-1.78545.58676-2.66292l.4278.11397c-.22016.86817-.4155 1.75448-.5805 2.6346zm80.71039-.14617c-.16836-.88055-.36693-1.7662-.58968-2.63249l.42736-.11551c.22534.87557.42586 1.77075.59615 2.66081zm-79.3846-5.0792-.41981-.14208c.27747-.8612.58633-1.72505.91819-2.56765l.40988.16973c-.32829.83355-.63382 1.6881-.90826 2.54zm78.04121-.1413c-.27758-.85068-.58558-1.7028-.9156-2.53279l.40923-.17107c.33369.83896.64515 1.70026.92553 2.56002zm-76.0667-4.87284-.39844-.19651c.38344-.81727.79807-1.63277 1.23223-2.4237l.38528.22241c-.42963.78242-.83973 1.58917-1.21907 2.3978zm74.07988-.1236c-.38074-.80476-.79236-1.60852-1.22403-2.38895l.38463-.22351c.43621.78872.85235 1.60123 1.23698 2.41484zm-71.49454-4.58645-.3706-.2472c.48208-.75973.99481-1.51381 1.52383-2.24112l.35441.27088c-.52341.71967-1.03074 1.46568-1.50764 2.21744zm68.89928-.10667c-.4783-.749-.98704-1.49268-1.51239-2.21036l.35354-.27198c.53097.72543 1.04532 1.47708 1.5288 2.23404zm-65.74931-4.22431-.33671-.29345c.57252-.69057 1.17439-1.37129 1.78889-2.02313l.31793.31491c-.60802.64498-1.20353 1.31851-1.77011 2.00167zm62.58962-.0934c-.56831-.68128-1.16575-1.35282-1.77529-1.99592l.31686-.31579c.61622.64985 1.21993 1.32858 1.79428 2.01716zm-58.92907-3.79012-.29764-.33505c.6541-.6109 1.33529-1.20742 2.02447-1.77284l.27627.35386c-.68194.55945-1.3559 1.14966-2.0031 1.75403zm55.25763-.0822c-.64817-.60161-1.32397-1.19005-2.00905-1.74884l.27542-.35474c.6922.56487 1.37533 1.15951 2.03019 1.76764zm-51.14694-3.29119-.25362-.37112c.72328-.51973 1.47268-1.0222 2.22737-1.49357l.22998.38706c-.7466.46639-1.48812.96354-2.20373 1.47763zm47.02396-.0721c-.71961-.51353-1.4634-1.00902-2.21085-1.47275l.22879-.38772c.75545.4686 1.50743.96941 2.23459 1.48847zm-42.52974-2.73506-.20527-.40144c.78145-.42025 1.58697-.82014 2.39389-1.1885l.17979.41406c-.79839.36437-1.59516.76006-2.36841 1.17588zm38.01996-.0622c-.77627-.41427-1.57618-.80808-2.3777-1.17057l.1785-.41472c.81004.36637 1.6187.76449 2.40338 1.18319zm-33.21525-2.13035-.15346-.42513c.82882-.31436 1.6787-.60515 2.52609-.86418l.12626.43442c-.83832.25615-1.67902.54385-2.49889.85489zm28.39046-.0515c-.8216-.30816-1.66338-.59275-2.50191-.8457l.12475-.43487c.84761.25572 1.69856.54342 2.52911.85501zm-23.34411-1.49112-.0986-.44172c.86002-.20205 1.73925-.37809 2.61329-.5236l.0708.44747c-.86477.14385-1.73461.31801-2.58545.51785zm18.29226-.033c-.85235-.19695-1.72284-.36801-2.58728-.50855l.0693-.44769c.87372.14207 1.75359.31502 2.61511.51408zm-13.09428-.83176-.0427-.45101c.87761-.0873 1.77151-.14694 2.65678-.17715l.0147.453c-.87599.0299-1.7604.0889-2.62872.17516zm7.89328-.014c-.86962-.0833-1.75435-.13908-2.62926-.16575l.0132-.453c.8842.027 1.77831.0833 2.65722.16752z" fill="#d0cde1"/><g fill="#158ddc"><ellipse cx="385.82156" cy="164.07205" rx="10.387967" ry="10.650787"/><ellipse cx="426.0473" cy="193.07845" rx="10.387967" ry="10.650787"/><ellipse cx="413.44913" cy="237.49451" rx="10.387967" ry="10.650787"/><ellipse cx="363.49847" cy="239.3074" rx="10.387967" ry="10.650787"/><ellipse cx="348.46909" cy="193.07845" rx="10.387967" ry="10.650787"/></g><g fill="#fff"><path d="m390.27312 163.2229h-3.62337a1.2422992 1.2737299 0 0 1 -1.2423-1.27373v-3.71505a.10352162.10614076 0 0 0 -.10352-.10614h-2.38108a1.656399 1.6983066 0 0 0 -1.65639 1.69831v8.49152a1.656399 1.6983066 0 0 0 1.65639 1.69831h5.79741a1.656399 1.6983066 0 0 0 1.6564-1.69831v-4.98877a.10352383.10614303 0 0 0 -.10354-.10614zm-2.38107 4.24576h-4.141a.41409974.42457665 0 1 1 0-.84915h4.141a.41409974.42457665 0 0 1 0 .84915zm0-2.12288h-4.141a.41409974.42457665 0 1 1 0-.84915h4.141a.41409974.42457665 0 1 1 0 .84915z"/><path d="m390.04588 162.28326-3.72198-3.81616a.05176302.05307265 0 0 0 -.0883.0374v3.44464a.41409974.42457665 0 0 0 .4141.42458h3.35964a.05176302.05307265 0 0 0 .0365-.0905z"/><path d="m414.95161 235.39636a.55052027.56444868 0 1 0 .38943.16517.55051585.56444415 0 0 0 -.38943-.16517z"/><path d="m418.01649 233.13921v-.002a.42077898.43142488 0 0 0 -.31208-.32357c-.61466-.15374-1.58163.0102-2.65317.45004a8.5329681 8.748856 0 0 0 -2.7759 1.80225 6.6148984 6.7822583 0 0 0 -.60951.71544 2.7034884 2.7718878 0 0 0 -1.2081.19901c-1.19097.53737-1.5311 1.91264-1.62165 2.4773a.51566312.52870962 0 0 0 .56083.6133h.003l1.32669-.14846c.002.0173.004.0332.005.0478a.70871575.72664658 0 0 0 .2042.43819l.64746.66427a.70686802.7247521 0 0 0 .42717.20958l.0444.005-.14438 1.35857v.003a.51565869.52870509 0 0 0 .45988.58028q.0238.003.0477.003a.52094551.53412566 0 0 0 .0856-.007c.55382-.0914 1.89454-.43586 2.41721-1.66352a2.7277343 2.7967472 0 0 0 .19492-1.23379 6.4931691 6.6574492 0 0 0 .70026-.62493 8.4715884 8.6859234 0 0 0 1.75964-2.82371c.42676-1.08617.58744-2.085.4412-2.73933zm-2.20826 3.6984a1.2122117 1.2428812 0 1 1 -.00089-1.7577l.00089.0009a1.2025199 1.2329442 0 0 1 .0129 1.7436z"/><path d="m411.50866 240.25305a.33001025.33835966 0 0 0 -.22689.0565c-.13181.0924-.26423.18378-.39789.27281a.30776895.31555564 0 0 1 -.43315-.42296l.25061-.44412a.3300213.33837099 0 0 0 -.3127-.5268 1.2633536 1.295317 0 0 0 -.73491.36925c-.0755.0776-.30507.3132-.42862 1.21095a7.3823924 7.5691702 0 0 0 -.0664.77762.33001909.33836872 0 0 0 .32146.34693q.004.00011.009.00011h.008a7.4229762 7.6107808 0 0 0 .75905-.0677c.876-.12689 1.10578-.36249 1.18127-.43989a1.2476833 1.2792502 0 0 0 .35869-.75583.3300213.33837099 0 0 0 -.28732-.37687z"/><path d="m359.92341 245.09505h-.75264a.56448656.57876832 0 0 1 -.56449-.57876v-3.4726a.56448656.57876832 0 0 1 .56449-.57876h.75264a.56448656.57876832 0 0 1 .56449.57876v3.4726a.56448656.57876832 0 0 1 -.56449.57876z"/><path d="m365.19192 245.09505h-.75264a.56448656.57876832 0 0 1 -.56449-.57876v-5.78765a.56448656.57876832 0 0 1 .56449-.57877h.75264a.56448656.57876832 0 0 1 .56449.57877v5.78765a.56448656.57876832 0 0 1 -.56449.57876z"/><path d="m367.82617 245.09505h-.75264a.56448656.57876832 0 0 1 -.56449-.57876v-8.48855a.56448656.57876832 0 0 1 .56449-.57877h.75264a.56448656.57876832 0 0 1 .56449.57877v8.48855a.56448656.57876832 0 0 1 -.56449.57876z"/><path d="m362.55767 245.09505h-.75264a.56448656.57876832 0 0 1 -.56448-.57876v-10.41777a.56448656.57876832 0 0 1 .56448-.57877h.75265a.56448656.57876832 0 0 1 .56448.57877v10.41777a.56448656.57876832 0 0 1 -.56449.57876z"/><path d="m426.54494 192.79952-.53773-.55154a.65902148.67569502 0 0 0 -.92963-.003l-3.73852 3.53749a.6981797.71584396 0 0 0 -.23375.48692.66129358.6780246 0 0 0 .18967.50551l.80319.83258.002.002a.66500009.68182489 0 0 0 .46729.19891h.0243a.69153803.70903425 0 0 0 .47719-.23586l3.47416-3.81568a.6590259.67569956 0 0 0 .004-.95557z"/><path d="m430.86649 191.68482-.006-.007-.70577-.71625a.44195938.45314115 0 0 0 -.31469-.13218.45080684.46221245 0 0 0 -.2634.0874c0-.009.001-.018.002-.0258a.75284693.7718943 0 0 0 -.10709-.53254 5.3130938 5.4475175 0 0 0 -.51075-.60687l-.002-.002a5.5746606 5.7157021 0 0 0 -1.78596-1.1812 2.8739461 2.9466582 0 0 0 -1.09317-.22066 2.08334 2.1360494 0 0 0 -1.33349.4789 2.469684 2.5321681 0 0 0 -.29203.3425.32951295.33784978 0 0 0 .38408.51396 1.5329766 1.5717616 0 0 1 .17671-.0555 1.3068792 1.3399438 0 0 1 .37996-.0243 1.5975102 1.637928 0 0 1 .73502.2764 1.0585803 1.0853628 0 0 1 .37606.86764 2.1966351 2.252211 0 0 1 -.41189.72806.32951074.33784751 0 0 0 .0299.44343l.70866.72659a.32951295.33784978 0 0 0 .45308.0131c.20038-.1835.50559-.46011.61227-.52789a.76698562.7863907 0 0 1 .30274-.12247.39500135.40499506 0 0 1 .23252.0503.02554114.02618734 0 0 1 -.006.0201l-.0375.0365-.006.006a.44319268.45440565 0 0 0 -.001.64263l.002.002.70557.71603a.44174278.45291907 0 0 0 .31468.13197.44688814.45819461 0 0 0 .31345-.13091l1.143-1.15756c.004-.004.008-.008.0115-.0125a.45040237.46179775 0 0 0 -.006-.62881z"/><path d="m350.11841 192.4443a.41233378.42276601 0 0 1 -.29156-.7217l.94542-.96937-.94542-.96936a.412327.42275906 0 0 1 .58312-.59787l1.237 1.2683a.41229179.42272296 0 0 1 0 .59787l-1.237 1.26829a.41105186.42145166 0 0 1 -.29156.12384z"/><path d="m343.52107 193.71259a.41232052.42275242 0 0 1 -.41234-.42276v-.42277a2.4863158 2.5492207 0 0 1 2.47278-2.53659h5.36157a.41233378.42276601 0 1 1 0 .84553h-5.36034a1.6592015 1.70118 0 0 0 -1.64934 1.69233v.4215a.41232052.42275242 0 0 1 -.41233.42276z"/><path d="m346.81974 197.09472a.41105407.42145393 0 0 1 -.29156-.12383l-1.237-1.2683a.41228516.42271616 0 0 1 0-.59787l1.237-1.26829a.41232494.42275695 0 0 1 .58312.59786l-.94542.96937.94542.96936a.41233378.42276601 0 0 1 -.29156.7217z"/><path d="m345.99507 195.82642a.41233378.42276601 0 0 1 0-.84553h5.36033a1.6592015 1.70118 0 0 0 1.64934-1.69233v-.4215a.412335.42276726 0 0 1 .82467 0v.42277a2.4863158 2.5492207 0 0 1 -2.47278 2.5366z"/></g></g></svg>