<svg height="1080" viewBox="0 0 508 285.75" width="1920" xmlns="http://www.w3.org/2000/svg"><g transform="scale(.26458333)"><text stroke-width=".365035" x="254.25549" y="440.84052"/><text stroke-width=".365035"/><text/><text/><text/></g><text transform="matrix(.24793385 0 0 .26458333 .83653 -59.013308)"/><g stroke-width="1.76216" transform="matrix(.19931475 0 0 .19931475 163.42583 169.62174)"><ellipse cx="431.42523" cy="693.32501" fill="#666" rx="5.51263" ry="98.065697" transform="matrix(.001605 -.99999871 .99999871 .001605 -456.349339 922.47683)"/><g transform="translate(-193.75798 -201.16006)"><path d="m483.88959 426.72946 12.12534 3.22083a8.72834 8.72834 0 0 0 10.93221-7.63383 8.72835 8.72835 0 0 0 -10.48525-9.344l-12.91118 2.71134-41.43781-1.32609-12.38165-21.47947-13.72482 13.408 18.1617 23.32487z" fill="#a0616a"/><path d="m413.38518 408.02927 28.971-10.2572-10.16788-19.32269a16.42326 16.42326 0 0 0 -24.09275-5.7069 16.42325 16.42325 0 0 0 -3.678 23.07634z" fill="#575a88"/><g fill="#2f2e41"><path d="m444.39156 436.27472 8.01008 37.68171 43.43948 169.64881-32.87312 9.97934-38.15631-135.01458-41.09141 135.6016-36.98228-10.56636 36.39524-93.3362 4.10915-47.54862s-13.45228-38.8987 13.23254-66.998z"/><path d="m347.30225 692.90189 12.90723 1.06233 1.49927-15.43776c2.93482 11.26808 8.46555 17.113 16.40932 17.91679a10.06294 10.06294 0 0 0 9.609-5.04678q.24933-.42728.45485-.87357a6.31928 6.31928 0 0 0 -2.52071-7.83942c-8.61125-5.71253-7.6082-23.28724-5.88124-41.7552l-16.11462-.37657-2.1934 13.335c-11.52971 10.95864-14.47122 23.72335-14.1697 39.01518z"/><path d="m460.73408 695.04959 12.94177-.48556-.35372-15.50635c4.25854 10.83732 10.44725 15.98047 18.43017 15.83053a10.06292 10.06292 0 0 0 8.93808-6.15741q.19656-.454.34736-.92161a6.31928 6.31928 0 0 0 -3.43823-7.48258c-9.23142-4.64408-10.33283-22.2129-10.8221-40.755l-16.04441 1.54919-.58638 13.50149c-10.13956 12.25621-11.53677 25.28071-9.41254 40.4273z"/></g></g><circle cx="203.9957" cy="130.07146" fill="#a0616a" r="20.82128"/><g transform="translate(-193.75798 -201.16006)"><path d="m389.59049 412.90634 30.525-31.69908-14.67549-21.71975-.587-21.13272h-24.65484l2.2899 18.17643c-15.46706 17.58044-6.70014 36.80678 7.10243 56.37512z" fill="#a0616a"/><path d="m398.10228 437.8547 49.8967 5.28318c-5.02678-36.06288-15.84123-64.73094-33.16663-70.73592l-40.50435 9.39232z" fill="#575a88"/><path d="m400.54115 460.802 5.71606 11.168a8.72834 8.72834 0 0 0 12.98707 3.02065 8.72834 8.72834 0 0 0 -.0672-14.04444l-10.65151-7.7843-26.731-31.6908 7.68551-23.57129-19.14732-1.23443-5.19121 29.10238z" fill="#a0616a"/><path d="m367.28372 395.88276 27.00293 14.6755 7.563-20.483a16.42326 16.42326 0 0 0 -11.87268-21.72714 16.42327 16.42327 0 0 0 -19.61449 12.70107z" fill="#575a88"/><path d="m392.40188 333.83954c3.07851.9433 6.07527-1.7459 7.70846-4.52074s2.86988-6.0657 5.6685-7.6578c3.62638-2.063 8.718-.53223 11.93791-3.18528 3.05243-2.515 2.50925-7.69773-.2045-10.57493s-6.83284-3.92117-10.76107-4.38132c-8.85632-1.03743-18.23094.35107-25.66863 5.26955s-12.5734 13.70429-11.79413 22.58705c.335 3.8185 1.69255 7.46307 2.52905 11.20384s1.11081 7.8294-.61264 11.25327c-2.27275 4.51516-7.58806 6.82477-12.64033 6.98785s-9.973-1.43235-14.81054-2.89886-9.86985-2.83515-14.88555-2.20686a20.78038 20.78038 0 0 0 -16.35668 13.20416 23.6084 23.6084 0 0 0 2.701 21.09454c4.28708 6.37651 11.409 10.49416 18.8876 12.2577s15.31836 1.35505 22.89877.0996a104.9966 104.9966 0 0 0 28.83707-9.20691c5.54505-2.70566 11.15078-6.2205 13.79136-11.79683 2.6141-5.52041 1.78907-12.18234-.788-17.72011s-6.72575-10.169-10.87732-14.64924c-2.10745-2.2743-4.28023-4.60916-5.40309-7.49931s-.95289-6.51219 1.24736-8.69684 6.61081-1.90043 7.84778.94275" fill="#2f2e41"/></g><ellipse cx="239.28914" cy="657.27649" fill="#666" rx="45.531219" ry="3.47272" transform="matrix(.99999871 -.001605 .001605 .99999871 -194.812613 -200.775153)"/><ellipse cx="648.26562" cy="690.99878" fill="#666" rx="94.976509" ry="5.33898" transform="matrix(1 -.00161 .00161 1 -194.86621 -200.11869)"/><ellipse cx="911.26562" cy="690.99878" fill="#e6e6e6" rx="94.976509" ry="5.33898" transform="matrix(1 -.00161 .00161 1 -194.86588 -199.69657)"/><g transform="translate(-193.75798 -201.16006)"><path d="m677.88326 649.88941s-93.13562-46.56781-79.83053-177.40118 8.87006-117.52823 8.87006-117.52823 22.17515-73.178 62.09041-99.78817c0 0-95.35313-97.57064-170.74863 79.83053 0 0-19.95763 106.44071-4.435 177.40118s51.00284 128.61585 51.00284 128.61585 33.26272 33.26272 70.96047 33.26272 62.09038-24.3927 62.09038-24.3927z" fill="#ccc"/><path d="m832.00053 571.16764s-53.22035 141.92093-219.53395 115.31076-121.96331-314.88708-121.96331-314.88708-18.58427 215.04627 78.65341 278.28909c26.94269 17.52337 62.13359 17.68025 87.87025-1.57077 17.05364-12.75612 31.66671-35.00923 29.72639-73.81573z" fill="#e6e6e6"/><path d="m826.81469 301.15467s-75.75345-136.901-239.84953-90.33317c-101.71943 43.33856-99.82516 154.9285-99.82516 154.9285-12.2649 185.02011 119.74609 182.0321 150.828-15.22507 5.4574-34.63464-5.54381-54.32911-5.54381-54.32911s-15.5226 46.5678-63.19917 56.54662c-47.75062 9.99432-55.91482-5.90338-54.32911-29.93645q.0238-.3605.0484-.71625a90.65272 90.65272 0 0 1 21.53689-52.8241c27.33456-31.82651 86.91548-78.30286 150.27211 19.16887l4.435 10.96735s78.32895 21.12551 135.62639 1.75281z" fill="#e6e6e6"/><path d="m704.47178 297.30457a43.26849 43.26849 0 0 0 -43.21988 43.21988v203.38768a45.04666 45.04666 0 0 0 44.99563 44.99562h107.00807a54.28686 54.28686 0 0 0 54.22516-54.22516v-182.73059a54.709 54.709 0 0 0 -54.64744-54.64745z" fill="#3f3d56"/><path d="m723.02831 306.17463a22.99583 22.99583 0 0 0 -22.9699 22.9699v229.032a22.99513 22.99513 0 0 0 22.9699 22.9699h101.761a46.07069 46.07069 0 0 0 46.01769-46.01774v-188.41079a40.58946 40.58946 0 0 0 -40.54327-40.54327z" fill="#158ddc"/><path d="m719.27637 307.44784a22.925 22.925 0 0 0 -9.23915 18.37042v229.032a22.99514 22.99514 0 0 0 22.9699 22.9699h101.761a45.79058 45.79058 0 0 0 11.43677-1.49707 45.69239 45.69239 0 0 1 -22.52434 5.9321h-101.761a22.99514 22.99514 0 0 1 -22.9699-22.9699v-229.032a22.99465 22.99465 0 0 1 20.32672-22.80545z" opacity=".2"/></g><ellipse cx="475.25522" cy="188.17137" fill="#158ddc" rx="22.17515" ry="27.718929"/><g transform="translate(-193.75798 -201.16006)"><path d="m684.5358 389.33143c0-13.41-7.61851-24.59365-17.74011-27.16225a17.99387 17.99387 0 0 1 4.435-.55668c12.24695 0 22.17514 12.41018 22.17514 27.71893s-9.92819 27.71894-22.17514 27.71894a17.99434 17.99434 0 0 1 -4.435-.55668c10.1216-2.56861 17.74011-13.75228 17.74011-27.16226z" opacity=".2"/><path d="m664.57817 460.2919v57.65538a7.7613 7.7613 0 0 0 15.5226 0v-57.65538a7.761305 7.761305 0 0 0 -15.52261 0z" fill="#158ddc"/><path d="m676.7745 517.94728v-57.65538a7.74719 7.74719 0 0 0 -5.54378-7.39938 7.65046 7.65046 0 0 1 2.21751-.36192 7.77071 7.77071 0 0 1 7.7613 7.7613v57.65538a7.77071 7.77071 0 0 1 -7.7613 7.7613 7.65046 7.65046 0 0 1 -2.21751-.36191 7.74721 7.74721 0 0 0 5.54378-7.39939z" opacity=".2"/></g><circle cx="359.94446" cy="366.6813" fill="#fff" r="11.08757"/><path d="m560.355 567.84136a11.09006 11.09006 0 0 0 -8.87006-10.86411 11.08758 11.08758 0 1 1 0 21.72823 11.09006 11.09006 0 0 0 8.87006-10.86412z" opacity=".3" transform="translate(-193.75798 -201.16006)"/><circle cx="354.94446" cy="322.6813" fill="#fff" r="11.08757"/><path d="m555.355 523.84136a11.09006 11.09006 0 0 0 -8.87006-10.86411 11.08758 11.08758 0 1 1 0 21.72823 11.09006 11.09006 0 0 0 8.87006-10.86412z" opacity=".3" transform="translate(-193.75798 -201.16006)"/><circle cx="366.59698" cy="120.53718" fill="#fff" r="11.08757"/><path d="m567.00753 321.69723a11.09007 11.09007 0 0 0 -8.87006-10.86411 11.08758 11.08758 0 1 1 0 21.72823 11.09007 11.09007 0 0 0 8.87006-10.86412z" opacity=".3" transform="translate(-193.75798 -201.16006)"/><g fill="#fff"><ellipse cx="595.98621" cy="248.86826" opacity=".2" rx="22.17515" ry="27.718929"/><ellipse cx="595.98621" cy="248.86826" opacity=".2" rx="41.434971" ry="51.793709"/><ellipse cx="595.98621" cy="248.86826" opacity=".2" rx="62.426128" ry="78.032661"/></g><path d="m203.48829 509.47006c12.12132 17.13449 15.32317 114.654 16.03676 145.91324.0183.70443.0366 1.37223.0457 2.00345h30.68293c.3751-.66779.72274-1.32649 1.05206-2.00345 18.18656-35.89739 8.0961-78.9395 7.56555-81.11677 1.38133 6.84281-4.86683 26.676-11.92925 45.88718-4.30872-59.06971-41.1484-107.70134-43.45375-110.68365z" fill="#4d4d4d" transform="translate(-193.75798 -201.16006)"/><g fill="#ffb8b8"><path d="m991.273 507.53858 1.4953 10.21787a9.03526 9.03526 0 0 1 -10.18867 10.25686 9.03526 9.03526 0 0 1 -7.17943-12.20486l5.07289-13.12984-2.7-88.5594 15.65989-5.94z" transform="translate(-193.75798 -201.16006)"/><circle cx="753.23529" cy="137.89966" r="21.59985"/><path d="m972.91312 379.55945-39.95972-1.62c4.43638-9.71572 6.19624-19.11365 4.32-28.07981h26.45982c-1.39142 8.45563 2.44893 18.6088 9.1799 29.69981z" transform="translate(-193.75798 -201.16006)"/></g><g transform="translate(-193.75798 -201.16006)"><path d="m966.43317 463.79887-58.8596 4.32 2.13955-33.26063c-6.78344-16.13412-5.69989-27.78482 2.28391-35.50314l.72286-11.23763a17.23694 17.23694 0 0 1 12.7348-15.5417l10.19869-2.73623c13.20552 7.73581 23.73255 7.63032 31.31978-1.08l12.13812 6.21708a16.28374 16.28374 0 0 1 8.76078 16.29147z" fill="#575a88"/><path d="m876.25378 467.03885-16.61422 8.72247a7.1619 7.1619 0 0 1 -8.7056-1.60977 7.16187 7.16187 0 0 1 3.9413-11.74792l11.6586-2.38471 36.17974-14.03992 5.94-42.11971 16.73989 4.32-3.24 49.67966z" fill="#ffb8b8"/><path d="m994.513 410.87923-18.3599 10.79993-1.08-43.19971 3.16557-1.08a16.2743 16.2743 0 0 1 16.2743 16.2743z" fill="#575a88"/><g fill="#2f2e41"><path d="m981.82306 675.74744-15.61206-2.44244c-3.15218-53.34026-9.50162-103.137-20.83772-147.40654-26.21487 34.73733-48.19045 85.93394-66.95955 149.579l-18.35987-4.86 48.05967-209.51858 57.23962-1.08c23.40958 32.05182 16.55627 131.04267 16.46991 215.72856z"/><path d="m870.30623 694.18315-27.12637-3.80277a5.34855 5.34855 0 0 1 -4.41756-6.70407 5.34857 5.34857 0 0 1 4.39547-3.88632l4.82027-.69626 15.24135-9.30842 12.60748 3.362 3.73829 11.03233a8.30045 8.30045 0 0 1 -9.25893 10.00351z"/><path d="m976.6855 694.18315-27.12636-3.80277a5.34855 5.34855 0 0 1 -4.41756-6.70407 5.34857 5.34857 0 0 1 4.39547-3.88632l4.82026-.69626 15.24136-9.30842 12.60748 3.362 3.73829 11.03233a8.30046 8.30046 0 0 1 -9.25894 10.00351z"/></g><path d="m928.63342 418.97918c-4.91019-10.79215-13.38811-14.9731-27.53981-8.63994l1.9081-14.07227a27.34258 27.34258 0 0 1 19.69174-22.64748z" fill="#575a88"/></g><g fill="#2f2e41"><path d="m921.50127 327.97693s-3.398-26.44491 24.32755-17.773c0 0 19.80178-3.63334 26.29556 21.13566l6.57538 25.964-3.20451-1.74419-1.494 3.26563-5.1928 1.31508-2.22213-4.41051-1.075 5.356-42.5319 4.24007s19.04919-11.26555 19.35126-31.45613l-3.62847 3.83435z" transform="translate(-193.75798 -201.16006)"/><circle cx="774.87219" cy="109.3028" r="10.69466"/><path d="m957.61028 307.84464a10.68624 10.68624 0 0 1 10.6896-9.99567c-.22084-.028-.4397-.0621-.66488-.0765a10.69466 10.69466 0 1 0 -1.37235 21.34525c.22519.0145.4466.009.66921.009a10.68624 10.68624 0 0 1 -9.32158-11.28225z" transform="translate(-193.75798 -201.16006)"/></g></g></svg>