<svg height="1080" viewBox="0 0 508 285.75" width="1920" xmlns="http://www.w3.org/2000/svg"><text stroke-width=".365035" transform="scale(.26458333)" x="254.25549" y="440.84052"/><text stroke-width=".365035" transform="scale(.26458333)"/><g transform="matrix(.3633598 0 0 .3633598 49.121686 56.151025)"><path d="m379.66309 305.33397h-296a1 1 0 0 1 0-2h296a1 1 0 0 1 0 2z" fill="#0d0c11" fill-opacity=".420472" stroke-width=".728158"/><path d="m447.91309 387.83397h-485.5a17.01917 17.01917 0 0 1 -17-17v-235a17.01917 17.01917 0 0 1 17-17h485.5a17.01917 17.01917 0 0 1 17 17v235a17.01917 17.01917 0 0 1 -17 17zm-485.5-267a15.017 15.017 0 0 0 -15 15v235a15.017 15.017 0 0 0 15 15h485.5a15.017 15.017 0 0 0 15-15v-235a15.017 15.017 0 0 0 -15-15z" fill="#3f3d56" stroke-width=".530214"/><g stroke-width=".728158"><g fill-opacity=".504384"><circle cx="38.66309" cy="168.33397" r="9"/><circle cx="38.66309" cy="202.33397" r="9"/><circle cx="38.66309" cy="236.33395" r="9"/><circle cx="38.66309" cy="270.33395" r="9"/></g><g fill-opacity=".505882"><circle cx="190.16309" cy="338.33395" r="9"/><circle cx="125.16309" cy="338.33395" r="9"/><circle cx="324.16309" cy="338.33395" r="9"/><circle cx="256.16309" cy="338.33395" r="9"/></g></g><g fill="#0d0c11" fill-opacity=".420472" stroke-width=".728158"><path d="m379.66309 169.33397h-296a1 1 0 0 1 0-2h296a1 1 0 0 1 0 2z"/><path d="m379.66309 203.33397h-296a1 1 0 0 1 0-2h296a1 1 0 0 1 0 2z"/><path d="m379.66309 237.33397h-296a1 1 0 0 1 0-2h296a1 1 0 0 1 0 2z"/><path d="m379.66309 271.33397h-296a1 1 0 0 1 0-2h296a1 1 0 0 1 0 2z"/></g><g fill="#158ddc" stroke-width=".530214"><path d="m139.66309 305.33397h-29a5.0058 5.0058 0 0 1 -5-5v-27a5.0058 5.0058 0 0 1 5-5h29a5.00581 5.00581 0 0 1 5 5v27a5.00581 5.00581 0 0 1 -5 5z"/><path d="m204.66309 305.33397h-29a5.00573 5.00573 0 0 1 -5-5v-61a5.00573 5.00573 0 0 1 5-5h29a5.00573 5.00573 0 0 1 5 5v61a5.00573 5.00573 0 0 1 -5 5z"/><path d="m270.66309 305.33397h-29a5.00573 5.00573 0 0 1 -5-5v-95a5.00573 5.00573 0 0 1 5-5h29a5.00573 5.00573 0 0 1 5 5v95a5.00573 5.00573 0 0 1 -5 5z"/><path d="m338.66309 305.33397h-29a5.00573 5.00573 0 0 1 -5-5v-128a5.00573 5.00573 0 0 1 5-5h29a5.00573 5.00573 0 0 1 5 5v128a5.00573 5.00573 0 0 1 -5 5z"/></g><path d="m608.86591 597.1782c-8.99256-7.59865-14.45479-19.60227-13.02232-31.28789s10.30472-22.42829 21.81332-24.90978 24.62761 4.38768 28.12315 15.62987c1.92376-21.67449 4.14055-44.25713 15.6641-62.715 10.43429-16.71314 28.50667-28.672 48.093-30.81147s40.20832 5.941 52.42363 21.40027c12.2153 15.45927 15.2062 37.93388 6.6509 55.68242-6.3024 13.07473-17.91359 22.80511-30.07924 30.72127a194.12948 194.12948 0 0 1 -132.77224 29.04621z" fill-opacity=".06162" stroke-width=".728158"/><g stroke-width=".530214"><path d="m742.59219 469.47283a317.62453 317.62453 0 0 0 -44.2641 43.95414 318.5511 318.5511 0 0 0 -49.85571 83.314c-.89773 2.1999 2.67454 3.15751 3.56229.98207a316.75881 316.75881 0 0 1 93.16977-125.638c1.84429-1.5018-.78315-4.10164-2.61223-2.61223z" fill="#fff"/><path d="m514.02295 321.89159a17.509 17.509 0 0 1 -3.38574-.33936h-.00049q-.30543-.0608-.61084-.13135l-244.89722-57.01953c-2.65991-.61963-4.427-2.293-4.11011-3.89306a2.65908 2.65908 0 0 1 2.03907-1.88233 7.41836 7.41836 0 0 1 3.62207-.0806l246.41772 51.46191c5.54834 1.1582 9.40015 4.56348 8.769 7.75146-.33056 1.66846-1.7998 2.96192-4.13745 3.64258a13.356 13.356 0 0 1 -3.70601.49024z" fill="#3f3d56"/><path d="m462.14483 314.00289a10.05575 10.05575 0 0 0 14.52487-5.17531l35.72708.745-9.8976-15.71213-32.40963 1.70134a10.11028 10.11028 0 0 0 -7.94472 18.44107z" fill="#ffb8b8"/><path d="m477.66309 308.29569-.18587-10.95079a4.52375 4.52375 0 0 1 4.06742-4.55553l64.201-6.19566 53.4904-17.53817a12.81886 12.81886 0 1 1 7.63274 24.47234l-59.2065 17.52973-65.38677 1.66091a4.50905 4.50905 0 0 1 -4.42846-3.21338 4.522 4.522 0 0 1 -.18396-1.20945z" fill="#3f3d56"/><path d="m627.26 424.494-.002 47.288-12.26-.001-5.832-47.288z" fill="#ffb8b8" transform="translate(-54.58691 118.83397)"/><path d="m575.79778 602.49974-39.53051-.001v-.5a15.38605 15.38605 0 0 1 15.38647-15.38624h.001l24.1438.001z" fill="#2f2e41"/><path d="m663.26 424.494-.002 47.288-12.26-.001-5.832-47.288z" fill="#ffb8b8" transform="translate(-54.58691 118.83397)"/><path d="m611.79778 602.49974-39.53051-.001v-.5a15.38605 15.38605 0 0 1 15.38647-15.38624h.001l24.1438.001z" fill="#2f2e41"/><path d="m616.89903 399.50791-2.92742 173.69392a4 4 0 0 1 -4.36158 3.91617l-14.34623-1.3042a4 4 0 0 1 -3.62589-3.67442l-8.39886-108.34525a1 1 0 0 0 -1.99629.0394l-4.19795 110.82575a4 4 0 0 1 -3.99713 3.84859h-15.38563a4 4 0 0 1 -3.99255-3.756l-10.77047-176.244 64-16z" fill="#2f2e41"/><circle cx="570.47778" cy="211.85042" fill="#ffb8b8" r="24.561029"/><path d="m540.70763 404.6749a4.46917 4.46917 0 0 1 -1.3645-3.165l-1.65674-118.44242a28.50083 28.50083 0 0 1 19.282-27.44141c2.301-10.43945 14.54785-11.74707 21.68726-11.59082a11.08483 11.08483 0 0 1 8.97753 4.92286l5.11792 7.67675 11.28028 6.61231a28.528 28.528 0 0 1 13.47021 30.8164l-1.73657 7.89942a181.54018 181.54018 0 0 0 1.69775 84.66015l3.49463 13.32422a4.49944 4.49944 0 0 1 -4.698 5.62793l-4.05859-.3125a4.49385 4.49385 0 0 1 -4.13257-4.03808l-.67163-6.7168a.50005.50005 0 0 0 -.99512 0l-.65014 6.50293a4.49951 4.49951 0 0 1 -4.40845 4.05176l-57.43091.88379c-.0239 0-.0476.001-.0715.001a4.47131 4.47131 0 0 1 -3.13283-1.27249z" fill="#3f3d56"/><path d="m572.39903 226.00791c.10071 3.472 2.51116 5.48065 5.47053 7.29924s6.41876 2.60712 9.808 3.36775a2.99861 2.99861 0 0 0 4.40515-2.62457l3.1084-11.82324a74.84063 74.84063 0 0 0 2.39306-11.537c.74862-7.50914-1.031-15.58706-6.27222-21.01634s-14.33084-7.358-20.6116-3.17478c-7.45361-9.51978-41.52343 11.513-33.11914 18.13281 1.49512 1.17768 3.78064-.31249 5.67841-.45693s4.02454.18937 5.23 1.66219c1.575 1.9242.889 4.79052 1.538 7.1909a6.71431 6.71431 0 0 0 8.48369 4.34833 23.08806 23.08806 0 0 0 4.39987-2.8286c1.45566-.96958 3.29506-1.686 4.93368-1.0745 2.15991.80607 2.92723 3.45041 3.12242 5.74755a53.23512 53.23512 0 0 0 1.43175 6.78719z" fill="#2f2e41"/><path d="m754.34419 602.83397h-381a1 1 0 0 1 0-2h381a1 1 0 0 1 0 2z" fill="#3f3d56"/><path d="m627.25 223-6-50-4 49-21 51z" opacity=".2" transform="translate(-54.58691 118.83397)"/><path d="m536.75253 410.82611a10.05576 10.05576 0 0 0 .31761-15.41606l13.37856-33.136-18.20228 3.67571-9.9139 30.903a10.11028 10.11028 0 0 0 14.42 13.97337z" fill="#ffb8b8"/><path d="m535.77841 396.21197-10.30362-3.71344a4.52376 4.52376 0 0 1 -2.81506-5.41962l16.99724-62.21933 2.59146-56.2325a12.81885 12.81885 0 1 1 25.588 1.55127l-4.62838 61.57336-21.65758 61.71826a4.509 4.509 0 0 1 -4.57608 2.99941 4.5218 4.5218 0 0 1 -1.19598-.25741z" fill="#3f3d56"/></g></g></svg>