<svg height="1080" viewBox="0 0 508 285.75" width="1920" xmlns="http://www.w3.org/2000/svg"><text stroke-width=".365035" transform="scale(.26458333)" x="254.25549" y="440.84052"/><text stroke-width=".365035" transform="scale(.26458333)"/><g stroke-width=".052993"><path d="m458.24576 133.97128h-160.41251v-65.673471h160.41251zm-159.92436-.48773h159.43622v-64.698005h-159.43622z" fill="#3f3d56"/><path d="m320.49 93.327737h-10.08103a35.258666 35.229353 0 0 1 0-12.009706h10.08103a21.627437 21.609457 0 0 0 0 12.009706z" fill="#ff6584"/><g fill="#333"><path d="m329.21746 98.443541h10.08104a35.258559 35.229246 0 0 0 0-12.009707h-10.08104a21.627444 21.609464 0 0 1 0 12.009707z"/><path d="m394.27281 100.89915h13.69874a.36632663.36602208 0 0 0 0-.7316h-13.69874a.36632663.36602208 0 0 0 0 .7316z"/><path d="m407.61551 97.448041 2.14026 1.95192c.24477.22324.91804.684109 1.07012.975969.31446.60345-.0234.46578-.56224.67489a12.047345 12.03733 0 0 0 -3.60339 2.23567c-.35423.3119.16527.82769.51776.51733a11.186415 11.177116 0 0 1 3.28029-2.04752c.43176-.17066 1.25091-.2706 1.45606-.78448.25107-.62894-.54857-1.093019-.92743-1.438539l-2.85368-2.60258c-.34744-.31687-.8667.19908-.51776.51732z"/></g><g fill="#158ddc"><path d="m317.50204 115.7582h10.08104a35.258559 35.229246 0 0 0 0-12.00971h-10.08104a21.627444 21.609464 0 0 1 0 12.00971z"/><path d="m395.84893 92.346833h10.08104a35.258559 35.229246 0 0 0 0-12.009709h-10.08104a21.627444 21.609464 0 0 1 0 12.009709z"/></g></g><g fill="#3f3d56"><g stroke-width=".052993"><path d="m383.94782 117.23834h-24.40713v-39.262816h24.40713zm-23.91899-.48774h23.43085v-38.287339h-23.43085z"/><path d="m361.73734 80.414207h3.953198v.487737h-3.953198z"/><path d="m361.73734 81.633553h3.953198v.487737h-3.953198z"/><path d="m361.73734 82.852898h3.953198v.487737h-3.953198z"/><path d="m363.68988 103.82558h16.888948v.487737h-16.888948z"/><path d="m363.68988 106.50813h16.888948v.487737h-16.888948z"/><path d="m363.68988 109.19068h16.888948v.487737h-16.888948z"/><path d="m380.28675 83.584498a1.7084992 1.7070788 0 1 1 1.7085-1.707079 1.7104176 1.7089956 0 0 1 -1.7085 1.707079zm0-2.926421a1.2203565 1.219342 0 1 0 1.22036 1.219342 1.2217551 1.2207394 0 0 0 -1.22036-1.219342z"/><path d="m380.77489 98.216601h-17.32906v-11.217946h17.32906zm-16.84092-.48774h16.35278v-10.24247h-16.35278z"/></g><path d="m121.60831 353.50967h.487898v19.968903h-.487898z" stroke-width=".152715" transform="matrix(.53798582 -.84295389 .84335933 .53735001 0 0)"/><g stroke-width=".052993"><path d="m253.86952 277.80774h19.968824v.487896h-19.968824z" transform="matrix(.8433662 -.53733923 .53797503 .84296078 0 0)"/><path d="m446.18599 116.7506h-24.40713v-39.262812h24.40713zm-23.91899-.48774h23.43085v-38.287336h-23.43085z"/><path d="m423.97552 79.926476h3.953169v.487737h-3.953169z"/><path d="m423.97552 81.145813h3.953169v.487737h-3.953169z"/><path d="m423.97552 82.365158h3.953169v.487737h-3.953169z"/><path d="m442.52492 83.096761a1.7084992 1.7070788 0 1 1 1.7085-1.707079 1.7104176 1.7089956 0 0 1 -1.7085 1.707079zm0-2.926421a1.2203565 1.219342 0 1 0 1.22036 1.219342 1.2217551 1.2207394 0 0 0 -1.22036-1.219342z"/><path d="m443.01306 97.728861h-17.32906v-11.217943h17.32906zm-16.84092-.48773h16.35278v-10.242476h-16.35278z"/><path d="m155.46217 405.71106h.487879v19.968824h-.487879z" transform="matrix(.53798386 -.84295514 .84336059 .53734804 0 0)"/><path d="m306.6283 310.80688h19.968826v.487878h-19.968826z" transform="matrix(.84342142 -.53725255 .53788835 .84301609 0 0)"/><path d="m443.01306 112.36097h-17.32906v-11.21795h17.32906zm-16.84092-.48774h16.35278v-10.24247h-16.35278z"/><path d="m143.12202 413.58289h.487879v19.968824h-.487879z" transform="matrix(.53798386 -.84295514 .84336059 .53734804 0 0)"/><path d="m298.75784 323.14792h19.968826v.487878h-19.968826z" transform="matrix(.84342142 -.53725255 .53788835 .84301609 0 0)"/></g></g><g stroke-width=".052993"><path d="m368.0248 124.78133h10.08104a35.258559 35.229246 0 0 0 0-12.00971h-10.08104a21.627444 21.609464 0 0 1 0 12.00971z" fill="#158ddc"/><ellipse cx="315.90005" cy="349.13873" fill="#ffb8b8" rx="7.141522" ry="7.138317" transform="matrix(.87762206 -.47935323 .47996754 .87728625 0 0)"/><g fill="#2f2e41"><ellipse cx="456.01443" cy="146.00523" rx="6.319097" ry="6.313843"/><path d="m461.46497 151.23351a6.3194285 6.3141748 0 0 1 -9.75835-3.3153 6.3194455 6.3141918 0 1 0 12.32686-2.58926 6.3171122 6.3118605 0 0 1 -2.56851 5.90456z"/><path d="m436.52703 151.24052c1.10315-1.97331 1.52526-2.79762 2.94765-3.99757 1.25782-1.06123 2.80497-1.37289 4.05288-.36734a7.4733561 7.4671431 0 1 1 -4.50922 6.85414 7.5352428 7.5289784 0 0 1 .0509-.84432c-1.08474-.15221-1.4575-1.49269-2.54223-1.64491z"/></g></g><path d="m701.163 593.819 8.626-53.481 19.756 5.739-14.997 51.63z" fill="#ffb8b8" stroke-width=".21721" transform="matrix(.24407131 0 0 .2438684 253.11746 106.53014)"/><path d="m421.71074 249.59518 6.77871 1.96737-1.15234 3.96386-10.26795-2.98005.13882-.47752a3.6334554 3.6304347 0 0 1 4.50276-2.47366z" fill="#2f2e41" stroke-width=".052993"/><path d="m838.941 598.026-6.631-53.765 20.572.001-.002 53.765z" fill="#ffb8b8" stroke-width=".21721" transform="matrix(.24407131 0 0 .2438684 253.11746 106.53014)"/><g stroke-width=".052993"><path d="m454.95109 251.39847h7.05888v4.1277h-10.69233v-.49726a3.6334554 3.6304347 0 0 1 3.63345-3.63044z" fill="#2f2e41"/><path d="m453.27614 206.7278a2.790499 2.7881791 0 0 1 .78305-4.20313l-1.76648-9.74975 4.73848 2.02352.95102 8.94831a2.8056168 2.8032843 0 0 1 -4.70607 2.98104z" fill="#ffb8b8"/><path d="m455.81656 183.38423-5.55935-16.863c-.11599-.19339-1.49973-2.3695-4.513-1.4438a2.5198337 2.5177388 0 0 0 -1.55649 1.26816c-.88205 1.68958-.0593 4.29973-.0557 4.31355l6.84445 15.32489.007.0158 2.16038 15.73821 4.66551-.94642z" fill="#158ddc"/><path d="m418.86535 245.76798 8.36767-25.63738 9.70196-22.15773-.13968-10.74652 11.51316-2.68243 1.34072 4.5037c7.75406 5.11219 5.19965 14.94623 5.01737 15.60532l11.68349 43.08171-12.73932 1.41427-8.55104-40.79044-7.88626 16.57448-5.57605 24.79288z" fill="#2f2e41"/><path d="m435.96524 178.20512c-2.28909-4.38415-.6341-6.0536 1.86852-8.57873a34.447234 34.418596 0 0 0 2.87353-3.17387c3.9044-5.01549 8.43584-2.55228 8.48118-2.52668l.0255.0143 1.11959 1.67791c3.68949 3.71006-1.9055 13.90478-2.33042 14.66401l.28063 7.28986-11.89823 1.13218z" fill="#158ddc"/><path d="m440.49842 206.34842a2.7905039 2.788184 0 0 1 1.8219-3.86842l.75986-9.87909 4.0719 3.15558-1.34584 8.89757a2.8056168 2.8032843 0 0 1 -5.30782 1.69436z" fill="#ffb8b8"/><path d="m441.3607 201.71676 1.92209-15.99589-2.73979-16.55257c-.006-.1161-.14262-2.86117 1.20713-4.34903a2.755858 2.7535669 0 0 1 1.99789-.91379c3.42325-.1498 4.24175 2.69982 4.24959 2.72852l1.11485 17.78226-2.51508 17.59128z" fill="#158ddc"/><path d="m397.83143 255.75206h92.99117a.24407291.24387 0 0 0 0-.48774h-92.99117a.24407291.24387 0 0 0 0 .48774z" fill="#4d4d4d"/></g></svg>