<svg height="102.166" viewBox="0 0 359.90207 102.166" width="359.90207" xmlns="http://www.w3.org/2000/svg" xmlns:xlink="http://www.w3.org/1999/xlink"><clipPath id="a"><path d="m0 130.051h379.706v-130.051h-379.706z"/></clipPath><g clip-path="url(#a)" transform="matrix(1.3333333 0 0 -1.3333333 -21.776933 151.7424)"><g stroke-width="1.29101" transform="matrix(.77458851 0 0 .77458851 4.357813 24.977126)"><path d="m100.079 62.85h4.127v-19.432h-4.127z"/><path d="m0 0h-5.246l-8.467 14.7h-.12c.168-2.596.253-4.448.253-5.555v-9.145h-3.688v19.432h5.205l8.455-14.554h.093c-.133 2.525-.199 4.31-.199 5.356v9.198h3.714z" transform="translate(125.9648 43.4185)"/><path d="m0 0c0-1.755-.632-3.137-1.897-4.147s-3.024-1.515-5.279-1.515c-2.077 0-3.914.39-5.512 1.169v3.828c1.313-.585 2.425-.997 3.335-1.236s1.742-.359 2.497-.359c.905 0 1.599.173 2.083.519.484.345.726.859.726 1.542 0 .381-.107.72-.32 1.016-.213.297-.526.582-.939.858-.412.274-1.253.713-2.523 1.315-1.189.559-2.081 1.095-2.675 1.609-.595.513-1.07 1.111-1.425 1.794-.355.682-.532 1.479-.532 2.392 0 1.719.583 3.07 1.75 4.054 1.167.983 2.78 1.475 4.84 1.475 1.012 0 1.977-.12 2.895-.358.919-.239 1.88-.576 2.883-1.011l-1.331-3.203c-1.039.426-1.898.722-2.576.891-.68.168-1.348.253-2.004.253-.782 0-1.381-.183-1.798-.545-.417-.364-.626-.838-.626-1.423 0-.363.085-.68.254-.95.168-.271.437-.531.805-.784.368-.252 1.24-.707 2.616-1.363 1.819-.868 3.066-1.739 3.741-2.611.675-.873 1.012-1.943 1.012-3.21" transform="translate(141.9453 48.8149)"/><path d="m0 0h-4.127v16.003h-5.286v3.429h14.698v-3.429h-5.285z" transform="translate(152.5737 43.4185)"/><path d="m160.446 62.85h4.127v-19.432h-4.127z"/><path d="m0 0h-4.127v16.003h-5.286v3.429h14.698v-3.429h-5.285z" transform="translate(176.5728 43.4185)"/><path d="m0 0v-12.573c0-1.436-.32-2.695-.965-3.775-.642-1.082-1.572-1.91-2.789-2.486-1.217-.575-2.654-.863-4.314-.863-2.502 0-4.446.639-5.83 1.92-1.385 1.281-2.079 3.033-2.079 5.256v12.521h4.116v-11.896c0-1.497.3-2.596.904-3.295.603-.701 1.602-1.051 2.996-1.051 1.35 0 2.328.352 2.936 1.056.607.706.912 1.811.912 3.317v11.869z" transform="translate(200.2871 62.8501)"/><path d="m0 0h-4.127v16.003h-5.285v3.429h14.697v-3.429h-5.285z" transform="translate(212.1543 43.4185)"/><path d="m0 0c0-2.171.412-3.806 1.238-4.904.825-1.099 2.059-1.649 3.701-1.649 3.293 0 4.94 2.185 4.94 6.553 0 4.378-1.639 6.566-4.914 6.566-1.641 0-2.879-.551-3.713-1.655-.836-1.102-1.252-2.74-1.252-4.911m14.205 0c0-3.216-.799-5.688-2.396-7.416-1.598-1.729-3.887-2.592-6.87-2.592-2.982 0-5.273.863-6.871 2.592-1.597 1.728-2.396 4.209-2.396 7.443s.803 5.703 2.404 7.41c1.602 1.706 3.899 2.558 6.889 2.558 2.992 0 5.279-.859 6.863-2.578 1.586-1.72 2.377-4.191 2.377-7.417" transform="translate(223.4883 53.1606)"/><path d="m0 0h-4.061v19.432h11.157v-3.376h-7.096v-5.011h6.604v-3.362h-6.604z" transform="translate(252.0547 43.4185)"/><path d="m0 0h-11.211v19.432h11.211v-3.376h-7.084v-4.267h6.59v-3.376h-6.59v-5.011h7.084z" transform="translate(273.7598 43.4185)"/><path d="m0 0c0 4.173-1.846 6.26-5.539 6.26h-2.195v-12.654h1.769c3.977 0 5.965 2.131 5.965 6.394m4.287.106c0-3.199-.912-5.649-2.736-7.35s-4.457-2.552-7.901-2.552h-5.511v19.432h6.109c3.178 0 5.647-.837 7.402-2.512 1.758-1.675 2.637-4.014 2.637-7.018" transform="translate(289.2734 53.2144)"/><path d="m0 0h-11.211v19.432h11.211v-3.376h-7.084v-4.267h6.59v-3.376h-6.59v-5.011h7.084z" transform="translate(308.3965 43.4185)"/><path d="m0 0h1.33c1.305 0 2.268.217 2.891.651.621.434.931 1.117.931 2.047 0 .922-.318 1.577-.953 1.967s-1.617.585-2.949.585h-1.25zm0-3.35v-7.456h-4.127v19.432h5.67c2.646 0 4.603-.48 5.873-1.442 1.268-.961 1.902-2.421 1.902-4.379 0-1.144-.314-2.16-.945-3.051-.629-.891-1.521-1.588-2.676-2.093 2.93-4.369 4.838-7.19 5.725-8.467h-4.58l-4.647 7.456z" transform="translate(316.1758 54.2241)"/><path d="m0 0c-1.305 4.191-2.039 6.562-2.203 7.111s-.283.984-.354 1.302c-.293-1.134-1.131-3.938-2.515-8.413zm2.396-8.081-1.412 4.625h-7.095l-1.41-4.625h-4.448l6.869 19.512h5.047l6.897-19.512z" transform="translate(339.1582 51.4995)"/><path d="m0 0v19.432h4.127v-16.03h7.894v-3.402z" transform="translate(348.043 43.4185)"/><path d="m0 0c-.927.332-1.623.637-2.066.907-.436.265-.748.556-.928.868-.179.31-.27.718-.27 1.214 0 .668.239 1.176.731 1.551.496.377 1.2.568 2.091.568 1.148 0 2.347-.259 3.566-.769l.121-.05.629 1.75-.108.047c-1.263.551-2.665.831-4.167.831-1.453 0-2.64-.355-3.527-1.053-.897-.705-1.352-1.666-1.352-2.855 0-1.126.312-2.053.929-2.758.61-.696 1.635-1.305 3.045-1.809.989-.351 1.734-.669 2.214-.943.469-.27.806-.564 1.003-.875.195-.311.294-.718.294-1.21 0-.752-.272-1.321-.833-1.74-.564-.423-1.423-.636-2.554-.636-.7 0-1.417.075-2.131.223-.713.148-1.382.352-1.989.608l-.173.073v-1.949l.071-.034c.97-.464 2.37-.699 4.161-.699 1.663 0 3.002.382 3.978 1.134.986.759 1.486 1.83 1.486 3.184 0 1.051-.31 1.922-.921 2.585-.603.654-1.713 1.272-3.3 1.837" transform="translate(104.5659 28.3701)"/><path d="m0 0v-.884c0-1.005-.292-1.796-.87-2.349-.578-.556-1.391-.837-2.414-.837-.637 0-1.136.152-1.484.451-.342.295-.516.736-.516 1.31 0 .747.274 1.28.839 1.631.577.359 1.543.565 2.871.612zm-2.124 6.15c-.669 0-1.349-.088-2.018-.261-.667-.173-1.29-.414-1.85-.718l-.098-.053.615-1.53.121.059c1.161.563 2.214.849 3.128.849.795 0 1.377-.199 1.73-.59.357-.394.538-1.023.538-1.868v-.577l-1.79-.057c-3.697-.112-5.572-1.354-5.572-3.693 0-1.09.333-1.945.99-2.542.654-.592 1.565-.893 2.707-.893.849 0 1.569.129 2.141.385.54.242 1.086.693 1.625 1.342l.323-1.522h1.489v7.792c0 1.343-.34 2.336-1.011 2.951-.668.614-1.7.926-3.068.926" transform="translate(117.9341 25.3545)"/><path d="m0 0c-.788 0-1.515-.158-2.159-.469-.586-.283-1.059-.676-1.41-1.17l-.259 1.434h-1.615v-11.484h1.954v6.018c0 1.425.266 2.457.791 3.066.521.604 1.36.91 2.493.91.85 0 1.478-.215 1.869-.637.394-.425.593-1.086.593-1.965v-7.392h1.954v7.454c0 1.463-.358 2.547-1.065 3.221-.706.673-1.764 1.014-3.146 1.014" transform="translate(128.6987 31.5249)"/><path d="m0 0c-.275-.043-.562-.065-.853-.065-.529 0-.932.164-1.231.501s-.451.834-.451 1.476v6.486h3.265v1.572h-3.265v2.604h-1.204l-.729-2.432-1.634-.718v-1.026h1.612v-6.559c0-2.361 1.141-3.558 3.39-3.558.291 0 .624.03.991.088.375.062.653.137.85.232l.071.034v1.547l-.16-.047c-.155-.045-.375-.091-.652-.135" transform="translate(140.8794 21.3496)"/><path d="m0 0v-.884c0-1.005-.292-1.796-.87-2.349-.578-.556-1.391-.837-2.414-.837-.637 0-1.136.152-1.484.451-.342.295-.516.736-.516 1.31 0 .747.274 1.28.839 1.631.577.359 1.543.565 2.871.612zm-2.124 6.15c-.669 0-1.349-.088-2.018-.261-.667-.173-1.29-.414-1.85-.718l-.098-.053.615-1.53.121.059c1.161.563 2.214.849 3.128.849.795 0 1.377-.199 1.73-.59.357-.394.538-1.023.538-1.868v-.577l-1.79-.057c-3.697-.112-5.572-1.354-5.572-3.693 0-1.09.333-1.945.99-2.542.654-.592 1.565-.893 2.707-.893.849 0 1.569.129 2.141.385.54.242 1.086.693 1.625 1.342l.323-1.522h1.489v7.792c0 1.343-.34 2.336-1.011 2.951-.668.614-1.7.926-3.068.926" transform="translate(150.2739 25.3545)"/><path d="m0 0c1.112 0 2.241-.265 3.355-.787l.111-.052.849 1.718-.112.056c-1.189.58-2.596.874-4.182.874-1.494 0-2.813-.324-3.918-.96-1.109-.639-1.969-1.56-2.555-2.739-.585-1.174-.881-2.559-.881-4.114 0-2.487.617-4.436 1.834-5.793 1.221-1.361 2.974-2.051 5.211-2.051 1.533 0 2.843.2 3.895.592l.081.03v1.78l-.159-.045c-1.323-.371-2.517-.559-3.55-.559-1.659 0-2.952.526-3.842 1.561-.896 1.041-1.351 2.543-1.351 4.465 0 1.867.472 3.355 1.401 4.422.926 1.063 2.209 1.602 3.813 1.602" transform="translate(167.9717 33.478)"/><path d="m0 0v-.884c0-1.005-.293-1.796-.87-2.349-.578-.556-1.39-.837-2.413-.837-.638 0-1.137.152-1.485.451-.342.295-.516.736-.516 1.31 0 .747.274 1.28.839 1.631.577.359 1.543.565 2.871.612zm-2.123 6.15c-.67 0-1.349-.088-2.019-.261-.667-.173-1.29-.414-1.85-.718l-.098-.053.615-1.53.121.059c1.161.563 2.213.849 3.127.849.795 0 1.377-.199 1.731-.59.356-.394.537-1.023.537-1.868v-.577l-1.789-.057c-3.697-.112-5.572-1.354-5.572-3.693 0-1.09.333-1.945.99-2.542.654-.592 1.564-.893 2.707-.893.849 0 1.569.129 2.141.385.539.241 1.085.692 1.626 1.342l.321-1.522h1.49v7.792c0 1.342-.34 2.335-1.011 2.951-.668.614-1.7.926-3.067.926" transform="translate(181.0117 25.3545)"/><path d="m0 0c-.273-.043-.561-.065-.854-.065-.528 0-.93.164-1.23.501-.3.338-.451.835-.451 1.476v6.486h3.265v1.572h-3.265v2.604h-1.202l-.73-2.432-1.635-.718v-1.026h1.614v-6.559c0-2.361 1.139-3.558 3.388-3.558.291 0 .624.03.992.088.374.061.652.137.849.232l.071.034v1.547l-.16-.047c-.155-.045-.375-.091-.652-.135" transform="translate(190.9453 21.3496)"/><path d="m0 0v-.884c0-1.005-.293-1.796-.87-2.349-.578-.556-1.39-.837-2.413-.837-.638 0-1.138.152-1.485.451-.346.299-.515.727-.515 1.31 0 .747.274 1.281.84 1.631.575.359 1.54.565 2.868.612zm-2.123 6.15c-.67 0-1.349-.088-2.018-.261-.67-.173-1.293-.414-1.85-.718l-.098-.053.614-1.53.121.059c1.162.563 2.213.849 3.127.849.795 0 1.377-.199 1.73-.59.357-.394.538-1.022.538-1.868v-.577l-1.789-.057c-3.697-.112-5.572-1.354-5.572-3.693 0-1.09.333-1.945.99-2.542.653-.592 1.564-.893 2.707-.893.848 0 1.568.129 2.141.385.539.241 1.085.692 1.626 1.342l.321-1.522h1.49v7.792c0 1.342-.34 2.335-1.011 2.951-.668.614-1.7.926-3.067.926" transform="translate(200.3398 25.3545)"/><path d="m0 0c-.727 0-1.403-.207-2.012-.616-.544-.367-1.021-.878-1.42-1.521l-.18 1.932h-1.648v-11.484h1.955v6.152c0 1.062.317 1.962.94 2.674.619.707 1.373 1.065 2.242 1.065.343 0 .748-.051 1.206-.151l.13-.029.274 1.829-.116.024c-.405.083-.866.125-1.371.125" transform="translate(210.9199 31.5249)"/><path d="m214.35 19.835h1.955v11.484h-1.955z"/><path d="m0 0c-.319 0-.59-.103-.805-.307-.216-.204-.326-.522-.326-.946 0-.416.11-.734.324-.944.215-.212.487-.319.807-.319.306 0 .573.107.795.317.223.212.336.53.336.946s-.113.733-.337.942c-.223.207-.489.311-.794.311" transform="translate(215.3379 35.4917)"/><path d="m0 0c-.789 0-1.516-.158-2.16-.468-.585-.283-1.059-.676-1.41-1.171l-.259 1.434h-1.616v-11.484h1.955v6.018c0 1.426.266 2.457.792 3.066.52.604 1.358.91 2.491.91.851 0 1.479-.215 1.871-.637.393-.426.592-1.087.592-1.965v-7.392h1.955v7.454c0 1.464-.358 2.548-1.066 3.221-.706.673-1.763 1.014-3.145 1.014" transform="translate(225.2187 31.5249)"/><path d="m0 0v-.884c0-1.005-.293-1.796-.87-2.349-.578-.556-1.39-.837-2.413-.837-.638 0-1.138.152-1.485.451-.346.299-.515.727-.515 1.31 0 .747.274 1.281.84 1.631.575.359 1.54.565 2.868.612zm.944 5.224c-.668.614-1.7.926-3.067.926-.67 0-1.349-.088-2.018-.261-.67-.173-1.293-.414-1.85-.718l-.098-.053.614-1.53.121.059c1.162.563 2.213.849 3.127.849.795 0 1.377-.199 1.73-.59.357-.394.538-1.022.538-1.868v-.577l-1.789-.057c-3.697-.112-5.572-1.354-5.572-3.693 0-1.09.333-1.945.99-2.542.653-.592 1.564-.893 2.707-.893.848 0 1.568.129 2.141.385.539.241 1.085.692 1.626 1.342l.321-1.522h1.49v7.792c0 1.342-.34 2.335-1.011 2.951" transform="translate(239.2637 25.3545)"/><g fill="#32a041"><path d="m0 0c0-1.067-.889-1.956-1.958-1.956h-15.652c-1.069 0-1.958.889-1.958 1.956v15.656c0 1.065.889 1.956 1.958 1.956h15.652c1.069 0 1.958-.891 1.958-1.956z" transform="translate(63.0942 92.1274)"/><path d="m0 0c0-1.068-.89-1.957-1.956-1.957h-15.653c-1.07 0-1.959.889-1.959 1.957v15.655c0 1.066.889 1.956 1.959 1.956h15.653c1.066 0 1.956-.89 1.956-1.956z" transform="translate(86.5762 92.1279)"/><path d="m0 0c0-1.067-.89-1.958-1.955-1.958h-15.655c-1.069 0-1.958.891-1.958 1.958v15.653c0 1.069.889 1.957 1.958 1.957h15.655c1.065 0 1.955-.888 1.955-1.957z" transform="translate(86.5762 45.3213)"/><path d="m0 0c0-1.068-.889-1.958-1.959-1.958h-15.655c-1.065 0-1.954.89-1.954 1.958v15.652c0 1.07.889 1.958 1.954 1.958h15.655c1.07 0 1.959-.888 1.959-1.958z" transform="translate(39.4268 68.7666)"/><path d="m0 0c0-1.068-.889-1.958-1.958-1.958h-15.652c-1.069 0-1.958.89-1.958 1.958v15.652c0 1.07.889 1.958 1.958 1.958h15.652c1.069 0 1.958-.888 1.958-1.958z" transform="translate(63.0942 68.7666)"/><path d="m0 0c0-1.067-.889-1.958-1.958-1.958h-15.652c-1.069 0-1.958.891-1.958 1.958v15.653c0 1.069.889 1.957 1.958 1.957h15.652c1.069 0 1.958-.888 1.958-1.957z" transform="translate(63.0942 45.3213)"/><path d="m0 0c0-1.066-.889-1.957-1.958-1.957h-15.652c-1.069 0-1.958.891-1.958 1.957v15.656c0 1.067.889 1.955 1.958 1.955h15.652c1.069 0 1.958-.888 1.958-1.955z" transform="translate(63.0942 21.8613)"/></g><path d="m0 0c0-5.87-4.803-10.674-10.675-10.674-5.87 0-10.672 4.804-10.672 10.674s4.802 10.673 10.672 10.673c5.872 0 10.675-4.803 10.675-10.673" fill="#c8191e" transform="translate(40.6797 100.1338)"/><g fill="#32a041"><path d="m0 0c0-1.066-.889-1.957-1.957-1.957h-15.652c-1.071 0-1.959.891-1.959 1.957v15.656c0 1.067.888 1.955 1.959 1.955h15.652c1.068 0 1.957-.888 1.957-1.955z" transform="translate(39.4272 21.8613)"/><path d="m0 0c0-1.067-.889-1.958-1.958-1.958h-15.652c-1.069 0-1.958.891-1.958 1.958v15.653c0 1.069.889 1.957 1.958 1.957h15.652c1.069 0 1.958-.888 1.958-1.957z" transform="translate(39.4268 45.3213)"/></g></g></g></svg>