<svg height="18.871918mm" viewBox="0 0 18.871918 18.871918" width="18.871918mm" xmlns="http://www.w3.org/2000/svg"><g fill="#fff" transform="matrix(.20378405 0 0 .20378405 -21.484882 -21.650631)"><path d="m642.58203 508.82227c-.41828-.008-.83973.008-1.26172.0488-2.5319.23698-5.09286 1.32974-7.17383 3.40625l-44.10156 44.00782c.32693.19729.63409.43256.91211.70703 1.12192 1.09591 1.60547 2.67827 1.60547 4.10742 0 .19918-.0331.40042-.0547.60156l31.875-31.80664c2.96079 5.06519 7.09144 8.54991 11.33008 11.27539l-23.61523 23.56446h7.88867l33.36523-33.29297c2.77062-2.76473 3.7881-6.38051 3.36328-9.64844-.42478-3.26786-2.09526-6.21213-4.38086-8.49609-2.28559-2.28386-5.2342-3.95781-8.50976-4.38282-.40944-.0533-.82391-.0842-1.24219-.0918zm-.13867 5.55664c.2177.008.43855.031.66211.0586 1.7884.23169 3.75466 1.26939 5.28125 2.79492 1.52663 1.52553 2.56462 3.49073 2.79687 5.27735.22982 1.76921-.14116 3.3364-1.73242 4.94726-4.71773-2.79016-8.80125-5.98144-11.4414-11.16211l.0801-.0801c1.43301-1.42987 2.82905-1.89709 4.35352-1.83593zm-9.16797 6.64062c3.03664 5.00214 7.22471 8.42987 11.48828 11.11914l-4.37109 4.36133c-4.67566-2.81187-8.69359-6.0696-11.25-11.35742zm-46.51367 39.99414c.002.0278.004.0183.004.0859 0 .042-.002.0341-.004.0488.0265 0 .0342-.008.13476-.008.0684 0 .0493.00091.0879 0-.00004-.0227-.002-.007-.002-.041 0-.0676.00076-.0474 0-.0859-.0386-.00091-.0187 0-.0859 0zm-4.64063 3.17774-.54297.54297h.90821c-.1372-.17084-.24883-.35872-.36524-.54297zm-.62695.62695-1.63867 1.63476 1.63867.74219zm0 3.64844-3.18555 7.40039 3.18555-3.17578zm23.51953 4.70508c-.95516 0-1.1558.17392-1.33008.36328-.17159.19426-.42578.6528-.42578 1.82812 0 1.03612.2139 1.38145.39649 1.57617.19313.19843.4273.37305 1.35937.37305.99636 0 1.2114-.19231 1.32422-.3125.11263-.12019.36524-.52168.36523-1.67969 0-1.1376-.24392-1.59672-.42382-1.80078l-.0195-.0176-.0156-.0195c-.12208-.14362-.2549-.30859-1.23047-.30859zm-32.88867.99609-.34961.34765c.24491.10961.45627.20908.88672.375h.002c1.85764.71717 3.2966 1.37965 4.48242 2.13672l.79297-.78906-2.36328-.97656c-1.34286-.554-2.47583-.88746-3.45117-1.09375zm22.76758 7.73633-2.6582 2.64843v6.82032c.25511-.41167.42336-.87574.75195-1.23438l.0156-.0156.0117-.0156c.42149-.44644.96198-.75059 1.46485-1.10156-.35944-.80731-.62305-1.66388-.62305-2.55664 0-1.4318.47095-2.92387 1.39648-4.0586.0151-.0189.0412-.0302.0566-.0469-.13469-.15012-.27678-.29406-.41601-.43945zm-30.96289.43945-1.53711 1.53711c2.36833 1.04954 4.47272 1.54839 6.30859 1.57617l.73242-.73242c-.62233-.30198-1.3924-.64636-2.42773-1.04688-1.13798-.43997-2.16024-.87276-3.07617-1.33398zm-5.82031 9.96094-1.5879.75586c-1.45723.69316-2.95989 1.1967-4.49218 1.49218-.12964.0265-.26661.0414-.39844.0645l-28.84766 28.78515-11.71289 28.15235h-22.28515v6.44527h169.39062v-6.44531h-145.00586l28.7207-8.89453 48.22852-48.125h-7.89062l-39.92969 39.84765c-.67826-2.50375-1.73639-4.82339-3.40625-6.81054-1.8826-2.24031-4.52371-3.82305-7.78711-4.60352l29.42383-29.36133c-.29821-.12359-.59175-.25197-.87696-.39453l-1.54296-.76953zm-31.55274 36.54883c3.94831.0253 5.95645 1.1442 7.4043 2.86718 1.26171 1.50144 2.12363 3.81945 2.60742 6.75977l-16.0918 4.98242z" opacity=".433" stroke-width=".921728" transform="scale(.26458333)"/><path d="m155.28331 147.69793c-.24789 0-.43974.0657-.57531.19708-.13169.13142-.19746.31888-.19746.56236 0 .23192.0658.41522.19746.5505.13557.1314.32742.19708.57531.19708.24014 0 .42605-.0657.55774-.19708.13557-.13528.20316-.31858.20316-.5505 0-.24348-.0676-.43094-.20316-.56236-.13169-.13139-.3176-.19708-.55774-.19708zm-21.92661.39417v8.47599h2.37622c1.46411 0 2.58548-.36896 3.36401-1.10718.77854-.74207 1.1677-1.81292 1.1677-3.21207 0-1.31795-.37593-2.34048-1.12735-3.0671s-1.8029-1.08964-3.15468-1.08964zm1.38843 1.15928h1.20282c1.90179 0 2.85231 1.01476 2.85231 3.04391 0 2.07164-1.02224 3.10736-3.06734 3.10736h-.98779zm9.75502.78882c-.9141 0-1.6326.29915-2.1555.89823-.52289.59909-.78463 1.4223-.78463 2.46969 0 1.02037.28091 1.8226.84254 2.40623.5655.57973 1.34795.86981 2.34726.86981.43769 0 .82685-.0328 1.1677-.0985s.67795-.17792 1.01106-.33639v-1.10764c-.37571.16621-.72835.28615-1.05758.35958-.32535.0696-.67751.10423-1.0571.10423-.57712 0-1.02476-.16601-1.34237-.4984-.31761-.33624-.48617-.81557-.50553-1.43784h4.28203v-.73621c0-.90056-.24573-1.60793-.73764-2.12197s-1.16199-.77079-2.01024-.77079zm6.36774 0c-.76303 0-1.36735.1523-1.81277.45764-.44156.30146-.66265.72699-.66265 1.27584 0 .45607.12972.82685.38923 1.11286.26339.286.7654.57194 1.50519.85797.37959.14687.67556.27822.88859.39416.21303.11595.36605.22813.45901.33637.093.10823.13956.24368.13956.406 0 .5063-.42023.75944-1.26074.75944-.65071 0-1.35368-.17423-2.10897-.52209v1.17728c.51902.25896 1.20646.38849 2.06245.38849.85213 0 1.50668-.16647 1.96373-.49886.45705-.33626.68543-.81741.68543-1.44354 0-.3092-.058-.57371-.17421-.79401-.11619-.22418-.29433-.42167-.53448-.59173-.24014-.17006-.62566-.35749-1.1563-.56236-.63135-.24349-1.04199-.43458-1.23178-.57371-.18592-.13914-.27864-.30925-.27864-.51024 0-.40969.3604-.61446 1.08084-.61446.47254 0 1.05538.14273 1.7487.42876l.44144-1.02617c-.67395-.30534-1.38833-.45764-2.14363-.45764zm9.22007 0c-.81339 0-1.441.19109-1.88256.57371-.43768.38264-.65647.92169-.65647 1.61741 0 .43286.10278.81189.30806 1.13653.20916.32082.48049.55249.81359.69548-.26725.16233-.46869.32652-.60426.49272-.13556.16621-.20363.36914-.20363.60877 0 .18939.0585.37136.17468.5453.12007.17006.27079.29365.45284.37096-.44931.10435-.79964.28998-1.05141.55665-.24789.27056-.37214.60302-.37214.99726 0 .57201.23068 1.01258.6916 1.32177.46092.30922 1.12918.46383 2.00455.46383 1.13487 0 2.00227-.19749 2.60263-.59173.60036-.39421.90046-.95427.90046-1.68089 0-.56816-.18361-1.00325-.55157-1.30473-.36797-.30146-.90651-.45197-1.61532-.45197h-1.12118c-.36796 0-.62193-.0369-.76137-.11039-.13557-.0734-.20316-.18333-.20316-.3302 0-.24349.14707-.45648.44144-.63814.16656.0309.35246.0464.55774.0464.80177 0 1.43121-.18927 1.88826-.56804.45705-.37878.68543-.89872.68543-1.55961 0-.22032-.0329-.4287-.0987-.62584-.0658-.1971-.14897-.3636-.24968-.49885l1.09793-.20279v-.74806h-2.22528c-.1007-.0271-.25142-.0521-.45283-.0753-.19754-.027-.38757-.0403-.56961-.0403zm7.77943 0c-.43381 0-.82892.083-1.18526.24918-.35634.16621-.63132.40198-.82499.70732h-.0698l-.1913-.84092h-1.06944v6.41231h1.36564v-3.19453c0-.80008.13337-1.37015.40062-1.71027.26726-.34013.68978-.51024 1.26691-.51024.43381 0 .74943.12175.94697.36526.20141.24348.30189.61245.30189 1.10718v3.9426h1.37137v-4.17995c0-1.56534-.77104-2.34794-2.31261-2.34794zm-13.27568.11558v6.41231h1.36564v-6.41231zm5.48486.75944c.39894 0 .69492.11401.88858.34206.19754.22416.29668.54526.29668.96267 0 .84257-.39511 1.26397-1.18526 1.26397-.38733 0-.68561-.10855-.89477-.32499-.20528-.21643-.30806-.52565-.30806-.92761 0-.42902.10096-.75556.30237-.97974.20529-.22417.50538-.33636.90046-.33636zm-15.57642.15682c.4338 0 .77455.13727 1.02244.4117.24788.27053.37578.6705.38354 1.20001h-2.91687c.0504-.52563.20519-.9256.4647-1.20001.26339-.27443.61238-.4117 1.04619-.4117zm15.06519 5.47284h1.03384c.54226 0 .91225.0579 1.10979.17387.20141.1198.30237.31863.30237.59693 0 .35171-.18226.63403-.54635.84662-.36409.21255-.91816.31882-1.66184.31882-.48028 0-.85392-.0793-1.12118-.23783-.26338-.15847-.39493-.3842-.39493-.67794 0-.31306.1142-.56253.34272-.74807.2324-.18166.54438-.2724.93558-.2724z" stroke-width=".242798"/></g></svg>